SplineFontDB: 3.0
FontName: Ramabhadra
FullName: Ramabhadra
FamilyName: Ramabhadra
OS2FamilyName: "Ramabhadra"
OS2StyleName: "regular"
Weight: Regular
Copyright: Copyright (c) 2012, AP Society for Knowledge Networks, Hyderabad, INDIA.
Version: 1.0
FONDName: Ramabhadra
ItalicAngle: 0
UnderlinePosition: -623
UnderlineWidth: 20
Ascent: 819
Descent: 205
InvalidEm: 1
UFOAscent: 895
UFODescent: -310
LayerCount: 2
Layer: 0 0 "Back" 1
Layer: 1 0 "Fore" 0
FSType: 0
OS2Version: 0
OS2_WeightWidthSlopeOnly: 0
OS2_UseTypoMetrics: 0
CreationTime: 1416983199
ModificationTime: 1416983199
PfmFamily: 16
TTFWeight: 400
TTFWidth: 5
LineGap: 0
VLineGap: 0
Panose: 0 0 0 0 0 0 0 0 0 0
OS2TypoAscent: 895
OS2TypoAOffset: 0
OS2TypoDescent: -310
OS2TypoDOffset: 0
OS2TypoLinegap: 448
OS2WinAscent: 895
OS2WinAOffset: 0
OS2WinDescent: 653
OS2WinDOffset: 0
HheadAscent: 1119
HheadAOffset: 0
HheadDescent: -534
HheadDOffset: 0
OS2SubXSize: 700
OS2SubYSize: 650
OS2SubXOff: 0
OS2SubYOff: 140
OS2SupXSize: 700
OS2SupYSize: 650
OS2SupXOff: 0
OS2SupYOff: 477
OS2StrikeYSize: 50
OS2StrikeYPos: 250
OS2CapHeight: -1
OS2XHeight: -1
OS2Vendor: 'GPK '
Lookup: 258 0 0 "'kern' Horizontal Kerning in Telugu2 lookup 0" { "'kern' Horizontal Kerning in Telugu2 lookup 0 subtable"  } ['kern' ('tel2' <'dflt' > ) ]
DEI: 91125
GroupKern: "uni0C36_uni0C40.abvs_uni0C30_un" "uni0C36_uni0C4D.blwf" 218
GroupKern: "uni0C36_uni0C3F.abvs_uni0C30_un" "uni0C36_uni0C4D.blwf" 214
GroupKern: "uni0C36_uni0C40_uni0C30_uni0C4D" "uni0C36_uni0C4D.blwf" 214
GroupKern: "uni0C15" "uni0C1F_uni0C4D.blwf_uni0C30_un" 159
GroupKern: "uni0C15" "uni0C24_uni0C4D.blwf_uni0C30_un" 70

StartChar: exclam
Encoding: 1 33 1
GlifName: exclam
Width: 213
VWidth: 0
Flags: W
LayerCount: 2
Back
Fore
SplineSet
149 0 m 257
NamedP: "hr00"
 149 88 l 257
 60 88 l 257
 60 0 l 257
 149 0 l 257
NamedP: "hr00"
129 118 m 257
 152 353 l 257
 152 461 l 257
 56 461 l 257
 56 353 l 257
 79 118 l 257
 129 118 l 257
EndSplineSet
PickledDataWithLists: "(dp1
S'com.adobe.type.autohint'
p2
(S'data'
S'<data>\\n  <hintSetList>\\n    <hintset pointTag=\"hr00\">\\n      <hstem pos=\"0\" width=\"88\"/>\\n      <vstem pos=\"56\" width=\"96\"/>\\n      <vstem pos=\"60\" width=\"89\"/>\\n    </hintset>\\n  </hintSetList>\\n  </data>'
Ntp3
s."
EndChar

StartChar: percent
Encoding: 5 37 5
GlifName: percent
Width: 572
VWidth: 0
Flags: W
LayerCount: 2
Back
Fore
SplineSet
407 104 m 256
NamedP: "hr00"
 407 151 418 175 439 175 c 256
 460 175 471 151 471 104 c 256
 471 56 460 32 439 32 c 256
 418 32 407 56 407 104 c 256
NamedP: "hr00"
338 104 m 256
 338 22 373 -19 442 -19 c 256
 508 -19 541 22 541 104 c 256
 541 185 507 225 440 225 c 256
 372 225 338 185 338 104 c 256
439 469 m 257
 375 469 l 257
 131 -17 l 257
 195 -17 l 257
 439 469 l 257
96 348 m 256
 96 395 107 419 128 419 c 256
 149 419 160 395 160 348 c 256
 160 300 149 276 128 276 c 256
 107 276 96 300 96 348 c 256
27 348 m 256
 27 267 61 226 129 226 c 256
 197 226 231 267 231 348 c 256
 231 429 197 469 128 469 c 256
 61 469 27 429 27 348 c 256
EndSplineSet
PickledDataWithLists: "(dp1
S'com.adobe.type.autohint'
p2
(S'data'
S'<data>\\n  <hintSetList>\\n    <hintset pointTag=\"hr00\">\\n      <hstem pos=\"-19\" width=\"51\"/>\\n      <hstem pos=\"175\" width=\"50\"/>\\n      <hstem pos=\"226\" width=\"50\"/>\\n      <hstem pos=\"419\" width=\"50\"/>\\n      <vstem pos=\"27\" width=\"69\"/>\\n      <vstem pos=\"160\" width=\"71\"/>\\n      <vstem pos=\"338\" width=\"69\"/>\\n      <vstem pos=\"471\" width=\"70\"/>\\n    </hintset>\\n  </hintSetList>\\n  </data>'
Ntp3
s."
EndChar

StartChar: ampersand
Encoding: 6 38 6
GlifName: ampersand
Width: 771
VWidth: 0
Flags: W
LayerCount: 2
Back
Fore
SplineSet
448 130 m 257
NamedP: "hr00"
 397 102 352 88 314 88 c 256
 275 88 242 98 216 119 c 256
 190 140 177 165 177 194 c 256
 177 247 206 281 265 294 c 257
 448 130 l 257
NamedP: "hr00"
356 465 m 256
 356 434 335 410 294 391 c 257
 268 416 254 439 255 460 c 256
 257 496 279 519 311 519 c 256
 341 519 356 501 356 465 c 256
728 1 m 257
 648 78 602 121 591 128 c 257
 615 165 630 209 627 260 c 258
 624 308 l 257
 503 308 l 257
 508 293 511 281 511 270 c 256
 511 241 507 218 499 201 c 257
 446 256 398 300 355 334 c 257
 436 361 477 409 477 476 c 256
 477 560 404 605 305 605 c 256
 249 605 204 591 171 564 c 256
 140 539 124 510 124 476 c 256
 124 453 130 432 142 413 c 256
 150 401 166 383 191 360 c 257
 95 339 40 281 40 192 c 256
 40 129 68 79 125 43 c 256
 180 7 236 -6 311 -6 c 256
 402 -6 476 18 525 58 c 257
 591 1 l 257
 728 1 l 257
EndSplineSet
PickledDataWithLists: "(dp1
S'com.adobe.type.autohint'
p2
(S'data'
S'<data>\\n  <hintSetList>\\n    <hintset pointTag=\"hr00\">\\n      <hstem pos=\"-6\" width=\"94\"/>\\n      <hstem pos=\"22\" width=\"-21\"/>\\n      <hstem pos=\"519\" width=\"86\"/>\\n      <vstem pos=\"40\" width=\"137\"/>\\n      <vstem pos=\"124\" width=\"131\"/>\\n      <vstem pos=\"356\" width=\"121\"/>\\n      <vstem pos=\"511\" width=\"116\"/>\\n    </hintset>\\n  </hintSetList>\\n  </data>'
Ntp3
s."
EndChar

StartChar: quotesingle
Encoding: 7 39 7
GlifName: quotesingle
Width: 152
VWidth: 0
Flags: W
LayerCount: 2
Back
Fore
SplineSet
109 297 m 257
NamedP: "hr00"
 124 384 l 257
 124 461 l 257
 28 461 l 257
 28 384 l 257
 45 297 l 257
 109 297 l 257
NamedP: "hr00"
EndSplineSet
PickledDataWithLists: "(dp1
S'com.adobe.type.autohint'
p2
(S'data'
S'<data>\\n  <hintSetList>\\n    <hintset pointTag=\"hr00\">\\n      <hstem pos=\"297\" width=\"164\"/>\\n      <vstem pos=\"28\" width=\"96\"/>\\n    </hintset>\\n  </hintSetList>\\n  </data>'
Ntp3
s."
EndChar

StartChar: parenleft
Encoding: 8 40 8
GlifName: parenleft
Width: 255
VWidth: 0
Flags: W
LayerCount: 2
Back
Fore
SplineSet
220 -99 m 257
NamedP: "hr00"
 187 -93 161 -65 141 -16 c 256
 120 33 110 93 110 162 c 256
 110 231 120 291 141 341 c 256
 161 390 187 418 220 423 c 257
 220 481 l 257
 169 480 125 448 90 386 c 256
 55 323 37 249 37 162 c 256
 37 73 56 -3 91 -65 c 256
 127 -128 169 -159 220 -159 c 257
 220 -99 l 257
NamedP: "hr00"
EndSplineSet
PickledDataWithLists: "(dp1
S'com.adobe.type.autohint'
p2
(S'data'
S'<data>\\n  <hintSetList>\\n    <hintset pointTag=\"hr00\">\\n      <hstem pos=\"-159\" width=\"640\"/>\\n      <vstem pos=\"37\" width=\"73\"/>\\n    </hintset>\\n  </hintSetList>\\n  </data>'
Ntp3
s."
EndChar

StartChar: parenright
Encoding: 9 41 9
GlifName: parenright
Width: 255
VWidth: 0
Flags: W
LayerCount: 2
Back
Fore
SplineSet
37 -159 m 257
NamedP: "hr00"
 88 -159 129 -127 165 -65 c 256
 201 -2 220 73 220 162 c 256
 220 249 203 323 167 386 c 256
 132 448 88 480 37 481 c 257
 37 421 l 257
 69 416 95 388 116 339 c 256
 137 290 147 231 147 162 c 256
 147 93 137 33 116 -16 c 256
 95 -65 69 -92 37 -97 c 257
 37 -159 l 257
NamedP: "hr00"
EndSplineSet
PickledDataWithLists: "(dp1
S'com.adobe.type.autohint'
p2
(S'data'
S'<data>\\n  <hintSetList>\\n    <hintset pointTag=\"hr00\">\\n      <hstem pos=\"-159\" width=\"640\"/>\\n      <vstem pos=\"147\" width=\"73\"/>\\n    </hintset>\\n  </hintSetList>\\n  </data>'
Ntp3
s."
EndChar

StartChar: asterisk
Encoding: 10 42 10
GlifName: asterisk
Width: 250
VWidth: 0
Flags: W
LayerCount: 2
Back
Fore
SplineSet
76 249 m 257
NamedP: "hr00"
 93 274 108 299 120 322 c 257
 162 252 l 257
 210 284 l 257
 201 296 195 302 193 303 c 257
 156 347 l 257
 187 352 213 356 236 361 c 257
 219 419 l 257
 184 404 158 392 140 385 c 257
 146 426 149 454 149 469 c 257
 93 469 l 257
 93 448 96 420 101 386 c 257
 78 399 54 411 27 422 c 257
 8 366 l 257
 25 361 52 355 88 347 c 257
 69 330 50 309 29 286 c 257
 76 249 l 257
NamedP: "hr00"
EndSplineSet
PickledDataWithLists: "(dp1
S'com.adobe.type.autohint'
p2
(S'data'
S'<data>\\n  <hintSetList>\\n    <hintset pointTag=\"hr00\">\\n      <hstem pos=\"249\" width=\"220\"/>\\n      <vstem pos=\"93\" width=\"56\"/>\\n    </hintset>\\n  </hintSetList>\\n  </data>'
Ntp3
s."
EndChar

StartChar: plus
Encoding: 11 43 11
GlifName: plus
Width: 376
VWidth: 0
Flags: W
LayerCount: 2
Back
Fore
SplineSet
226 67 m 257
NamedP: "hr00"
 226 186 l 257
 348 186 l 257
 348 269 l 257
 226 269 l 257
 226 389 l 257
 146 389 l 257
 146 269 l 257
 25 269 l 257
 25 186 l 257
 146 186 l 257
 146 67 l 257
 226 67 l 257
NamedP: "hr00"
EndSplineSet
PickledDataWithLists: "(dp1
S'com.adobe.type.autohint'
p2
(S'data'
S'<data>\\n  <hintSetList>\\n    <hintset pointTag=\"hr00\">\\n      <hstem pos=\"186\" width=\"83\"/>\\n      <vstem pos=\"146\" width=\"80\"/>\\n    </hintset>\\n  </hintSetList>\\n  </data>'
Ntp3
s."
EndChar

StartChar: comma
Encoding: 12 44 12
GlifName: comma
Width: 177
VWidth: 0
Flags: W
LayerCount: 2
Back
Fore
SplineSet
42 0 m 257
NamedP: "hr00"
 86 0 l 257
 85 -34 68 -56 35 -67 c 257
 52 -102 l 257
 105 -85 131 -42 131 25 c 258
 131 88 l 257
 42 88 l 257
 42 0 l 257
NamedP: "hr00"
EndSplineSet
PickledDataWithLists: "(dp1
S'com.adobe.type.autohint'
p2
(S'data'
S'<data>\\n  <hintSetList>\\n    <hintset pointTag=\"hr00\">\\n      <hstem pos=\"0\" width=\"88\"/>\\n      <vstem pos=\"42\" width=\"89\"/>\\n    </hintset>\\n  </hintSetList>\\n  </data>'
Ntp3
s."
EndChar

StartChar: hyphen
Encoding: 13 45 13
GlifName: hyphen
Width: 213
VWidth: 0
Flags: W
LayerCount: 2
Back
Fore
SplineSet
193 123 m 257
NamedP: "hr00"
 193 211 l 257
 19 211 l 257
 19 123 l 257
 193 123 l 257
NamedP: "hr00"
EndSplineSet
PickledDataWithLists: "(dp1
S'com.adobe.type.autohint'
p2
(S'data'
S'<data>\\n  <hintSetList>\\n    <hintset pointTag=\"hr00\">\\n      <hstem pos=\"123\" width=\"88\"/>\\n      <vstem pos=\"19\" width=\"174\"/>\\n    </hintset>\\n  </hintSetList>\\n  </data>'
Ntp3
s."
EndChar

StartChar: period
Encoding: 14 46 14
GlifName: period
Width: 177
VWidth: 0
Flags: W
LayerCount: 2
Back
Fore
SplineSet
133 0 m 257
NamedP: "hr00"
 133 88 l 257
 45 88 l 257
 45 0 l 257
 133 0 l 257
NamedP: "hr00"
EndSplineSet
PickledDataWithLists: "(dp1
S'com.adobe.type.autohint'
p2
(S'data'
S'<data>\\n  <hintSetList>\\n    <hintset pointTag=\"hr00\">\\n      <hstem pos=\"0\" width=\"88\"/>\\n      <vstem pos=\"45\" width=\"88\"/>\\n    </hintset>\\n  </hintSetList>\\n  </data>'
Ntp3
s."
EndChar

StartChar: slash
Encoding: 15 47 15
GlifName: slash
Width: 307
VWidth: 0
Flags: W
LayerCount: 2
Back
Fore
SplineSet
225 623 m 257
NamedP: "hr00"
 -33 -120 l 257
 46 -120 l 257
 304 629 l 257
 225 623 l 257
NamedP: "hr00"
EndSplineSet
PickledDataWithLists: "(dp1
S'com.adobe.type.autohint'
p2
(S'data'
S'<data>\\n  <hintSetList>\\n    <hintset pointTag=\"hr00\">\\n      <hstem pos=\"-120\" width=\"749\"/>\\n      <vstem pos=\"-33\" width=\"337\"/>\\n    </hintset>\\n  </hintSetList>\\n  </data>'
Ntp3
s."
EndChar

StartChar: zero
Encoding: 16 48 16
GlifName: zero
Width: 565
VWidth: 0
Flags: W
LayerCount: 2
Back
Fore
SplineSet
394 255 m 256
NamedP: "hr00"
 394 180 386 133 374 102 c 257
 360 77 331 64 287 64 c 256
 242 64 213 77 201 102 c 256
 189 128 183 179 183 255 c 256
 183 330 189 381 201 406 c 256
 214 431 242 444 287 444 c 256
 333 444 362 430 375 403 c 256
 388 376 394 327 394 255 c 256
NamedP: "hr00"
537 255 m 256
 537 370 515 444 462 491 c 256
 424 526 364 542 287 542 c 256
 210 542 151 526 113 491 c 256
 63 444 40 364 40 255 c 256
 40 144 64 65 113 20 c 256
 152 -15 210 -33 287 -33 c 256
 365 -33 423 -15 462 20 c 256
 518 71 537 139 537 255 c 256
EndSplineSet
PickledDataWithLists: "(dp1
S'com.adobe.type.autohint'
p2
(S'data'
S'<data>\\n  <hintSetList>\\n    <hintset pointTag=\"hr00\">\\n      <hstem pos=\"-33\" width=\"97\"/>\\n      <hstem pos=\"444\" width=\"98\"/>\\n      <vstem pos=\"40\" width=\"143\"/>\\n      <vstem pos=\"394\" width=\"143\"/>\\n    </hintset>\\n  </hintSetList>\\n  </data>'
Ntp3
s."
EndChar

StartChar: one
Encoding: 17 49 17
GlifName: one
Width: 513
VWidth: 0
Flags: W
LayerCount: 2
Back
Fore
SplineSet
353 531 m 257
NamedP: "hr00"
 260 531 l 257
 251 478 173 433 40 433 c 257
 40 361 l 257
 213 361 l 257
 213 -16 l 257
 353 -16 l 257
 353 531 l 257
NamedP: "hr00"
EndSplineSet
PickledDataWithLists: "(dp1
S'com.adobe.type.autohint'
p2
(S'data'
S'<data>\\n  <hintSetList>\\n    <hintset pointTag=\"hr00\">\\n      <hstem pos=\"361\" width=\"72\"/>\\n      <vstem pos=\"213\" width=\"140\"/>\\n    </hintset>\\n  </hintSetList>\\n  </data>'
Ntp3
s."
EndChar

StartChar: two
Encoding: 18 50 18
GlifName: two
Width: 560
VWidth: 0
Flags: W
LayerCount: 2
Back
Fore
SplineSet
531 369 m 258
NamedP: "hr00"
 531 481 456 542 303 542 c 256
 124 542 51 476 51 342 c 257
 187 342 l 257
 187 417 219 454 284 454 c 256
 340 454 373 435 383 396 c 257
 388 363 l 257
 388 336 374 310 347 286 c 257
 275 241 208 202 150 168 c 256
 105 142 76 110 59 75 c 256
 50 55 45 31 40 -16 c 257
 529 -16 l 257
 529 83 l 257
 225 83 l 257
 238 106 282 138 357 178 c 256
 468 236 526 292 531 345 c 257
 531 369 l 258
NamedP: "hr00"
EndSplineSet
PickledDataWithLists: "(dp1
S'com.adobe.type.autohint'
p2
(S'data'
S'<data>\\n  <hintSetList>\\n    <hintset pointTag=\"hr00\">\\n      <hstem pos=\"-16\" width=\"99\"/>\\n      <hstem pos=\"454\" width=\"88\"/>\\n      <vstem pos=\"51\" width=\"136\"/>\\n      <vstem pos=\"388\" width=\"143\"/>\\n    </hintset>\\n  </hintSetList>\\n  </data>'
Ntp3
s."
EndChar

StartChar: three
Encoding: 19 51 19
GlifName: three
Width: 563
VWidth: 0
Flags: W
LayerCount: 2
Back
Fore
SplineSet
536 126 m 256
NamedP: "hr00"
 536 170 529 197 514 218 c 256
 497 241 470 261 432 278 c 257
 485 317 l 257
 499 333 509 353 511 376 c 258
 513 398 l 257
 513 443 489 479 443 510 c 256
 413 530 371 542 311 542 c 256
 250 542 194 537 165 524 c 256
 110 501 76 472 61 437 c 256
 54 420 51 394 51 359 c 257
 183 359 l 257
 184 378 190 410 198 422 c 256
 212 445 240 456 281 456 c 256
 345 456 377 434 377 389 c 257
 373 363 l 258
 367 322 320 301 231 301 c 257
 231 227 l 257
 265 229 l 258
 337 233 392 190 392 143 c 256
 392 116 377 93 348 72 c 256
 323 54 309 52 294 52 c 258
 273 52 l 257
 245 59 l 258
 217 66 200 78 193 91 c 257
 186 100 181 118 176 146 c 257
 40 146 l 257
 40 97 58 58 93 28 c 256
 141 -13 204 -33 282 -33 c 256
 368 -33 436 -15 483 25 c 256
 519 55 536 87 536 126 c 256
NamedP: "hr00"
EndSplineSet
PickledDataWithLists: "(dp1
S'com.adobe.type.autohint'
p2
(S'data'
S'<data>\\n  <hintSetList>\\n    <hintset pointTag=\"hr00\">\\n      <hstem pos=\"-33\" width=\"85\"/>\\n      <hstem pos=\"229\" width=\"72\"/>\\n      <hstem pos=\"456\" width=\"86\"/>\\n      <vstem pos=\"40\" width=\"496\"/>\\n      <vstem pos=\"51\" width=\"132\"/>\\n      <vstem pos=\"377\" width=\"136\"/>\\n      <vstem pos=\"392\" width=\"144\"/>\\n    </hintset>\\n  </hintSetList>\\n  </data>'
Ntp3
s."
EndChar

StartChar: four
Encoding: 20 52 20
GlifName: four
Width: 573
VWidth: 0
Flags: W
LayerCount: 2
Back
Fore
SplineSet
142 192 m 257
NamedP: "hr00"
 329 419 l 257
 329 192 l 257
 142 192 l 257
NamedP: "hr00"
546 192 m 257
 471 192 l 257
 471 531 l 257
 305 531 l 257
 40 195 l 257
 40 105 l 257
 329 105 l 257
 329 -16 l 257
 471 -16 l 257
 471 105 l 257
 546 105 l 257
 546 192 l 257
EndSplineSet
PickledDataWithLists: "(dp1
S'com.adobe.type.autohint'
p2
(S'data'
S'<data>\\n  <hintSetList>\\n    <hintset pointTag=\"hr00\">\\n      <hstem pos=\"105\" width=\"87\"/>\\n      <vstem pos=\"329\" width=\"142\"/>\\n    </hintset>\\n  </hintSetList>\\n  </data>'
Ntp3
s."
EndChar

StartChar: five
Encoding: 21 53 21
GlifName: five
Width: 565
VWidth: 0
Flags: W
LayerCount: 2
Back
Fore
SplineSet
517 531 m 257
NamedP: "hr00"
 135 531 l 257
 68 226 l 257
 198 226 l 257
 214 253 241 266 279 266 c 256
 322 266 355 255 378 234 c 256
 393 219 401 195 401 164 c 256
 401 93 365 58 294 58 c 256
 227 58 191 81 188 126 c 257
 48 126 l 257
 43 80 68 39 122 7 c 256
 175 -25 228 -33 296 -33 c 256
 392 -33 462 -2 505 51 c 256
 532 84 546 122 546 167 c 256
 546 207 534 242 511 273 c 256
 485 307 447 331 398 343 c 256
 361 352 351 352 324 352 c 256
 313 352 299 352 263 345 c 257
 229 334 207 326 198 321 c 257
 221 433 l 257
 517 433 l 257
 517 531 l 257
NamedP: "hr00"
EndSplineSet
PickledDataWithLists: "(dp1
S'com.adobe.type.autohint'
p2
(S'data'
S'<data>\\n  <hintSetList>\\n    <hintset pointTag=\"hr00\">\\n      <hstem pos=\"-33\" width=\"91\"/>\\n      <hstem pos=\"266\" width=\"86\"/>\\n      <hstem pos=\"433\" width=\"98\"/>\\n      <vstem pos=\"401\" width=\"145\"/>\\n    </hintset>\\n  </hintSetList>\\n  </data>'
Ntp3
s."
EndChar

StartChar: six
Encoding: 22 54 22
GlifName: six
Width: 565
VWidth: 0
Flags: W
LayerCount: 2
Back
Fore
SplineSet
382 229 m 257
NamedP: "hr00"
 395 216 401 196 401 167 c 256
 401 132 388 104 363 83 c 256
 336 59 320 55 279 57 c 256
 220 59 178 101 178 158 c 256
 178 179 183 197 194 213 c 256
 215 246 246 263 287 263 c 256
 331 263 363 252 382 229 c 257
NamedP: "hr00"
526 410 m 257
 511 487 450 534 343 542 c 258
 303 545 l 258
 183 554 105 496 65 398 c 256
 49 360 40 312 40 255 c 256
 40 128 70 50 149 4 c 256
 193 -22 238 -33 294 -33 c 256
 401 -33 473 6 513 75 c 256
 530 103 538 134 538 169 c 256
 538 214 524 251 495 280 c 256
 456 320 404 345 340 345 c 256
 277 345 225 331 184 303 c 257
 179 334 l 257
 179 365 186 386 197 406 c 256
 216 441 253 458 308 458 c 256
 348 458 376 442 393 410 c 257
 526 410 l 257
EndSplineSet
PickledDataWithLists: "(dp1
S'com.adobe.type.autohint'
p2
(S'data'
S'<data>\\n  <hintSetList>\\n    <hintset pointTag=\"hr00\">\\n      <hstem pos=\"-33\" width=\"90\"/>\\n      <hstem pos=\"263\" width=\"82\"/>\\n      <hstem pos=\"458\" width=\"87\"/>\\n      <vstem pos=\"40\" width=\"138\"/>\\n      <vstem pos=\"401\" width=\"137\"/>\\n    </hintset>\\n  </hintSetList>\\n  </data>'
Ntp3
s."
EndChar

StartChar: seven
Encoding: 23 55 23
GlifName: seven
Width: 574
VWidth: 0
Flags: W
LayerCount: 2
Back
Fore
SplineSet
547 531 m 257
NamedP: "hr00"
 40 531 l 257
 40 433 l 257
 397 433 l 257
 318 351 261 286 231 236 c 256
 190 169 162 84 145 -16 c 257
 287 -16 l 257
 287 63 310 142 356 222 c 256
 399 295 463 370 547 447 c 257
 547 531 l 257
NamedP: "hr00"
EndSplineSet
PickledDataWithLists: "(dp1
S'com.adobe.type.autohint'
p2
(S'data'
S'<data>\\n  <hintSetList>\\n    <hintset pointTag=\"hr00\">\\n      <hstem pos=\"433\" width=\"98\"/>\\n      <vstem pos=\"40\" width=\"507\"/>\\n    </hintset>\\n  </hintSetList>\\n  </data>'
Ntp3
s."
EndChar

StartChar: eight
Encoding: 24 56 24
GlifName: eight
Width: 581
VWidth: 0
Flags: W
LayerCount: 2
Back
Fore
SplineSet
378 205 m 256
NamedP: "hr00"
 390 191 397 174 397 153 c 256
 397 120 388 97 369 84 c 257
 348 66 320 57 287 57 c 256
 255 57 228 68 207 89 c 256
 194 101 188 121 188 148 c 256
 188 203 228 238 295 238 c 256
 332 238 359 227 378 205 c 256
NamedP: "hr00"
388 437 m 257
 400 425 406 411 406 396 c 256
 406 368 391 346 362 331 c 257
 337 312 318 311 289 311 c 256
 260 311 238 318 221 333 c 256
 201 351 191 370 191 390 c 256
 191 411 201 429 221 442 c 256
 246 457 269 460 308 460 c 256
 343 460 369 450 388 437 c 257
514 62 m 257
 539 87 552 118 552 153 c 256
 552 214 511 265 434 281 c 257
 491 298 529 342 529 391 c 256
 529 422 515 452 487 481 c 256
 444 524 377 542 281 542 c 256
 190 542 126 515 91 460 c 256
 74 433 66 410 66 391 c 256
 66 354 94 318 151 281 c 257
 77 249 40 203 40 143 c 256
 40 115 48 88 63 62 c 257
 107 1 182 -33 286 -33 c 256
 395 -33 471 -1 514 62 c 257
EndSplineSet
PickledDataWithLists: "(dp1
S'com.adobe.type.autohint'
p2
(S'data'
S'<data>\\n  <hintSetList>\\n    <hintset pointTag=\"hr00\">\\n      <hstem pos=\"-33\" width=\"90\"/>\\n      <hstem pos=\"238\" width=\"73\"/>\\n      <hstem pos=\"460\" width=\"82\"/>\\n      <vstem pos=\"40\" width=\"148\"/>\\n      <vstem pos=\"66\" width=\"125\"/>\\n      <vstem pos=\"397\" width=\"155\"/>\\n      <vstem pos=\"406\" width=\"123\"/>\\n    </hintset>\\n  </hintSetList>\\n  </data>'
Ntp3
s."
EndChar

StartChar: nine
Encoding: 25 57 25
GlifName: nine
Width: 566
VWidth: 0
Flags: W
LayerCount: 2
Back
Fore
SplineSet
362 281 m 256
NamedP: "hr00"
 337 261 311 252 282 252 c 256
 252 252 224 260 200 279 c 256
 176 297 165 322 165 350 c 256
 165 383 174 406 193 419 c 257
 218 442 245 454 276 454 c 256
 344 454 392 425 392 349 c 256
 392 320 382 297 362 281 c 256
NamedP: "hr00"
496 438 m 257
 485 469 456 496 409 517 c 256
 370 535 337 542 310 542 c 257
 271 547 l 257
 181 547 115 516 71 453 c 256
 51 424 40 389 40 348 c 256
 40 313 48 282 63 257 c 256
 92 206 141 169 213 165 c 258
 268 162 l 258
 317 159 358 178 390 210 c 257
 393 203 395 193 395 180 c 256
 395 158 389 132 376 102 c 257
 357 68 320 51 265 51 c 257
 218 58 183 88 188 112 c 257
 49 112 l 257
 44 85 59 58 91 28 c 256
 134 -12 191 -33 265 -33 c 256
 364 -33 435 -1 479 59 c 256
 516 110 536 181 536 274 c 256
 536 341 523 395 496 438 c 257
EndSplineSet
PickledDataWithLists: "(dp1
S'com.adobe.type.autohint'
p2
(S'data'
S'<data>\\n  <hintSetList>\\n    <hintset pointTag=\"hr00\">\\n      <hstem pos=\"-33\" width=\"84\"/>\\n      <hstem pos=\"162\" width=\"90\"/>\\n      <hstem pos=\"454\" width=\"93\"/>\\n      <vstem pos=\"40\" width=\"125\"/>\\n      <vstem pos=\"392\" width=\"144\"/>\\n    </hintset>\\n  </hintSetList>\\n  </data>'
Ntp3
s."
EndChar

StartChar: colon
Encoding: 26 58 26
GlifName: colon
Width: 215
VWidth: 0
Flags: W
LayerCount: 2
Back
Fore
SplineSet
188 76 m 256
NamedP: "hr00"
 188 93 181 111 166 131 c 256
 153 148 137 157 118 157 c 256
 99 157 81 148 66 130 c 256
 51 113 44 94 44 73 c 256
 44 25 68 1 115 1 c 256
 133 1 150 8 165 21 c 257
 180 38 188 57 188 76 c 256
NamedP: "hr00"
183 354 m 256
 183 391 152 419 113 419 c 256
 74 419 40 391 40 350 c 256
 40 303 63 279 109 279 c 256
 146 279 183 311 183 354 c 256
EndSplineSet
PickledDataWithLists: "(dp1
S'com.adobe.type.autohint'
p2
(S'data'
S'<data>\\n  <hintSetList>\\n    <hintset pointTag=\"hr00\">\\n      <hstem pos=\"22\" width=\"-21\"/>\\n      <hstem pos=\"279\" width=\"140\"/>\\n      <vstem pos=\"40\" width=\"143\"/>\\n      <vstem pos=\"44\" width=\"144\"/>\\n    </hintset>\\n  </hintSetList>\\n  </data>'
Ntp3
s."
EndChar

StartChar: semicolon
Encoding: 27 59 27
GlifName: semicolon
Width: 214
VWidth: 0
Flags: W
LayerCount: 2
Back
Fore
SplineSet
187 35 m 256
NamedP: "hr00"
 187 56 179 75 163 91 c 257
 147 111 128 121 105 121 c 256
 69 121 40 95 40 58 c 256
 40 41 45 28 54 17 c 257
 77 -5 l 257
 96 -8 105 -16 105 -31 c 256
 104 -47 100 -59 84 -78 c 257
 105 -82 128 -71 151 -46 c 256
 175 -21 187 6 187 35 c 256
NamedP: "hr00"
184 300 m 256
 184 321 178 336 165 345 c 257
 152 358 136 364 115 364 c 256
 76 364 41 333 41 296 c 256
 41 259 67 225 112 225 c 256
 148 225 184 257 184 300 c 256
EndSplineSet
PickledDataWithLists: "(dp1
S'com.adobe.type.autohint'
p2
(S'data'
S'<data>\\n  <hintSetList>\\n    <hintset pointTag=\"hr00\">\\n      <hstem pos=\"225\" width=\"139\"/>\\n      <vstem pos=\"40\" width=\"147\"/>\\n      <vstem pos=\"41\" width=\"143\"/>\\n    </hintset>\\n  </hintSetList>\\n  </data>'
Ntp3
s."
EndChar

StartChar: equal
Encoding: 29 61 29
GlifName: equal
Width: 597
VWidth: 0
Flags: W
LayerCount: 2
Back
Fore
SplineSet
556 236 m 257
NamedP: "hr00"
 40 236 l 257
 40 143 l 257
 556 143 l 257
 556 236 l 257
NamedP: "hr00"
556 405 m 257
 40 405 l 257
 40 315 l 257
 556 315 l 257
 556 405 l 257
EndSplineSet
PickledDataWithLists: "(dp1
S'com.adobe.type.autohint'
p2
(S'data'
S'<data>\\n  <hintSetList>\\n    <hintset pointTag=\"hr00\">\\n      <hstem pos=\"143\" width=\"93\"/>\\n      <hstem pos=\"315\" width=\"90\"/>\\n      <vstem pos=\"40\" width=\"516\"/>\\n    </hintset>\\n  </hintSetList>\\n  </data>'
Ntp3
s."
EndChar

StartChar: question
Encoding: 31 63 31
GlifName: question
Width: 446
VWidth: 0
Flags: W
LayerCount: 2
Back
Fore
SplineSet
257 32 m 256
NamedP: "hr00"
 257 52 250 70 235 86 c 257
 219 100 200 107 179 107 c 256
 139 107 108 75 108 32 c 256
 108 -9 142 -42 179 -42 c 256
 227 -42 257 -9 257 32 c 256
NamedP: "hr00"
419 424 m 256
 419 473 400 515 363 549 c 256
 334 577 295 591 247 591 c 256
 207 591 166 583 124 565 c 256
 68 541 40 488 40 411 c 257
 146 411 l 257
 145 415 144 422 144 431 c 256
 144 478 174 501 235 501 c 256
 289 501 316 476 316 427 c 256
 316 406 300 387 267 375 c 258
 193 349 l 257
 142 320 116 280 116 227 c 256
 116 200 119 178 124 162 c 257
 221 162 l 257
 221 229 l 258
 221 254 225 269 233 276 c 256
 242 283 258 288 281 295 c 256
 373 321 419 365 419 424 c 256
EndSplineSet
PickledDataWithLists: "(dp1
S'com.adobe.type.autohint'
p2
(S'data'
S'<data>\\n  <hintSetList>\\n    <hintset pointTag=\"hr00\">\\n      <hstem pos=\"-42\" width=\"149\"/>\\n      <hstem pos=\"501\" width=\"90\"/>\\n      <vstem pos=\"40\" width=\"104\"/>\\n      <vstem pos=\"108\" width=\"149\"/>\\n      <vstem pos=\"116\" width=\"105\"/>\\n      <vstem pos=\"316\" width=\"103\"/>\\n    </hintset>\\n  </hintSetList>\\n  </data>'
Ntp3
s."
EndChar

StartChar: ellipsis
Encoding: 95 8230 95
GlifName: ellipsis
Width: 1028
VWidth: 0
Flags: W
LayerCount: 2
Back
Fore
SplineSet
792 -36 m 257
NamedP: "hr00"
 979 -36 l 257
 979 25 l 257
 792 25 l 257
 792 -36 l 257
NamedP: "hr00"
414 -36 m 257
 601 -36 l 257
 601 25 l 257
 414 25 l 257
 414 -36 l 257
20 -36 m 257
 206 -36 l 257
 206 25 l 257
 20 25 l 257
 20 -36 l 257
EndSplineSet
PickledDataWithLists: "(dp1
S'com.adobe.type.autohint'
p2
(S'data'
S'<data>\\n  <hintSetList>\\n    <hintset pointTag=\"hr00\">\\n      <hstem pos=\"-36\" width=\"61\"/>\\n      <vstem pos=\"20\" width=\"186\"/>\\n      <vstem pos=\"414\" width=\"187\"/>\\n      <vstem pos=\"792\" width=\"187\"/>\\n    </hintset>\\n  </hintSetList>\\n  </data>'
Ntp3
s."
EndChar

StartChar: quoteleft
Encoding: 96 8216 96
GlifName: quoteleft
Width: 204
VWidth: 0
Flags: W
LayerCount: 2
Back
Fore
SplineSet
190 444 m 256
NamedP: "hr00"
 190 462 176 485 149 512 c 257
 128 515 117 525 117 540 c 257
 119 556 126 574 139 593 c 257
 115 598 90 587 65 560 c 256
 40 533 27 503 27 470 c 256
 27 447 36 425 53 404 c 256
 71 383 93 373 118 373 c 256
 137 373 154 379 168 391 c 257
 183 407 190 425 190 444 c 256
NamedP: "hr00"
EndSplineSet
PickledDataWithLists: "(dp1
S'com.adobe.type.autohint'
p2
(S'data'
S'<data>\\n  <hintSetList>\\n    <hintset pointTag=\"hr00\">\\n      <hstem pos=\"373\" width=\"221\"/>\\n      <vstem pos=\"27\" width=\"163\"/>\\n    </hintset>\\n  </hintSetList>\\n  </data>'
Ntp3
s."
EndChar

StartChar: quoteright
Encoding: 97 8217 97
GlifName: quoteright
Width: 203
VWidth: 0
Flags: W
LayerCount: 2
Back
Fore
SplineSet
190 511 m 256
NamedP: "hr00"
 190 534 181 555 164 576 c 256
 145 598 124 609 99 609 c 256
 78 609 62 602 48 588 c 256
 34 574 27 558 27 537 c 256
 27 519 41 496 68 469 c 257
 89 466 99 457 99 440 c 256
 99 425 91 408 76 387 c 257
 100 384 125 396 151 423 c 256
 177 450 190 480 190 511 c 256
NamedP: "hr00"
EndSplineSet
PickledDataWithLists: "(dp1
S'com.adobe.type.autohint'
p2
(S'data'
S'<data>\\n  <hintSetList>\\n    <hintset pointTag=\"hr00\">\\n      <hstem pos=\"387\" width=\"222\"/>\\n      <vstem pos=\"27\" width=\"163\"/>\\n    </hintset>\\n  </hintSetList>\\n  </data>'
Ntp3
s."
EndChar

StartChar: quotedblleft
Encoding: 98 8220 98
GlifName: quotedblleft
Width: 492
VWidth: 0
Flags: W
LayerCount: 2
Back
Fore
SplineSet
401 697 m 257
NamedP: "hr00"
 366 672 341 645 322 619 c 256
 298 585 285 551 285 514 c 256
 285 469 312 428 352 428 c 256
 380 428 408 452 408 477 c 256
 408 505 387 531 360 531 c 257
 340 528 l 257
 335 527 l 257
 327 527 l 257
 323 534 l 257
 320 552 325 573 339 598 c 256
 355 627 381 653 412 680 c 257
 401 697 l 257
NamedP: "hr00"
197 697 m 257
 162 672 137 645 118 619 c 256
 94 585 81 551 81 514 c 256
 81 469 108 428 149 428 c 256
 177 428 204 452 204 477 c 256
 204 505 183 531 156 531 c 257
 137 528 l 257
 132 527 l 257
 123 527 l 257
 119 534 l 257
 117 552 121 573 135 598 c 256
 151 627 177 653 208 680 c 257
 197 697 l 257
EndSplineSet
PickledDataWithLists: "(dp1
S'com.adobe.type.autohint'
p2
(S'data'
S'<data>\\n  <hintSetList>\\n    <hintset pointTag=\"hr00\">\\n      <hstem pos=\"428\" width=\"103\"/>\\n      <vstem pos=\"81\" width=\"38\"/>\\n      <vstem pos=\"285\" width=\"38\"/>\\n    </hintset>\\n  </hintSetList>\\n  </data>'
Ntp3
s."
EndChar

StartChar: quotedblright
Encoding: 99 8221 99
GlifName: quotedblright
Width: 492
VWidth: 0
Flags: W
LayerCount: 2
Back
Fore
SplineSet
407 542 m 256
NamedP: "hr00"
 407 587 380 628 339 628 c 256
 329 628 319 625 308 619 c 256
 292 610 284 596 284 577 c 256
 284 548 305 524 332 524 c 257
 351 526 l 257
 356 527 l 257
 362 527 l 257
 369 522 l 257
 371 504 367 483 353 458 c 256
 337 429 311 403 279 376 c 257
 291 359 l 257
 327 385 354 411 371 436 c 256
 395 469 407 504 407 542 c 256
NamedP: "hr00"
186 542 m 256
 186 587 161 628 118 628 c 256
 108 628 98 625 89 619 c 257
 72 610 63 596 63 577 c 256
 63 548 84 524 112 524 c 257
 131 526 l 257
 137 527 l 257
 143 527 l 257
 149 522 l 257
 152 504 146 483 132 458 c 256
 115 430 91 403 59 376 c 257
 71 359 l 257
 108 385 135 411 152 436 c 256
 175 469 186 504 186 542 c 256
EndSplineSet
PickledDataWithLists: "(dp1
S'com.adobe.type.autohint'
p2
(S'data'
S'<data>\\n  <hintSetList>\\n    <hintset pointTag=\"hr00\">\\n      <hstem pos=\"524\" width=\"104\"/>\\n      <vstem pos=\"149\" width=\"37\"/>\\n      <vstem pos=\"369\" width=\"38\"/>\\n    </hintset>\\n  </hintSetList>\\n  </data>'
Ntp3
s."
EndChar

StartChar: bullet
Encoding: 100 8226 100
GlifName: bullet
Width: 572
VWidth: 0
Flags: W
LayerCount: 2
Back
Fore
SplineSet
261 271 m 258
NamedP: "hr00"
 256 266 250 263 244 262 c 257
 244 281 248 302 255 326 c 256
 259 341 266 361 276 385 c 256
 285 406 289 417 289 434 c 256
 289 447 284 458 273 469 c 256
 262 479 250 486 236 491 c 257
 201 482 179 460 179 428 c 256
 179 420 182 409 187 395 c 257
 191 388 225 303 225 275 c 258
 225 262 l 257
 212 267 199 277 186 292 c 256
 177 303 165 317 153 335 c 256
 140 354 131 366 123 373 c 256
 110 385 96 391 81 391 c 256
 68 391 56 387 45 380 c 257
 41 379 35 375 26 369 c 257
 25 343 l 258
 24 319 35 302 54 292 c 256
 65 287 86 280 117 276 c 256
 156 271 191 262 219 246 c 257
 196 230 164 221 135 217 c 258
 97 212 l 258
 76 209 59 203 46 195 c 256
 31 185 24 170 24 151 c 256
 24 142 25 134 26 121 c 257
 49 108 57 100 82 100 c 256
 94 100 106 104 117 112 c 256
 126 119 134 128 141 141 c 257
 159 164 172 181 181 190 c 257
 196 208 211 222 225 231 c 257
 225 223 l 258
 225 195 216 169 203 134 c 258
 193 107 l 258
 186 89 182 74 182 62 c 256
 182 46 187 33 197 22 c 256
 207 11 220 3 236 -1 c 257
 269 7 290 30 290 63 c 256
 290 73 288 82 284 89 c 257
 284 93 283 98 281 105 c 257
 265 137 l 258
 258 151 254 165 250 178 c 256
 245 195 242 209 242 220 c 258
 242 231 l 257
 257 221 273 209 286 192 c 258
 325 144 l 257
 334 129 343 119 351 112 c 256
 362 104 376 100 392 100 c 256
 411 100 426 108 441 121 c 257
 442 126 445 136 445 147 c 256
 445 182 415 208 378 212 c 258
 335 217 l 258
 304 221 274 232 247 246 c 257
 265 257 285 264 308 269 c 257
 317 270 337 274 368 280 c 257
 420 281 444 309 446 342 c 256
 446 351 444 356 441 368 c 257
 421 383 408 390 388 390 c 256
 374 390 361 385 350 376 c 256
 344 371 336 361 325 347 c 258
 304 320 l 257
 261 271 l 258
NamedP: "hr00"
EndSplineSet
PickledDataWithLists: "(dp1
S'com.adobe.type.autohint'
p2
(S'data'
S'<data>\\n  <hintSetList>\\n    <hintset pointTag=\"hr00\">\\n      <hstem pos=\"20\" width=\"-21\"/>\\n      <hstem pos=\"100\" width=\"114\"/>\\n      <vstem pos=\"225\" width=\"17\"/>\\n    </hintset>\\n  </hintSetList>\\n  </data>'
Ntp3
s."
EndChar

StartChar: endash
Encoding: 101 8211 101
GlifName: endash
Width: 655
VWidth: 0
Flags: W
LayerCount: 2
Back
Fore
SplineSet
20 196 m 257
NamedP: "hr00"
 604 196 l 257
 604 268 l 257
 20 268 l 257
 20 196 l 257
NamedP: "hr00"
EndSplineSet
PickledDataWithLists: "(dp1
S'com.adobe.type.autohint'
p2
(S'data'
S'<data>\\n  <hintSetList>\\n    <hintset pointTag=\"hr00\">\\n      <hstem pos=\"196\" width=\"72\"/>\\n      <vstem pos=\"20\" width=\"584\"/>\\n    </hintset>\\n  </hintSetList>\\n  </data>'
Ntp3
s."
EndChar

StartChar: emdash
Encoding: 102 8212 102
GlifName: emdash
Width: 1427
VWidth: 0
Flags: W
LayerCount: 2
Back
Fore
SplineSet
3 196 m 257
NamedP: "hr00"
 1343 196 l 257
 1343 268 l 257
 3 268 l 257
 3 196 l 257
NamedP: "hr00"
EndSplineSet
PickledDataWithLists: "(dp1
S'com.adobe.type.autohint'
p2
(S'data'
S'<data>\\n  <hintSetList>\\n    <hintset pointTag=\"hr00\">\\n      <hstem pos=\"196\" width=\"72\"/>\\n      <vstem pos=\"3\" width=\"1340\"/>\\n    </hintset>\\n  </hintSetList>\\n  </data>'
Ntp3
s."
EndChar

StartChar: .notdef
Encoding: 111 -1 111
GlifName: _notdef
Width: 800
VWidth: 0
Flags: W
LayerCount: 2
Back
Fore
SplineSet
650 50 m 257
NamedP: "hr00"
 150 50 l 257
 150 650 l 257
 650 650 l 257
 650 50 l 257
NamedP: "hr00"
100 700 m 257
 100 0 l 257
 700 0 l 257
 700 700 l 257
 100 700 l 257
EndSplineSet
PickledDataWithLists: "(dp1
S'com.adobe.type.autohint'
p2
(S'data'
S'<data>\\n  <hintSetList>\\n    <hintset pointTag=\"hr00\">\\n      <hstem pos=\"0\" width=\"50\"/>\\n      <hstem pos=\"650\" width=\"50\"/>\\n      <vstem pos=\"100\" width=\"50\"/>\\n      <vstem pos=\"650\" width=\"50\"/>\\n    </hintset>\\n  </hintSetList>\\n  </data>'
Ntp3
s."
EndChar

StartChar: uni0951
Encoding: 115 2385 115
GlifName: uni0951
Width: 0
VWidth: 0
Flags: W
LayerCount: 2
Back
Fore
SplineSet
-206 1358 m 257
NamedP: "hr00"
 -264 1358 l 257
 -264 935 l 257
 -206 935 l 257
 -206 1358 l 257
NamedP: "hr00"
EndSplineSet
PickledDataWithLists: "(dp1
S'com.adobe.type.autohint'
p2
(S'data'
S'<data>\\n  <hintSetList>\\n    <hintset pointTag=\"hr00\">\\n      <hstem pos=\"935\" width=\"423\"/>\\n      <vstem pos=\"-264\" width=\"58\"/>\\n    </hintset>\\n  </hintSetList>\\n  </data>'
Ntp3
s."
EndChar

StartChar: uni0952
Encoding: 116 2386 116
GlifName: uni0952
Width: 0
VWidth: 0
Flags: W
LayerCount: 2
Back
Fore
SplineSet
-59 -365 m 257
NamedP: "hr00"
 -651 -365 l 257
 -651 -416 l 257
 -59 -416 l 257
 -59 -365 l 257
NamedP: "hr00"
EndSplineSet
PickledDataWithLists: "(dp1
S'com.adobe.type.autohint'
p2
(S'data'
S'<data>\\n  <hintSetList>\\n    <hintset pointTag=\"hr00\">\\n      <hstem pos=\"-416\" width=\"51\"/>\\n      <vstem pos=\"-651\" width=\"592\"/>\\n    </hintset>\\n  </hintSetList>\\n  </data>'
Ntp3
s."
EndChar

StartChar: uni0964
Encoding: 117 2404 117
GlifName: uni0964
Width: 262
VWidth: 0
Flags: W
LayerCount: 2
Back
Fore
SplineSet
206 535 m 257
NamedP: "hr00"
 109 535 l 257
 109 -75 l 257
 206 -75 l 257
 206 535 l 257
NamedP: "hr00"
EndSplineSet
PickledDataWithLists: "(dp1
S'com.adobe.type.autohint'
p2
(S'data'
S'<data>\\n  <hintSetList>\\n    <hintset pointTag=\"hr00\">\\n      <hstem pos=\"-75\" width=\"610\"/>\\n      <vstem pos=\"109\" width=\"97\"/>\\n    </hintset>\\n  </hintSetList>\\n  </data>'
Ntp3
s."
EndChar

StartChar: uni0965
Encoding: 118 2405 118
GlifName: uni0965
Width: 499
VWidth: 0
Flags: W
LayerCount: 2
Back
Fore
SplineSet
443 -75 m 257
NamedP: "hr00"
 443 535 l 257
 345 535 l 257
 345 -75 l 257
 443 -75 l 257
NamedP: "hr00"
206 -75 m 257
 206 535 l 257
 109 535 l 257
 109 -75 l 257
 206 -75 l 257
EndSplineSet
PickledDataWithLists: "(dp1
S'com.adobe.type.autohint'
p2
(S'data'
S'<data>\\n  <hintSetList>\\n    <hintset pointTag=\"hr00\">\\n      <hstem pos=\"-75\" width=\"610\"/>\\n      <vstem pos=\"109\" width=\"97\"/>\\n      <vstem pos=\"345\" width=\"98\"/>\\n    </hintset>\\n  </hintSetList>\\n  </data>'
Ntp3
s."
EndChar

StartChar: uni0C01
Encoding: 119 3073 119
GlifName: uni0C01_
Width: 338
VWidth: 0
Flags: W
LayerCount: 2
Back
Fore
SplineSet
313 439 m 257
NamedP: "hr00"
 224 459 153 444 99 395 c 256
 45 346 18 292 18 233 c 256
 18 165 38 108 80 62 c 256
 121 17 179 -5 251 -6 c 256
 265 -6 282 -3 301 4 c 257
 301 38 l 257
 301 86 l 257
 222 58 119 94 122 227 c 256
 123 265 138 298 166 329 c 256
 196 361 244 372 313 359 c 257
 313 402 l 257
 313 439 l 257
NamedP: "hr00"
EndSplineSet
PickledDataWithLists: "(dp1
S'com.adobe.type.autohint'
p2
(S'data'
S'<data>\\n  <hintSetList>\\n    <hintset pointTag=\"hr00\">\\n      <hstem pos=\"-6\" width=\"83\"/>\\n      <hstem pos=\"364\" width=\"83\"/>\\n      <vstem pos=\"18\" width=\"104\"/>\\n    </hintset>\\n  </hintSetList>\\n  </data>'
Ntp3
s."
EndChar

StartChar: uni0C02
Encoding: 120 3074 120
GlifName: uni0C02_
Width: 523
VWidth: 0
Flags: W
LayerCount: 2
Back
Fore
SplineSet
402 218 m 256
NamedP: "hr00"
 402 189 387 160 356 131 c 256
 327 104 294 91 257 91 c 256
 176 91 122 144 122 229 c 256
 122 262 135 292 160 319 c 256
 186 346 219 359 260 359 c 256
 306 359 343 342 370 308 c 256
 391 282 402 252 402 218 c 256
NamedP: "hr00"
498 225 m 256
 498 296 474 354 424 396 c 256
 379 435 325 453 265 453 c 256
 216 453 166 440 118 410 c 256
 50 367 18 306 18 229 c 256
 18 147 44 85 96 44 c 256
 137 11 188 -6 249 -6 c 256
 309 -6 363 12 412 51 c 256
 469 96 498 155 498 225 c 256
EndSplineSet
PickledDataWithLists: "(dp1
S'com.adobe.type.autohint'
p2
(S'data'
S'<data>\\n  <hintSetList>\\n    <hintset pointTag=\"hr00\">\\n      <hstem pos=\"-6\" width=\"97\"/>\\n      <hstem pos=\"359\" width=\"94\"/>\\n      <vstem pos=\"18\" width=\"104\"/>\\n      <vstem pos=\"402\" width=\"96\"/>\\n    </hintset>\\n  </hintSetList>\\n  </data>'
Ntp3
s."
EndChar

StartChar: uni0C03
Encoding: 121 3075 121
GlifName: uni0C03_
Width: 264
VWidth: 0
Flags: W
LayerCount: 2
Back
Fore
SplineSet
170 99 m 256
NamedP: "hr00"
 170 71 155 57 124 57 c 256
 97 57 83 70 83 97 c 256
 83 124 98 137 129 137 c 256
 156 137 170 124 170 99 c 256
NamedP: "hr00"
175 354 m 256
 175 328 159 315 128 315 c 256
 101 315 87 328 87 354 c 256
 87 379 103 392 134 392 c 256
 161 392 175 379 175 354 c 256
235 100 m 256
 235 155 194 192 127 192 c 256
 67 192 18 151 18 94 c 256
 18 60 35 32 69 10 c 256
 82 2 100 -2 125 -2 c 256
 157 -2 181 6 202 30 c 257
 224 49 235 72 235 100 c 256
239 357 m 256
 239 383 229 404 210 419 c 257
 190 440 163 450 130 450 c 256
 101 450 75 440 54 420 c 256
 33 401 22 377 22 350 c 256
 22 315 39 287 72 268 c 256
 88 259 107 255 129 255 c 256
 160 255 186 264 206 284 c 256
 229 306 239 331 239 357 c 256
EndSplineSet
PickledDataWithLists: "(dp1
S'com.adobe.type.autohint'
p2
(S'data'
S'<data>\\n  <hintSetList>\\n    <hintset pointTag=\"hr00\">\\n      <hstem pos=\"-2\" width=\"59\"/>\\n      <hstem pos=\"137\" width=\"55\"/>\\n      <hstem pos=\"255\" width=\"60\"/>\\n      <hstem pos=\"392\" width=\"58\"/>\\n      <vstem pos=\"18\" width=\"65\"/>\\n      <vstem pos=\"22\" width=\"65\"/>\\n      <vstem pos=\"170\" width=\"65\"/>\\n      <vstem pos=\"175\" width=\"64\"/>\\n    </hintset>\\n  </hintSetList>\\n  </data>'
Ntp3
s."
EndChar

StartChar: uni0C05
Encoding: 122 3077 122
GlifName: uni0C05_
Width: 606
VWidth: 0
Flags: W
LayerCount: 2
Back
Fore
SplineSet
400 215 m 257
NamedP: "hr00"
 399 305 l 257
 387 305 l 258
 356 305 340 318 340 344 c 256
 340 375 359 391 397 391 c 256
 415 391 434 381 454 360 c 256
 477 334 488 303 488 268 c 256
 488 217 471 173 436 138 c 256
 401 103 354 85 294 85 c 256
 246 85 204 96 170 120 c 256
 142 140 126 177 120 227 c 256
 114 277 124 319 151 352 c 256
 178 385 203 398 225 391 c 257
 225 484 l 257
 171 484 127 466 90 429 c 256
 68 407 50 380 37 346 c 256
 24 313 18 285 18 263 c 256
 18 177 43 111 93 64 c 256
 144 17 210 -6 292 -6 c 256
 369 -6 435 18 488 67 c 256
 551 124 582 187 582 257 c 256
 582 317 564 369 529 412 c 256
 494 455 454 476 410 477 c 256
 301 479 247 418 244 337 c 257
 249 294 l 257
 135 294 l 257
 135 215 l 257
 400 215 l 257
NamedP: "hr00"
EndSplineSet
PickledDataWithLists: "(dp1
S'com.adobe.type.autohint'
p2
(S'data'
S'<data>\\n  <hintSetList>\\n    <hintset pointTag=\"hr00\">\\n      <hstem pos=\"-6\" width=\"91\"/>\\n      <hstem pos=\"215\" width=\"79\"/>\\n      <hstem pos=\"391\" width=\"86\"/>\\n      <vstem pos=\"18\" width=\"102\"/>\\n      <vstem pos=\"135\" width=\"90\"/>\\n      <vstem pos=\"244\" width=\"96\"/>\\n      <vstem pos=\"488\" width=\"94\"/>\\n    </hintset>\\n  </hintSetList>\\n  </data>'
Ntp3
s."
EndChar

StartChar: uni0C06
Encoding: 123 3078 123
GlifName: uni0C06_
Width: 581
VWidth: 0
Flags: W
LayerCount: 2
Back
Fore
SplineSet
451 357 m 256
NamedP: "hr00"
 451 334 437 322 409 322 c 257
 380 325 365 336 365 354 c 256
 365 379 379 391 408 391 c 256
 437 391 451 380 451 357 c 256
NamedP: "hr00"
556 192 m 256
 556 223 544 251 521 276 c 257
 538 290 547 318 547 361 c 256
 547 392 537 420 515 442 c 256
 489 468 453 479 410 479 c 256
 369 479 335 467 307 442 c 256
 279 418 265 391 265 361 c 257
 262 338 270 317 287 297 c 257
 167 297 l 257
 167 220 l 257
 398 220 l 258
 418 220 435 225 450 233 c 257
 457 220 461 204 461 187 c 256
 461 170 445 149 414 123 c 256
 379 92 338 76 293 76 c 256
 233 76 187 96 155 137 c 256
 134 165 122 200 120 243 c 257
 122 284 133 318 154 345 c 256
 175 372 197 386 218 386 c 257
 235 382 l 257
 235 473 l 257
 174 473 121 446 77 389 c 256
 37 338 18 286 18 236 c 256
 18 149 54 83 127 38 c 256
 174 9 229 -6 292 -6 c 256
 348 -6 397 7 440 33 c 256
 517 78 556 131 556 192 c 256
EndSplineSet
PickledDataWithLists: "(dp1
S'com.adobe.type.autohint'
p2
(S'data'
S'<data>\\n  <hintSetList>\\n    <hintset pointTag=\"hr00\">\\n      <hstem pos=\"-6\" width=\"82\"/>\\n      <hstem pos=\"220\" width=\"77\"/>\\n      <hstem pos=\"386\" width=\"87\"/>\\n      <hstem pos=\"391\" width=\"88\"/>\\n      <vstem pos=\"18\" width=\"102\"/>\\n      <vstem pos=\"167\" width=\"68\"/>\\n      <vstem pos=\"265\" width=\"100\"/>\\n      <vstem pos=\"451\" width=\"96\"/>\\n      <vstem pos=\"461\" width=\"95\"/>\\n    </hintset>\\n  </hintSetList>\\n  </data>'
Ntp3
s."
EndChar

StartChar: uni0C07
Encoding: 124 3079 124
GlifName: uni0C07_
Width: 610
VWidth: 0
Flags: W
LayerCount: 2
Back
Fore
SplineSet
357 128 m 257
NamedP: "hr00"
 345 117 325 109 298 100 c 256
 265 88 250 85 234 85 c 256
 211 85 187 90 163 100 c 256
 139 111 126 123 127 137 c 256
 127 150 139 162 159 171 c 256
 179 180 200 185 223 185 c 256
 247 185 274 179 304 167 c 257
 329 154 347 141 357 128 c 257
NamedP: "hr00"
586 -43 m 257
 566 29 531 90 481 141 c 257
 514 190 531 240 531 291 c 256
 531 346 517 394 489 433 c 256
 461 473 423 493 376 493 c 256
 330 493 297 478 277 447 c 257
 256 463 240 472 223 477 c 257
 202 480 181 480 159 480 c 256
 108 479 69 458 44 413 c 256
 27 384 18 355 18 327 c 258
 18 295 l 257
 143 300 l 257
 133 313 128 326 128 337 c 256
 128 372 142 390 169 390 c 256
 186 390 199 382 212 368 c 256
 227 350 235 330 233 303 c 257
 341 303 l 257
 333 320 329 338 329 357 c 256
 329 386 345 401 376 401 c 256
 394 401 410 392 423 375 c 257
 435 354 441 333 441 310 c 256
 441 268 432 230 415 197 c 257
 346 250 287 276 236 276 c 256
 191 276 146 265 101 241 c 256
 52 215 29 181 29 143 c 256
 29 90 51 51 94 25 c 256
 128 4 171 -6 222 -6 c 256
 285 -6 351 18 419 67 c 257
 442 24 458 -13 467 -43 c 257
 586 -43 l 257
EndSplineSet
PickledDataWithLists: "(dp1
S'com.adobe.type.autohint'
p2
(S'data'
S'<data>\\n  <hintSetList>\\n    <hintset pointTag=\"hr00\">\\n      <hstem pos=\"-6\" width=\"91\"/>\\n      <hstem pos=\"185\" width=\"91\"/>\\n      <hstem pos=\"390\" width=\"90\"/>\\n      <hstem pos=\"401\" width=\"92\"/>\\n      <vstem pos=\"18\" width=\"110\"/>\\n      <vstem pos=\"29\" width=\"98\"/>\\n      <vstem pos=\"233\" width=\"96\"/>\\n      <vstem pos=\"441\" width=\"90\"/>\\n    </hintset>\\n  </hintSetList>\\n  </data>'
Ntp3
s."
EndChar

StartChar: uni0C08
Encoding: 125 3080 125
GlifName: uni0C08_
Width: 929
VWidth: 0
Flags: W
LayerCount: 2
Back
Fore
SplineSet
466 189 m 257
NamedP: "hr00"
 433 126 382 94 314 94 c 256
 279 94 246 106 216 129 c 256
 186 152 173 172 176 189 c 257
 466 189 l 257
NamedP: "hr00"
182 276 m 257
 209 341 255 373 320 373 c 256
 401 373 452 341 474 276 c 257
 182 276 l 257
809 148 m 257
 805 124 784 101 761 101 c 256
 727 101 710 118 710 153 c 256
 710 164 715 175 724 186 c 256
 735 199 747 205 761 205 c 256
 789 205 809 175 809 148 c 257
904 146 m 256
 904 201 883 244 842 275 c 257
 859 307 l 258
 867 322 872 341 872 364 c 256
 872 399 860 430 837 458 c 256
 809 493 775 510 734 510 c 256
 687 510 652 495 627 465 c 256
 609 444 598 421 600 398 c 258
 602 373 l 257
 603 357 l 257
 692 357 l 257
 682 381 l 257
 682 404 697 416 726 416 c 256
 757 416 773 404 773 379 c 256
 773 332 752 300 709 284 c 257
 566 284 l 257
 535 389 482 447 408 458 c 257
 429 491 460 509 503 508 c 256
 520 508 531 503 536 497 c 257
 536 600 l 257
 529 605 520 608 509 608 c 256
 499 608 485 605 468 599 c 256
 451 594 441 591 440 590 c 256
 411 577 391 565 378 554 c 257
 320 492 l 258
 299 469 278 457 257 458 c 256
 244 458 231 463 217 470 c 257
 201 480 193 492 193 505 c 256
 193 517 196 527 203 534 c 257
 82 534 l 257
 82 493 92 462 111 439 c 257
 148 405 l 257
 125 392 107 371 92 340 c 256
 78 310 71 289 71 278 c 257
 18 278 l 257
 18 188 l 257
 62 188 l 257
 75 132 97 86 132 53 c 256
 175 11 232 -9 301 -9 c 256
 370 -9 430 13 481 56 c 256
 527 95 554 140 563 192 c 257
 630 192 l 257
 625 176 623 161 623 148 c 256
 623 109 634 75 658 49 c 256
 684 20 716 7 750 7 c 256
 786 7 821 21 854 48 c 256
 887 75 904 108 904 146 c 256
EndSplineSet
PickledDataWithLists: "(dp1
S'com.adobe.type.autohint'
p2
(S'data'
S'<data>\\n  <hintSetList>\\n    <hintset pointTag=\"hr00\">\\n      <hstem pos=\"-9\" width=\"103\"/>\\n      <hstem pos=\"7\" width=\"94\"/>\\n      <hstem pos=\"189\" width=\"87\"/>\\n      <hstem pos=\"192\" width=\"92\"/>\\n      <hstem pos=\"373\" width=\"161\"/>\\n      <hstem pos=\"416\" width=\"94\"/>\\n      <hstem pos=\"508\" width=\"100\"/>\\n      <vstem pos=\"18\" width=\"158\"/>\\n      <vstem pos=\"82\" width=\"111\"/>\\n      <vstem pos=\"600\" width=\"82\"/>\\n      <vstem pos=\"623\" width=\"87\"/>\\n      <vstem pos=\"773\" width=\"99\"/>\\n      <vstem pos=\"809\" width=\"95\"/>\\n    </hintset>\\n  </hintSetList>\\n  </data>'
Ntp3
s."
EndChar

StartChar: uni0C09
Encoding: 126 3081 126
GlifName: uni0C09_
Width: 657
VWidth: 0
Flags: W
LayerCount: 2
Back
Fore
SplineSet
632 159 m 256
NamedP: "hr00"
 632 188 619 218 602 246 c 257
 577 278 550 292 519 294 c 258
 492 296 l 258
 476 297 466 295 461 294 c 257
 461 209 l 257
 519 206 538 180 537 152 c 256
 536 113 512 84 479 84 c 256
 437 84 416 100 416 131 c 256
 416 156 418 171 423 174 c 257
 307 174 l 257
 307 147 303 128 299 116 c 257
 289 97 270 88 243 88 c 256
 220 88 203 99 190 121 c 256
 178 143 172 164 172 184 c 257
 178 211 l 257
 386 211 l 257
 386 297 l 257
 196 297 l 257
 225 354 280 382 361 382 c 256
 424 382 466 364 488 329 c 257
 583 329 l 257
 579 357 563 384 534 410 c 256
 494 445 442 463 378 463 c 257
 378 607 l 257
 284 607 l 257
 284 458 l 257
 233 449 188 425 150 384 c 256
 137 371 122 346 91 297 c 257
 18 297 l 257
 18 211 l 257
 75 211 l 257
 75 184 l 258
 75 137 91 93 123 52 c 256
 156 11 195 -9 240 -9 c 256
 279 -9 306 -2 321 11 c 257
 351 48 l 257
 369 11 404 -7 457 -7 c 256
 508 -7 550 11 583 47 c 256
 616 83 632 120 632 159 c 256
NamedP: "hr00"
EndSplineSet
PickledDataWithLists: "(dp1
S'com.adobe.type.autohint'
p2
(S'data'
S'<data>\\n  <hintSetList>\\n    <hintset pointTag=\"hr00\">\\n      <hstem pos=\"-9\" width=\"97\"/>\\n      <hstem pos=\"-7\" width=\"91\"/>\\n      <hstem pos=\"209\" width=\"85\"/>\\n      <hstem pos=\"211\" width=\"86\"/>\\n      <hstem pos=\"382\" width=\"81\"/>\\n      <vstem pos=\"75\" width=\"97\"/>\\n      <vstem pos=\"284\" width=\"94\"/>\\n      <vstem pos=\"307\" width=\"79\"/>\\n      <vstem pos=\"461\" width=\"122\"/>\\n      <vstem pos=\"537\" width=\"95\"/>\\n    </hintset>\\n  </hintSetList>\\n  </data>'
Ntp3
s."
EndChar

StartChar: uni0C0A
Encoding: 127 3082 127
GlifName: uni0C0A_
Width: 956
VWidth: 0
Flags: W
LayerCount: 2
Back
Fore
SplineSet
845 175 m 256
NamedP: "hr00"
 845 142 829 125 796 126 c 256
 773 126 750 149 750 181 c 256
 750 212 767 227 801 227 c 257
 830 222 845 205 845 175 c 256
NamedP: "hr00"
931 181 m 256
 931 224 926 245 919 257 c 256
 912 269 898 284 877 301 c 257
 898 332 l 258
 905 343 909 359 909 378 c 256
 909 410 902 440 884 465 c 256
 862 497 830 512 789 512 c 256
 744 512 708 498 683 471 c 256
 664 450 655 425 655 396 c 257
 657 375 l 257
 742 375 l 257
 740 385 l 257
 740 413 763 437 787 437 c 256
 810 437 835 408 835 385 c 256
 835 368 825 351 806 334 c 256
 787 317 761 308 726 308 c 258
 219 308 l 257
 234 361 294 401 375 401 c 256
 422 401 457 385 479 354 c 257
 571 354 l 257
 562 414 517 455 437 476 c 257
 437 605 l 257
 349 605 l 257
 349 480 l 257
 326 479 l 257
 307 477 l 257
 307 606 l 257
 219 606 l 257
 219 449 l 257
 178 426 149 398 129 364 c 256
 116 341 108 322 108 308 c 257
 18 308 l 257
 18 222 l 257
 90 222 l 257
 87 216 86 200 86 175 c 256
 86 132 96 92 118 58 c 256
 146 14 189 -7 245 -7 c 256
 302 -7 339 13 356 53 c 257
 373 15 406 -4 457 -4 c 256
 554 -4 620 51 620 143 c 256
 620 166 619 173 614 194 c 257
 516 194 l 257
 519 187 521 178 521 168 c 256
 521 145 516 128 507 117 c 256
 491 98 474 89 457 89 c 256
 430 89 403 115 403 148 c 258
 403 181 l 257
 315 181 l 257
 318 164 l 257
 318 129 293 96 257 96 c 256
 221 96 195 135 194 168 c 258
 193 222 l 257
 682 222 l 257
 669 215 663 202 663 184 c 257
 658 145 666 111 688 83 c 256
 710 56 740 42 778 42 c 256
 803 42 827 48 848 59 c 256
 861 66 873 74 884 85 c 256
 915 113 931 145 931 181 c 256
EndSplineSet
PickledDataWithLists: "(dp1
S'com.adobe.type.autohint'
p2
(S'data'
S'<data>\\n  <hintSetList>\\n    <hintset pointTag=\"hr00\">\\n      <hstem pos=\"-7\" width=\"103\"/>\\n      <hstem pos=\"-4\" width=\"93\"/>\\n      <hstem pos=\"42\" width=\"84\"/>\\n      <hstem pos=\"222\" width=\"86\"/>\\n      <hstem pos=\"401\" width=\"78\"/>\\n      <hstem pos=\"437\" width=\"75\"/>\\n      <vstem pos=\"86\" width=\"108\"/>\\n      <vstem pos=\"219\" width=\"88\"/>\\n      <vstem pos=\"318\" width=\"85\"/>\\n      <vstem pos=\"349\" width=\"88\"/>\\n      <vstem pos=\"521\" width=\"99\"/>\\n      <vstem pos=\"655\" width=\"85\"/>\\n      <vstem pos=\"663\" width=\"87\"/>\\n      <vstem pos=\"835\" width=\"74\"/>\\n      <vstem pos=\"845\" width=\"86\"/>\\n    </hintset>\\n  </hintSetList>\\n  </data>'
Ntp3
s."
EndChar

StartChar: uni0C0B
Encoding: 128 3083 128
GlifName: uni0C0B_
Width: 1151
VWidth: 0
Flags: W
LayerCount: 2
Back
Fore
SplineSet
520 47 m 257
NamedP: "hr00"
 549 11 592 -7 651 -7 c 256
 703 -7 749 13 788 53 c 257
 792 47 l 256
 822 11 866 -7 924 -7 c 256
 979 -7 1026 15 1066 59 c 256
 1106 104 1126 156 1126 216 c 256
 1126 283 1107 338 1071 382 c 256
 1034 427 991 452 938 449 c 258
 896 447 l 257
 896 358 l 257
 935 359 l 258
 968 360 993 343 1012 310 c 257
 1029 286 1037 258 1037 227 c 256
 1037 195 1028 164 1010 135 c 256
 992 106 970 91 943 91 c 256
 910 91 884 108 871 144 c 258
 851 201 l 257
 851 216 l 258
 851 283 833 338 798 382 c 256
 763 427 719 452 666 449 c 258
 624 447 l 257
 624 358 l 257
 660 359 l 258
 693 360 720 343 740 310 c 256
 755 285 763 258 763 227 c 256
 763 194 754 164 737 137 c 256
 718 106 696 91 669 91 c 256
 636 91 609 108 597 144 c 258
 578 201 l 257
 578 216 l 258
 578 284 560 339 524 382 c 256
 489 425 445 451 392 447 c 258
 351 444 l 257
 351 345 l 257
 364 351 376 354 387 354 c 256
 418 354 444 339 465 308 c 256
 482 283 491 256 491 227 c 256
 491 194 482 163 464 134 c 256
 446 105 424 90 399 90 c 257
 385 92 372 97 359 105 c 256
 342 116 333 130 333 148 c 258
 333 171 l 257
 234 171 l 257
 235 164 236 158 236 154 c 256
 236 143 236 136 235 131 c 256
 228 103 209 89 178 89 c 256
 142 89 120 112 120 137 c 256
 120 162 135 182 165 195 c 258
 249 232 l 257
 279 253 294 283 294 322 c 256
 294 398 243 447 167 447 c 256
 68 447 18 398 18 300 c 257
 102 300 l 257
 102 339 122 359 161 359 c 256
 190 359 204 346 204 320 c 256
 204 303 197 291 182 284 c 257
 134 270 l 258
 57 248 20 199 20 131 c 256
 20 92 32 60 57 36 c 257
 81 8 116 -6 161 -6 c 256
 209 -6 250 10 284 42 c 257
 304 21 315 10 318 9 c 256
 332 0 348 -4 365 -4 c 256
 425 -4 475 16 514 56 c 257
 520 47 l 257
NamedP: "hr00"
EndSplineSet
PickledDataWithLists: "(dp1
S'com.adobe.type.autohint'
p2
(S'data'
S'<data>\\n  <hintSetList>\\n    <hintset pointTag=\"hr00\">\\n      <hstem pos=\"-7\" width=\"98\"/>\\n      <hstem pos=\"-4\" width=\"175\"/>\\n      <hstem pos=\"354\" width=\"93\"/>\\n      <hstem pos=\"359\" width=\"90\"/>\\n      <vstem pos=\"18\" width=\"84\"/>\\n      <vstem pos=\"20\" width=\"100\"/>\\n      <vstem pos=\"204\" width=\"90\"/>\\n      <vstem pos=\"236\" width=\"97\"/>\\n      <vstem pos=\"491\" width=\"87\"/>\\n      <vstem pos=\"763\" width=\"88\"/>\\n      <vstem pos=\"1037\" width=\"89\"/>\\n    </hintset>\\n  </hintSetList>\\n  </data>'
Ntp3
s."
EndChar

StartChar: uni0C0C
Encoding: 129 3084 129
GlifName: uni0C0C_
Width: 698
VWidth: 0
Flags: W
LayerCount: 2
Back
Fore
SplineSet
569 268 m 257
NamedP: "hr00"
 569 212 l 258
 569 187 561 163 546 138 c 256
 525 103 493 85 449 85 c 256
 409 85 383 99 371 128 c 256
 365 141 362 162 362 189 c 256
 362 218 393 247 441 259 c 256
 513 276 549 324 549 406 c 256
 549 449 533 485 500 512 c 256
 471 536 438 548 400 548 c 256
 370 548 343 541 320 528 c 256
 301 517 292 504 291 491 c 257
 275 528 237 547 176 547 c 256
 140 547 105 531 70 498 c 256
 35 466 18 428 18 385 c 256
 18 340 32 303 60 274 c 256
 79 253 122 243 189 243 c 257
 189 341 l 257
 182 338 170 336 155 336 c 256
 126 336 111 353 111 387 c 256
 111 404 117 421 128 437 c 257
 141 448 155 454 170 454 c 257
 199 451 224 426 225 410 c 258
 227 359 l 257
 320 359 l 257
 320 392 l 258
 320 409 330 422 345 437 c 257
 362 449 379 455 396 455 c 256
 431 455 449 436 449 398 c 256
 449 363 427 341 384 329 c 256
 306 307 267 262 267 195 c 256
 267 136 277 92 294 63 c 256
 322 16 374 -7 451 -7 c 256
 526 -7 584 19 623 75 c 256
 657 125 673 190 673 268 c 257
 569 268 l 257
NamedP: "hr00"
EndSplineSet
PickledDataWithLists: "(dp1
S'com.adobe.type.autohint'
p2
(S'data'
S'<data>\\n  <hintSetList>\\n    <hintset pointTag=\"hr00\">\\n      <hstem pos=\"-7\" width=\"92\"/>\\n      <hstem pos=\"243\" width=\"93\"/>\\n      <hstem pos=\"359\" width=\"188\"/>\\n      <hstem pos=\"455\" width=\"93\"/>\\n      <vstem pos=\"18\" width=\"93\"/>\\n      <vstem pos=\"225\" width=\"95\"/>\\n      <vstem pos=\"267\" width=\"95\"/>\\n      <vstem pos=\"449\" width=\"100\"/>\\n      <vstem pos=\"569\" width=\"104\"/>\\n    </hintset>\\n  </hintSetList>\\n  </data>'
Ntp3
s."
EndChar

StartChar: uni0C0E
Encoding: 130 3086 130
GlifName: uni0C0E_
Width: 598
VWidth: 0
Flags: W
LayerCount: 2
Back
Fore
SplineSet
231 141 m 256
NamedP: "hr00"
 231 102 211 83 172 83 c 256
 136 83 118 101 118 137 c 256
 118 178 136 199 172 199 c 256
 190 199 204 193 213 180 c 257
 225 169 231 156 231 141 c 256
NamedP: "hr00"
573 218 m 256
 573 277 556 330 520 375 c 256
 479 426 425 450 361 450 c 256
 346 450 328 447 305 442 c 257
 305 343 l 257
 325 343 333 348 356 348 c 256
 435 348 474 303 474 213 c 256
 474 190 464 164 444 135 c 256
 425 106 406 91 387 91 c 256
 360 91 342 104 333 131 c 257
 333 174 320 210 294 241 c 256
 269 272 236 287 197 287 c 256
 142 287 97 271 62 236 c 256
 32 206 18 173 18 137 c 256
 18 98 30 65 53 38 c 256
 78 7 112 -9 157 -9 c 256
 212 -9 251 6 276 36 c 257
 299 9 332 -4 375 -4 c 256
 425 -4 470 19 511 65 c 256
 552 111 573 162 573 218 c 256
EndSplineSet
PickledDataWithLists: "(dp1
S'com.adobe.type.autohint'
p2
(S'data'
S'<data>\\n  <hintSetList>\\n    <hintset pointTag=\"hr00\">\\n      <hstem pos=\"-9\" width=\"92\"/>\\n      <hstem pos=\"-4\" width=\"95\"/>\\n      <hstem pos=\"199\" width=\"88\"/>\\n      <hstem pos=\"348\" width=\"102\"/>\\n      <vstem pos=\"18\" width=\"100\"/>\\n      <vstem pos=\"231\" width=\"102\"/>\\n      <vstem pos=\"474\" width=\"99\"/>\\n    </hintset>\\n  </hintSetList>\\n  </data>'
Ntp3
s."
EndChar

StartChar: uni0C0F
Encoding: 131 3087 131
GlifName: uni0C0F_
Width: 603
VWidth: 0
Flags: W
LayerCount: 2
Back
Fore
SplineSet
236 141 m 256
NamedP: "hr00"
 236 103 217 84 178 84 c 256
 142 84 124 102 124 137 c 256
 124 178 143 199 180 199 c 256
 197 199 210 193 219 180 c 257
 230 169 236 156 236 141 c 256
NamedP: "hr00"
578 218 m 256
 578 277 561 330 525 375 c 256
 485 425 431 450 367 450 c 256
 350 450 330 447 308 442 c 257
 308 343 l 257
 339 347 l 258
 348 348 353 349 356 349 c 256
 359 349 365 349 372 348 c 256
 443 338 479 294 479 216 c 256
 479 189 468 161 450 133 c 256
 432 105 414 91 393 91 c 256
 371 91 353 104 340 131 c 257
 340 174 327 210 300 241 c 256
 274 272 242 287 203 287 c 256
 148 287 103 270 70 236 c 256
 40 206 25 173 25 137 c 256
 25 96 35 63 57 37 c 256
 83 6 120 -9 165 -9 c 256
 232 -9 272 8 286 42 c 257
 308 11 340 -4 381 -4 c 256
 430 -4 475 20 516 67 c 256
 557 114 578 165 578 218 c 256
414 565 m 257
 385 592 341 606 284 606 c 256
 232 606 189 593 140 565 c 256
 59 518 18 462 18 395 c 256
 18 374 23 349 34 320 c 257
 152 320 l 257
 134 338 125 360 125 387 c 256
 125 418 136 445 159 470 c 257
 191 499 232 514 283 514 c 256
 308 514 334 505 361 487 c 257
 414 565 l 257
EndSplineSet
PickledDataWithLists: "(dp1
S'com.adobe.type.autohint'
p2
(S'data'
S'<data>\\n  <hintSetList>\\n    <hintset pointTag=\"hr00\">\\n      <hstem pos=\"-9\" width=\"93\"/>\\n      <hstem pos=\"-4\" width=\"95\"/>\\n      <hstem pos=\"199\" width=\"88\"/>\\n      <hstem pos=\"349\" width=\"101\"/>\\n      <hstem pos=\"514\" width=\"92\"/>\\n      <vstem pos=\"18\" width=\"107\"/>\\n      <vstem pos=\"25\" width=\"99\"/>\\n      <vstem pos=\"236\" width=\"104\"/>\\n      <vstem pos=\"479\" width=\"99\"/>\\n    </hintset>\\n  </hintSetList>\\n  </data>'
Ntp3
s."
EndChar

StartChar: uni0C10
Encoding: 132 3088 132
GlifName: uni0C10_
Width: 581
VWidth: 0
Flags: W
LayerCount: 2
Back
Fore
SplineSet
223 148 m 256
NamedP: "hr00"
 223 117 194 88 161 88 c 256
 129 88 113 106 113 141 c 256
 113 177 138 200 161 200 c 257
 193 196 223 175 223 148 c 256
NamedP: "hr00"
556 252 m 256
 556 302 543 350 518 396 c 256
 480 463 428 496 361 496 c 256
 341 496 325 491 312 481 c 258
 284 460 l 257
 245 485 207 498 172 498 c 256
 118 498 79 475 53 433 c 256
 30 396 27 381 28 350 c 258
 29 327 l 257
 132 327 l 257
 120 363 l 257
 120 385 137 396 170 396 c 256
 205 396 227 368 227 329 c 257
 320 334 l 257
 326 374 l 257
 331 386 342 392 359 392 c 256
 388 392 411 375 430 341 c 256
 446 311 454 278 454 241 c 256
 454 214 446 185 430 155 c 256
 412 122 392 105 370 105 c 256
 353 105 338 121 328 153 c 256
 297 248 251 296 188 296 c 256
 125 296 79 277 50 239 c 256
 29 213 18 182 18 146 c 256
 18 107 28 73 49 44 c 256
 75 9 109 -9 152 -9 c 256
 178 -9 201 -4 222 6 c 257
 260 33 l 257
 289 8 321 -4 356 -4 c 256
 399 -4 443 22 488 74 c 256
 533 127 556 186 556 252 c 256
EndSplineSet
PickledDataWithLists: "(dp1
S'com.adobe.type.autohint'
p2
(S'data'
S'<data>\\n  <hintSetList>\\n    <hintset pointTag=\"hr00\">\\n      <hstem pos=\"-9\" width=\"97\"/>\\n      <hstem pos=\"-4\" width=\"109\"/>\\n      <hstem pos=\"200\" width=\"96\"/>\\n      <hstem pos=\"392\" width=\"104\"/>\\n      <hstem pos=\"396\" width=\"102\"/>\\n      <vstem pos=\"18\" width=\"95\"/>\\n      <vstem pos=\"28\" width=\"92\"/>\\n      <vstem pos=\"227\" width=\"96\"/>\\n      <vstem pos=\"454\" width=\"102\"/>\\n    </hintset>\\n  </hintSetList>\\n  </data>'
Ntp3
s."
EndChar

StartChar: uni0C12
Encoding: 133 3090 133
GlifName: uni0C12_
Width: 576
VWidth: 0
Flags: W
LayerCount: 2
Back
Fore
SplineSet
551 154 m 256
NamedP: "hr00"
 551 199 537 236 509 265 c 256
 490 284 448 294 381 294 c 257
 381 199 l 257
 388 201 399 202 414 202 c 256
 445 202 461 185 461 152 c 256
 461 134 454 117 441 102 c 257
 429 91 415 85 400 85 c 257
 371 89 345 112 345 128 c 258
 344 179 l 257
 249 179 l 257
 249 146 l 257
 246 126 233 109 225 102 c 257
 207 90 191 84 176 84 c 256
 140 84 122 103 122 141 c 256
 122 175 143 198 185 210 c 256
 262 231 301 276 301 343 c 256
 301 391 284 427 249 450 c 256
 224 466 197 474 167 474 c 256
 110 474 69 453 43 410 c 256
 27 383 18 353 18 322 c 257
 127 322 l 257
 124 336 l 257
 124 355 146 384 170 384 c 257
 180 382 188 377 194 368 c 256
 202 355 206 344 206 334 c 256
 206 309 180 292 128 280 c 256
 56 264 20 214 20 131 c 256
 20 87 37 52 70 26 c 256
 99 3 132 -9 170 -9 c 256
 200 -9 226 -3 249 9 c 257
 268 22 278 35 280 48 c 257
 295 11 333 -7 396 -7 c 256
 431 -7 465 8 497 38 c 256
 533 72 551 111 551 154 c 256
NamedP: "hr00"
EndSplineSet
PickledDataWithLists: "(dp1
S'com.adobe.type.autohint'
p2
(S'data'
S'<data>\\n  <hintSetList>\\n    <hintset pointTag=\"hr00\">\\n      <hstem pos=\"-9\" width=\"93\"/>\\n      <hstem pos=\"-7\" width=\"186\"/>\\n      <hstem pos=\"202\" width=\"92\"/>\\n      <hstem pos=\"322\" width=\"152\"/>\\n      <vstem pos=\"20\" width=\"102\"/>\\n      <vstem pos=\"206\" width=\"95\"/>\\n      <vstem pos=\"249\" width=\"96\"/>\\n      <vstem pos=\"461\" width=\"90\"/>\\n    </hintset>\\n  </hintSetList>\\n  </data>'
Ntp3
s."
EndChar

StartChar: uni0C13
Encoding: 134 3091 134
GlifName: uni0C13_
Width: 576
VWidth: 0
Flags: W
LayerCount: 2
Back
Fore
SplineSet
551 154 m 256
NamedP: "hr00"
 551 199 537 236 509 265 c 256
 490 284 448 294 381 294 c 257
 381 199 l 257
 388 201 399 202 414 202 c 256
 445 202 461 185 461 152 c 256
 461 134 454 117 441 102 c 257
 429 91 415 85 400 85 c 257
 371 89 345 112 345 128 c 258
 344 179 l 257
 249 179 l 257
 249 146 l 257
 246 126 233 109 225 102 c 257
 207 90 191 84 176 84 c 256
 140 84 122 103 122 141 c 256
 122 175 143 198 185 210 c 256
 262 231 301 276 301 343 c 256
 301 390 284 424 251 447 c 256
 239 456 216 465 182 474 c 257
 179 479 178 488 178 500 c 256
 178 531 197 547 236 547 c 256
 274 547 293 517 293 458 c 257
 400 458 l 257
 400 496 l 258
 400 529 387 559 362 586 c 256
 330 619 289 635 239 635 c 256
 190 635 151 624 122 603 c 257
 94 578 80 547 80 508 c 256
 80 487 84 470 93 458 c 257
 43 428 18 383 18 322 c 257
 127 322 l 257
 124 336 l 257
 124 355 146 384 170 384 c 257
 180 382 188 377 194 368 c 256
 202 355 206 344 206 334 c 256
 206 309 180 292 128 280 c 256
 56 264 20 214 20 131 c 256
 20 87 37 52 70 26 c 256
 99 3 132 -9 170 -9 c 256
 200 -9 226 -3 249 9 c 257
 268 22 278 35 280 48 c 257
 295 11 333 -7 396 -7 c 256
 431 -7 465 8 497 38 c 256
 533 72 551 111 551 154 c 256
NamedP: "hr00"
EndSplineSet
PickledDataWithLists: "(dp1
S'com.adobe.type.autohint'
p2
(S'data'
S'<data>\\n  <hintSetList>\\n    <hintset pointTag=\"hr00\">\\n      <hstem pos=\"-9\" width=\"93\"/>\\n      <hstem pos=\"-7\" width=\"186\"/>\\n      <hstem pos=\"202\" width=\"92\"/>\\n      <hstem pos=\"547\" width=\"88\"/>\\n      <vstem pos=\"20\" width=\"102\"/>\\n      <vstem pos=\"80\" width=\"98\"/>\\n      <vstem pos=\"206\" width=\"95\"/>\\n      <vstem pos=\"249\" width=\"96\"/>\\n      <vstem pos=\"293\" width=\"107\"/>\\n      <vstem pos=\"461\" width=\"90\"/>\\n    </hintset>\\n  </hintSetList>\\n  </data>'
Ntp3
s."
EndChar

StartChar: uni0C14
Encoding: 135 3092 135
GlifName: uni0C14_
Width: 655
VWidth: 0
Flags: W
LayerCount: 2
Back
Fore
SplineSet
525 423 m 256
NamedP: "hr00"
 525 399 517 387 502 387 c 256
 483 386 465 402 465 418 c 256
 465 428 467 437 471 444 c 257
 478 451 485 455 492 455 c 256
 514 455 525 444 525 423 c 256
NamedP: "hr00"
630 464 m 256
 630 549 588 606 504 633 c 257
 28 633 l 257
 28 551 l 257
 169 551 l 258
 195 551 208 538 208 512 c 256
 208 509 204 503 197 496 c 257
 187 490 177 487 166 487 c 258
 70 487 l 257
 66 482 64 475 64 466 c 256
 64 455 66 444 70 433 c 257
 35 414 18 375 18 315 c 257
 120 315 l 257
 117 348 l 257
 117 373 133 385 166 385 c 256
 193 385 206 369 206 337 c 256
 206 316 194 301 171 294 c 258
 103 274 l 258
 47 257 19 213 19 146 c 256
 19 104 33 68 60 37 c 256
 88 6 120 -9 156 -9 c 256
 211 -9 255 7 288 38 c 257
 316 9 352 -5 397 -5 c 256
 422 -5 453 11 491 44 c 256
 534 83 555 121 555 160 c 256
 555 212 537 253 498 280 c 256
 481 292 462 298 440 297 c 258
 415 296 l 257
 403 294 l 257
 403 189 l 257
 409 200 417 205 428 205 c 256
 440 205 462 180 465 157 c 257
 465 142 459 127 446 114 c 256
 432 99 418 91 403 91 c 256
 366 91 347 114 347 160 c 257
 352 188 l 257
 236 188 l 257
 240 167 l 257
 240 147 234 128 223 110 c 257
 210 93 196 85 182 85 c 256
 165 85 154 92 145 106 c 256
 135 121 130 134 130 146 c 256
 130 171 145 191 175 206 c 257
 230 227 l 257
 277 258 301 299 301 350 c 256
 301 375 295 396 282 415 c 256
 270 434 260 446 252 450 c 257
 271 470 281 489 281 506 c 256
 281 519 277 534 270 551 c 257
 481 551 l 258
 497 551 510 543 521 532 c 257
 514 533 505 534 494 534 c 256
 463 534 434 525 412 503 c 256
 387 479 376 451 376 423 c 256
 376 391 388 363 411 338 c 256
 434 313 460 301 487 301 c 256
 520 301 552 317 583 350 c 256
 614 383 630 421 630 464 c 256
EndSplineSet
PickledDataWithLists: "(dp1
S'com.adobe.type.autohint'
p2
(S'data'
S'<data>\\n  <hintSetList>\\n    <hintset pointTag=\"hr00\">\\n      <hstem pos=\"-9\" width=\"94\"/>\\n      <hstem pos=\"-5\" width=\"96\"/>\\n      <hstem pos=\"205\" width=\"92\"/>\\n      <hstem pos=\"301\" width=\"86\"/>\\n      <hstem pos=\"315\" width=\"172\"/>\\n      <hstem pos=\"455\" width=\"79\"/>\\n      <hstem pos=\"551\" width=\"82\"/>\\n      <vstem pos=\"18\" width=\"99\"/>\\n      <vstem pos=\"19\" width=\"111\"/>\\n      <vstem pos=\"206\" width=\"95\"/>\\n      <vstem pos=\"208\" width=\"73\"/>\\n      <vstem pos=\"240\" width=\"107\"/>\\n      <vstem pos=\"376\" width=\"89\"/>\\n      <vstem pos=\"403\" width=\"152\"/>\\n      <vstem pos=\"525\" width=\"105\"/>\\n    </hintset>\\n  </hintSetList>\\n  </data>'
Ntp3
s."
EndChar

StartChar: uni0C15
Encoding: 136 3093 136
GlifName: uni0C15_
Width: 494
VWidth: 0
Flags: W
LayerCount: 2
Back
Fore
SplineSet
330 473 m 258
NamedP: "hr00"
 350 495 374 505 399 505 c 256
 424 505 441 498 451 484 c 257
 451 580 l 257
 440 587 423 591 402 591 c 256
 353 591 307 567 264 518 c 258
 225 473 l 257
 211 460 198 453 185 453 c 256
 151 453 134 470 134 503 c 257
 135 514 l 257
 32 514 l 257
 32 501 l 258
 32 470 46 439 76 416 c 258
 93 403 l 257
 87 400 l 257
 52 369 35 339 35 310 c 256
 35 272 52 241 86 218 c 256
 117 196 150 185 186 185 c 257
 259 192 l 257
 314 201 l 257
 350 201 368 186 368 155 c 256
 368 123 323 84 246 84 c 256
 213 84 184 91 159 107 c 256
 135 122 123 140 123 158 c 257
 18 158 l 257
 18 120 35 87 67 56 c 256
 109 16 166 -6 240 -6 c 256
 299 -6 350 11 394 44 c 256
 439 77 464 124 470 183 c 257
 470 212 461 235 442 253 c 257
 421 278 390 291 351 291 c 256
 326 291 300 288 273 281 c 258
 230 270 l 257
 173 270 145 284 145 311 c 256
 145 353 177 374 240 374 c 256
 268 374 282 374 301 363 c 257
 322 354 337 341 344 324 c 257
 442 324 l 257
 442 394 397 436 308 449 c 257
 330 473 l 258
NamedP: "hr00"
EndSplineSet
PickledDataWithLists: "(dp1
S'com.adobe.type.autohint'
p2
(S'data'
S'<data>\\n  <hintSetList>\\n    <hintset pointTag=\"hr00\">\\n      <hstem pos=\"-6\" width=\"90\"/>\\n      <hstem pos=\"185\" width=\"85\"/>\\n      <hstem pos=\"201\" width=\"90\"/>\\n      <hstem pos=\"374\" width=\"79\"/>\\n      <hstem pos=\"505\" width=\"86\"/>\\n      <vstem pos=\"18\" width=\"105\"/>\\n      <vstem pos=\"32\" width=\"102\"/>\\n      <vstem pos=\"35\" width=\"110\"/>\\n      <vstem pos=\"368\" width=\"102\"/>\\n    </hintset>\\n  </hintSetList>\\n  </data>'
Ntp3
s."
EndChar

StartChar: uni0C16
Encoding: 137 3094 137
GlifName: uni0C16_
Width: 689
VWidth: 0
Flags: W
LayerCount: 2
Back
Fore
SplineSet
360 -6 m 257
NamedP: "hr00"
 259 -6 l 257
 259 -117 l 257
 360 -117 l 257
 360 -6 l 257
NamedP: "hr00"
244 111 m 257
 231 93 206 84 171 84 c 256
 140 84 124 93 124 110 c 256
 124 125 142 133 178 133 c 256
 204 133 226 126 244 111 c 257
189 345 m 256
 189 320 177 308 154 308 c 256
 130 308 118 320 118 345 c 256
 118 371 130 384 154 384 c 256
 177 384 189 371 189 345 c 256
664 227 m 256
 664 268 654 311 632 352 c 256
 612 388 588 411 563 423 c 257
 541 437 498 444 434 444 c 257
 434 345 l 257
 465 349 l 257
 498 349 525 335 542 308 c 256
 558 283 565 255 565 225 c 256
 565 186 553 151 525 123 c 256
 502 99 475 89 447 89 c 256
 418 89 383 106 379 131 c 257
 390 142 400 159 407 181 c 257
 413 208 416 230 416 247 c 256
 416 316 400 368 368 403 c 256
 325 450 271 473 207 473 c 256
 161 473 125 464 98 447 c 256
 48 416 23 382 23 345 c 256
 23 274 75 229 159 229 c 256
 172 229 189 234 212 243 c 257
 227 251 238 258 244 264 c 256
 265 285 278 309 284 337 c 257
 296 336 306 326 313 305 c 256
 321 284 325 268 325 255 c 256
 325 242 321 216 312 175 c 257
 277 202 230 215 171 215 c 256
 133 215 98 203 66 180 c 256
 34 157 18 130 18 97 c 256
 18 62 32 36 61 17 c 256
 86 1 119 -9 159 -9 c 256
 183 -9 210 -4 238 6 c 256
 272 18 297 34 313 51 c 257
 340 24 361 9 375 5 c 256
 390 1 413 -1 444 -1 c 256
 506 -1 558 21 600 65 c 256
 643 109 664 163 664 227 c 256
EndSplineSet
PickledDataWithLists: "(dp1
S'com.adobe.type.autohint'
p2
(S'data'
S'<data>\\n  <hintSetList>\\n    <hintset pointTag=\"hr00\">\\n      <hstem pos=\"-117\" width=\"111\"/>\\n      <hstem pos=\"-9\" width=\"93\"/>\\n      <hstem pos=\"-1\" width=\"90\"/>\\n      <hstem pos=\"133\" width=\"82\"/>\\n      <hstem pos=\"229\" width=\"79\"/>\\n      <hstem pos=\"349\" width=\"95\"/>\\n      <hstem pos=\"384\" width=\"89\"/>\\n      <vstem pos=\"18\" width=\"106\"/>\\n      <vstem pos=\"23\" width=\"95\"/>\\n      <vstem pos=\"259\" width=\"101\"/>\\n      <vstem pos=\"325\" width=\"91\"/>\\n      <vstem pos=\"565\" width=\"99\"/>\\n    </hintset>\\n  </hintSetList>\\n  </data>'
Ntp3
s."
EndChar

StartChar: uni0C17
Encoding: 138 3095 138
GlifName: uni0C17_
Width: 521
VWidth: 0
Flags: W
LayerCount: 2
Back
Fore
SplineSet
352 438 m 257
NamedP: "hr00"
 382 461 407 473 426 473 c 256
 452 473 471 467 483 455 c 257
 483 555 l 257
 468 562 449 566 428 566 c 256
 383 566 341 546 303 505 c 258
 265 464 l 258
 258 457 249 451 239 449 c 258
 215 444 l 257
 192 448 161 466 161 487 c 256
 161 493 162 497 165 498 c 257
 55 498 l 257
 54 480 l 258
 52 448 70 421 102 398 c 257
 111 395 l 257
 88 375 l 258
 37 331 18 271 18 207 c 256
 18 95 54 25 127 -2 c 257
 132 -2 l 257
 167 33 187 57 191 69 c 257
 188 73 l 257
 161 96 146 110 141 116 c 257
 129 135 125 152 125 192 c 256
 125 240 138 280 163 312 c 256
 189 344 224 360 267 360 c 256
 311 360 345 343 368 310 c 256
 388 283 398 250 398 212 c 256
 398 165 376 124 331 89 c 257
 331 84 l 257
 381 6 l 257
 384 4 l 257
 403 9 425 28 449 60 c 256
 481 104 497 154 497 210 c 256
 497 253 483 297 456 343 c 256
 429 389 395 421 352 438 c 257
NamedP: "hr00"
EndSplineSet
PickledDataWithLists: "(dp1
S'com.adobe.type.autohint'
p2
(S'data'
S'<data>\\n  <hintSetList>\\n    <hintset pointTag=\"hr00\">\\n      <hstem pos=\"360\" width=\"138\"/>\\n      <hstem pos=\"473\" width=\"93\"/>\\n      <vstem pos=\"18\" width=\"107\"/>\\n      <vstem pos=\"54\" width=\"107\"/>\\n      <vstem pos=\"398\" width=\"99\"/>\\n    </hintset>\\n  </hintSetList>\\n  </data>'
Ntp3
s."
EndChar

StartChar: uni0C18
Encoding: 139 3096 139
GlifName: uni0C18_
Width: 874
VWidth: 0
Flags: W
LayerCount: 2
Back
Fore
SplineSet
325 -6 m 257
NamedP: "hr00"
 224 -6 l 257
 224 -117 l 257
 325 -117 l 257
 325 -6 l 257
NamedP: "hr00"
420 607 m 257
 409 614 395 618 379 618 c 256
 336 618 302 604 276 575 c 257
 223 498 l 258
 203 469 180 455 157 455 c 256
 131 455 118 466 118 487 c 257
 19 487 l 257
 19 455 30 430 53 411 c 257
 74 390 102 379 136 379 c 256
 190 379 234 395 267 427 c 257
 326 496 l 258
 345 518 368 528 392 528 c 256
 404 528 413 526 420 523 c 257
 420 607 l 257
573 218 m 258
 573 278 555 332 516 378 c 256
 472 431 419 452 344 444 c 257
 344 348 l 257
 431 348 474 303 474 213 c 256
 474 182 466 154 449 129 c 256
 433 104 412 91 387 91 c 256
 360 91 342 104 333 131 c 257
 333 171 318 207 289 239 c 256
 260 271 225 287 185 287 c 256
 128 287 86 269 57 236 c 256
 32 208 18 176 18 137 c 256
 18 98 30 65 53 38 c 256
 78 7 112 -9 157 -9 c 256
 212 -9 251 6 276 36 c 257
 303 6 338 -9 379 -9 c 256
 433 -9 478 11 514 52 c 257
 518 47 l 258
 547 11 590 -7 647 -7 c 256
 703 -7 751 15 790 59 c 256
 830 104 850 156 850 216 c 256
 850 283 832 338 796 382 c 256
 760 427 716 449 663 449 c 258
 620 449 l 257
 620 358 l 257
 658 359 l 258
 692 360 718 343 737 310 c 257
 754 286 762 258 762 227 c 256
 762 195 753 164 735 135 c 256
 717 106 695 91 668 91 c 256
 635 91 610 109 595 144 c 257
 573 212 l 257
 573 218 l 258
231 141 m 256
 231 106 205 83 172 83 c 256
 136 83 118 101 118 137 c 256
 118 178 136 199 172 199 c 256
 190 199 204 193 213 180 c 257
 225 169 231 156 231 141 c 256
EndSplineSet
PickledDataWithLists: "(dp1
S'com.adobe.type.autohint'
p2
(S'data'
S'<data>\\n  <hintSetList>\\n    <hintset pointTag=\"hr00\">\\n      <hstem pos=\"-117\" width=\"111\"/>\\n      <hstem pos=\"-9\" width=\"92\"/>\\n      <hstem pos=\"-7\" width=\"98\"/>\\n      <hstem pos=\"199\" width=\"88\"/>\\n      <hstem pos=\"348\" width=\"96\"/>\\n      <hstem pos=\"359\" width=\"90\"/>\\n      <hstem pos=\"379\" width=\"108\"/>\\n      <hstem pos=\"528\" width=\"90\"/>\\n      <vstem pos=\"18\" width=\"100\"/>\\n      <vstem pos=\"224\" width=\"101\"/>\\n      <vstem pos=\"231\" width=\"102\"/>\\n      <vstem pos=\"344\" width=\"76\"/>\\n      <vstem pos=\"474\" width=\"99\"/>\\n      <vstem pos=\"762\" width=\"88\"/>\\n    </hintset>\\n  </hintSetList>\\n  </data>'
Ntp3
s."
EndChar

StartChar: uni0C19
Encoding: 140 3097 140
GlifName: uni0C19_
Width: 576
VWidth: 0
Flags: W
LayerCount: 2
Back
Fore
SplineSet
551 154 m 256
NamedP: "hr00"
 551 199 537 236 509 265 c 256
 490 284 448 294 381 294 c 257
 381 199 l 257
 388 201 399 202 414 202 c 256
 445 202 461 185 461 152 c 256
 461 134 454 117 441 102 c 257
 429 91 415 85 400 85 c 257
 371 89 345 112 345 128 c 258
 344 179 l 257
 249 179 l 257
 249 146 l 257
 246 126 233 109 225 102 c 257
 207 90 191 84 176 84 c 256
 140 84 122 103 122 141 c 256
 122 175 142 197 181 208 c 256
 220 219 250 235 269 254 c 256
 289 274 299 299 299 328 c 257
 503 328 l 257
 503 419 l 257
 436 419 l 257
 436 487 l 257
 344 487 l 257
 344 417 l 257
 280 417 l 257
 256 455 218 474 167 474 c 256
 110 474 69 453 43 410 c 256
 27 383 18 353 18 322 c 257
 127 322 l 257
 124 336 l 257
 124 355 146 384 170 384 c 257
 180 382 188 377 194 368 c 256
 202 355 206 344 206 334 c 256
 206 309 180 292 128 280 c 256
 56 264 20 214 20 131 c 256
 20 87 37 52 70 26 c 256
 99 3 132 -9 170 -9 c 256
 200 -9 226 -3 249 9 c 257
 268 22 278 35 280 48 c 257
 295 11 333 -7 396 -7 c 256
 431 -7 465 8 497 38 c 256
 533 72 551 111 551 154 c 256
NamedP: "hr00"
EndSplineSet
PickledDataWithLists: "(dp1
S'com.adobe.type.autohint'
p2
(S'data'
S'<data>\\n  <hintSetList>\\n    <hintset pointTag=\"hr00\">\\n      <hstem pos=\"-9\" width=\"93\"/>\\n      <hstem pos=\"-7\" width=\"186\"/>\\n      <hstem pos=\"202\" width=\"92\"/>\\n      <hstem pos=\"328\" width=\"91\"/>\\n      <hstem pos=\"384\" width=\"90\"/>\\n      <vstem pos=\"20\" width=\"102\"/>\\n      <vstem pos=\"206\" width=\"93\"/>\\n      <vstem pos=\"249\" width=\"96\"/>\\n      <vstem pos=\"344\" width=\"92\"/>\\n      <vstem pos=\"381\" width=\"122\"/>\\n      <vstem pos=\"461\" width=\"90\"/>\\n    </hintset>\\n  </hintSetList>\\n  </data>'
Ntp3
s."
EndChar

StartChar: uni0C1A
Encoding: 141 3098 141
GlifName: uni0C1A_
Width: 731
VWidth: 0
Flags: W
LayerCount: 2
Back
Fore
SplineSet
544 473 m 258
NamedP: "hr00"
 563 498 581 511 599 511 c 256
 624 511 640 506 647 495 c 257
 647 590 l 257
 631 597 615 601 599 601 c 256
 562 601 531 588 504 563 c 257
 446 490 l 258
 427 467 407 453 384 450 c 257
 366 450 l 257
 349 453 337 457 330 460 c 257
 315 469 307 483 307 500 c 256
 307 507 308 511 310 514 c 257
 206 514 l 257
 206 465 222 424 252 398 c 256
 281 374 314 361 355 361 c 258
 371 361 l 258
 443 361 494 358 524 349 c 256
 578 332 605 290 605 225 c 256
 605 194 599 165 586 138 c 256
 569 105 545 88 516 88 c 256
 479 88 461 112 461 160 c 257
 465 201 l 257
 345 201 l 257
 349 171 l 257
 349 121 331 96 294 96 c 256
 275 96 260 103 247 118 c 257
 236 135 231 154 231 174 c 256
 231 213 253 237 297 247 c 257
 297 322 l 257
 18 322 l 257
 18 227 l 257
 139 227 l 257
 124 213 117 190 117 159 c 256
 117 115 133 76 164 43 c 256
 196 10 234 -7 277 -7 c 256
 330 -7 370 10 397 44 c 257
 408 11 445 -6 507 -6 c 256
 566 -6 613 17 650 62 c 256
 687 108 706 161 706 222 c 256
 706 292 684 348 641 389 c 256
 606 424 567 444 524 447 c 257
 544 473 l 258
NamedP: "hr00"
EndSplineSet
PickledDataWithLists: "(dp1
S'com.adobe.type.autohint'
p2
(S'data'
S'<data>\\n  <hintSetList>\\n    <hintset pointTag=\"hr00\">\\n      <hstem pos=\"-7\" width=\"103\"/>\\n      <hstem pos=\"-6\" width=\"94\"/>\\n      <hstem pos=\"227\" width=\"95\"/>\\n      <hstem pos=\"361\" width=\"89\"/>\\n      <hstem pos=\"511\" width=\"90\"/>\\n      <vstem pos=\"18\" width=\"279\"/>\\n      <vstem pos=\"117\" width=\"114\"/>\\n      <vstem pos=\"206\" width=\"101\"/>\\n      <vstem pos=\"349\" width=\"112\"/>\\n      <vstem pos=\"605\" width=\"101\"/>\\n    </hintset>\\n  </hintSetList>\\n  </data>'
Ntp3
s."
EndChar

StartChar: uni0C1B
Encoding: 142 3099 142
GlifName: uni0C1B_
Width: 731
VWidth: 0
Flags: W
LayerCount: 2
Back
Fore
SplineSet
444 -6 m 257
NamedP: "hr00"
 344 -6 l 257
 344 -117 l 257
 444 -117 l 257
 444 -6 l 257
NamedP: "hr00"
544 473 m 258
 563 498 581 511 599 511 c 256
 624 511 640 506 647 495 c 257
 647 590 l 257
 631 597 615 601 599 601 c 256
 562 601 531 588 504 563 c 257
 446 490 l 258
 427 467 407 453 384 450 c 257
 366 450 l 257
 349 453 337 457 330 460 c 257
 315 469 307 483 307 500 c 256
 307 507 308 511 310 514 c 257
 206 514 l 257
 206 465 222 424 252 398 c 256
 281 374 314 361 355 361 c 258
 371 361 l 258
 443 361 494 358 524 349 c 256
 578 332 605 290 605 225 c 256
 605 194 599 165 586 138 c 256
 569 105 545 88 516 88 c 256
 479 88 461 112 461 160 c 257
 465 201 l 257
 345 201 l 257
 349 171 l 257
 349 121 331 96 294 96 c 256
 275 96 260 103 247 118 c 257
 236 135 231 154 231 174 c 256
 231 213 253 237 297 247 c 257
 297 322 l 257
 18 322 l 257
 18 227 l 257
 139 227 l 257
 124 213 117 190 117 159 c 256
 117 115 133 76 164 43 c 256
 196 10 234 -7 277 -7 c 256
 330 -7 370 10 397 44 c 257
 408 11 445 -6 507 -6 c 256
 566 -6 613 17 650 62 c 256
 687 108 706 161 706 222 c 256
 706 292 684 348 641 389 c 256
 606 424 567 444 524 447 c 257
 544 473 l 258
EndSplineSet
PickledDataWithLists: "(dp1
S'com.adobe.type.autohint'
p2
(S'data'
S'<data>\\n  <hintSetList>\\n    <hintset pointTag=\"hr00\">\\n      <hstem pos=\"-117\" width=\"111\"/>\\n      <hstem pos=\"-7\" width=\"103\"/>\\n      <hstem pos=\"-6\" width=\"94\"/>\\n      <hstem pos=\"227\" width=\"95\"/>\\n      <hstem pos=\"361\" width=\"89\"/>\\n      <hstem pos=\"511\" width=\"90\"/>\\n      <vstem pos=\"18\" width=\"279\"/>\\n      <vstem pos=\"117\" width=\"114\"/>\\n      <vstem pos=\"206\" width=\"101\"/>\\n      <vstem pos=\"344\" width=\"100\"/>\\n      <vstem pos=\"349\" width=\"112\"/>\\n      <vstem pos=\"605\" width=\"101\"/>\\n    </hintset>\\n  </hintSetList>\\n  </data>'
Ntp3
s."
EndChar

StartChar: uni0C1C
Encoding: 143 3100 143
GlifName: uni0C1C_
Width: 582
VWidth: 0
Flags: W
LayerCount: 2
Back
Fore
SplineSet
556 131 m 256
NamedP: "hr00"
 556 145 555 160 552 175 c 257
 440 175 l 257
 449 160 l 257
 452 157 454 148 454 133 c 256
 454 121 449 110 439 99 c 257
 427 89 415 84 402 84 c 257
 370 87 357 109 357 137 c 257
 361 160 l 257
 265 160 l 257
 262 113 240 89 199 89 c 257
 171 92 148 110 148 137 c 256
 148 162 169 182 210 197 c 256
 261 216 290 232 297 247 c 257
 329 232 361 225 393 225 c 256
 432 225 466 237 495 260 c 257
 531 283 549 316 549 357 c 256
 549 412 522 448 468 466 c 256
 449 472 408 476 344 476 c 257
 344 378 l 257
 361 386 l 258
 369 390 379 390 392 390 c 256
 424 390 440 377 440 350 c 256
 440 325 414 306 386 306 c 256
 365 306 345 319 330 345 c 256
 303 392 290 416 287 417 c 257
 262 444 230 458 189 458 c 256
 148 458 110 442 73 409 c 256
 36 376 18 339 18 296 c 257
 128 296 l 257
 128 341 145 364 180 364 c 256
 208 364 222 350 222 321 c 256
 222 294 205 277 172 265 c 258
 83 233 l 257
 50 214 33 182 33 137 c 256
 33 98 47 63 77 35 c 256
 107 6 144 -7 183 -7 c 256
 224 -7 258 10 287 44 c 257
 316 7 354 -10 400 -5 c 257
 449 -5 488 8 515 35 c 256
 542 62 555 94 556 131 c 256
NamedP: "hr00"
EndSplineSet
PickledDataWithLists: "(dp1
S'com.adobe.type.autohint'
p2
(S'data'
S'<data>\\n  <hintSetList>\\n    <hintset pointTag=\"hr00\">\\n      <hstem pos=\"-7\" width=\"96\"/>\\n      <hstem pos=\"-5\" width=\"89\"/>\\n      <hstem pos=\"225\" width=\"81\"/>\\n      <hstem pos=\"364\" width=\"94\"/>\\n      <hstem pos=\"390\" width=\"86\"/>\\n      <vstem pos=\"18\" width=\"110\"/>\\n      <vstem pos=\"33\" width=\"115\"/>\\n      <vstem pos=\"265\" width=\"92\"/>\\n      <vstem pos=\"440\" width=\"109\"/>\\n      <vstem pos=\"454\" width=\"102\"/>\\n    </hintset>\\n  </hintSetList>\\n  </data>'
Ntp3
s."
EndChar

StartChar: uni0C1D
Encoding: 144 3101 144
GlifName: uni0C1D_
Width: 1090
VWidth: 0
Flags: W
LayerCount: 2
Back
Fore
SplineSet
502 222 m 257
NamedP: "hr00"
 502 289 479 343 434 386 c 256
 409 411 379 430 344 442 c 257
 373 472 402 487 430 487 c 256
 447 487 464 481 479 470 c 257
 479 564 l 257
 466 575 450 580 430 580 c 256
 391 580 359 569 333 547 c 257
 281 481 l 257
 262 463 245 453 230 450 c 257
 218 449 l 258
 182 446 143 468 150 500 c 257
 43 500 l 257
 43 451 60 414 93 387 c 257
 43 344 18 292 18 233 c 256
 18 165 38 108 80 62 c 256
 121 17 179 -6 251 -6 c 256
 315 -6 373 16 425 60 c 257
 436 47 l 258
 467 10 512 -7 569 -7 c 256
 628 -7 677 18 718 67 c 257
 747 18 796 -7 864 -7 c 256
 919 -7 966 15 1005 58 c 256
 1045 101 1065 154 1065 216 c 256
 1065 283 1047 338 1011 382 c 256
 975 427 931 449 880 449 c 257
 859 447 l 257
 837 447 l 257
 837 358 l 257
 856 359 l 257
 874 359 l 258
 908 359 934 343 954 310 c 256
 970 283 979 256 979 227 c 256
 979 194 969 163 948 134 c 256
 927 105 905 91 880 91 c 256
 820 91 783 119 769 174 c 257
 772 182 773 195 773 213 c 256
 773 282 753 338 715 382 c 256
 676 427 633 449 584 449 c 257
 562 447 l 257
 542 447 l 257
 542 358 l 257
 561 359 l 257
 578 359 l 258
 612 359 639 343 658 310 c 256
 674 283 682 256 682 227 c 256
 682 195 673 164 654 135 c 256
 636 106 614 91 588 91 c 256
 555 91 529 106 514 138 c 258
 497 175 l 257
 502 222 l 257
NamedP: "hr00"
772 -6 m 257
 669 -6 l 257
 669 -117 l 257
 772 -117 l 257
 772 -6 l 257
402 222 m 256
 402 184 387 152 358 127 c 256
 329 102 294 90 254 90 c 256
 217 90 185 101 161 126 c 256
 136 152 125 187 125 227 c 256
 125 265 138 295 165 320 c 256
 191 344 223 358 260 358 c 256
 300 358 333 345 361 321 c 256
 388 297 402 265 402 222 c 256
EndSplineSet
PickledDataWithLists: "(dp1
S'com.adobe.type.autohint'
p2
(S'data'
S'<data>\\n  <hintSetList>\\n    <hintset pointTag=\"hr00\">\\n      <hstem pos=\"-117\" width=\"111\"/>\\n      <hstem pos=\"-7\" width=\"98\"/>\\n      <hstem pos=\"359\" width=\"90\"/>\\n      <hstem pos=\"487\" width=\"93\"/>\\n      <vstem pos=\"18\" width=\"107\"/>\\n      <vstem pos=\"402\" width=\"100\"/>\\n      <vstem pos=\"669\" width=\"103\"/>\\n      <vstem pos=\"682\" width=\"91\"/>\\n      <vstem pos=\"979\" width=\"86\"/>\\n    </hintset>\\n  </hintSetList>\\n  </data>'
Ntp3
s."
EndChar

StartChar: uni0C1E
Encoding: 145 3102 145
GlifName: uni0C1E_
Width: 869
VWidth: 0
Flags: W
LayerCount: 2
Back
Fore
SplineSet
378 107 m 257
NamedP: "hr00"
 349 85 320 74 291 74 c 256
 288 74 281 74 271 75 c 257
 220 75 191 92 191 111 c 257
 193 120 l 257
 196 127 203 131 213 134 c 258
 244 143 l 258
 253 146 265 146 281 146 c 256
 314 146 347 133 378 107 c 257
NamedP: "hr00"
845 281 m 257
 722 281 l 257
 722 348 l 257
 611 348 l 257
 611 279 l 257
 572 279 l 257
 572 335 558 376 525 412 c 256
 490 450 448 469 397 469 c 256
 370 469 347 465 330 458 c 256
 320 454 306 443 288 426 c 257
 240 455 l 257
 225 466 206 465 169 465 c 257
 130 460 95 444 64 416 c 256
 33 389 18 356 18 318 c 256
 18 306 22 289 29 266 c 257
 155 266 l 257
 136 277 129 298 130 327 c 256
 131 356 142 371 165 371 c 256
 208 371 230 341 230 281 c 257
 347 281 l 257
 345 305 l 258
 342 341 367 378 403 378 c 256
 420 378 434 366 446 341 c 256
 456 318 461 294 461 268 c 256
 461 238 453 212 436 191 c 257
 393 216 350 230 307 228 c 258
 262 226 l 257
 135 209 72 169 72 105 c 256
 72 34 143 -7 270 -7 c 256
 343 -7 406 10 457 53 c 257
 524 -46 l 257
 609 16 l 257
 542 130 l 257
 572 180 l 257
 614 188 l 257
 614 114 l 257
 734 114 l 257
 734 188 l 257
 845 188 l 257
 845 281 l 257
EndSplineSet
PickledDataWithLists: "(dp1
S'com.adobe.type.autohint'
p2
(S'data'
S'<data>\\n  <hintSetList>\\n    <hintset pointTag=\"hr00\">\\n      <hstem pos=\"-7\" width=\"81\"/>\\n      <hstem pos=\"146\" width=\"82\"/>\\n      <hstem pos=\"188\" width=\"93\"/>\\n      <hstem pos=\"371\" width=\"94\"/>\\n      <hstem pos=\"378\" width=\"91\"/>\\n      <vstem pos=\"18\" width=\"112\"/>\\n      <vstem pos=\"72\" width=\"119\"/>\\n      <vstem pos=\"230\" width=\"115\"/>\\n      <vstem pos=\"461\" width=\"111\"/>\\n      <vstem pos=\"611\" width=\"111\"/>\\n      <vstem pos=\"614\" width=\"120\"/>\\n    </hintset>\\n  </hintSetList>\\n  </data>'
Ntp3
s."
EndChar

StartChar: uni0C1F
Encoding: 146 3103 146
GlifName: uni0C1F_
Width: 642
VWidth: 0
Flags: W
LayerCount: 2
Back
Fore
SplineSet
235 341 m 257
NamedP: "hr00"
 232 316 214 295 194 295 c 256
 168 295 155 310 155 341 c 256
 155 364 177 384 194 384 c 257
 215 380 235 362 235 341 c 257
NamedP: "hr00"
618 247 m 256
 618 294 606 339 579 381 c 256
 548 430 501 457 442 463 c 257
 438 464 432 464 423 464 c 256
 407 464 393 462 382 459 c 257
 382 360 l 257
 419 363 l 258
 447 365 471 350 492 323 c 256
 511 297 520 270 520 241 c 256
 520 206 510 175 490 146 c 256
 471 118 449 104 424 104 c 256
 389 104 372 130 372 181 c 257
 273 181 l 257
 273 161 266 141 253 120 c 256
 240 100 223 90 203 90 c 256
 152 90 112 141 112 236 c 257
 122 216 142 203 172 197 c 257
 210 197 245 211 277 238 c 256
 309 265 325 298 325 337 c 256
 325 373 314 404 293 431 c 256
 286 440 265 454 246 469 c 257
 246 605 l 257
 144 605 l 257
 144 460 l 257
 109 447 79 417 54 372 c 256
 30 327 18 280 18 229 c 256
 18 166 35 110 70 63 c 256
 105 16 148 -7 197 -7 c 256
 250 -7 288 15 312 60 c 257
 334 19 371 -2 423 -2 c 256
 476 -2 522 23 560 74 c 256
 599 125 618 183 618 247 c 256
EndSplineSet
PickledDataWithLists: "(dp1
S'com.adobe.type.autohint'
p2
(S'data'
S'<data>\\n  <hintSetList>\\n    <hintset pointTag=\"hr00\">\\n      <hstem pos=\"-7\" width=\"97\"/>\\n      <hstem pos=\"-2\" width=\"106\"/>\\n      <hstem pos=\"197\" width=\"98\"/>\\n      <hstem pos=\"363\" width=\"101\"/>\\n      <vstem pos=\"18\" width=\"94\"/>\\n      <vstem pos=\"144\" width=\"102\"/>\\n      <vstem pos=\"235\" width=\"90\"/>\\n      <vstem pos=\"273\" width=\"99\"/>\\n      <vstem pos=\"520\" width=\"98\"/>\\n    </hintset>\\n  </hintSetList>\\n  </data>'
Ntp3
s."
EndChar

StartChar: uni0C20
Encoding: 147 3104 147
GlifName: uni0C20_
Width: 526
VWidth: 0
Flags: W
LayerCount: 2
Back
Fore
SplineSet
301 199 m 257
NamedP: "hr00"
 304 206 305 214 305 222 c 256
 305 258 279 268 264 268 c 256
 245 268 232 261 225 247 c 256
 221 240 219 233 219 225 c 256
 219 205 226 191 239 184 c 256
 246 181 253 179 261 179 c 256
 280 179 293 186 301 199 c 257
NamedP: "hr00"
43 500 m 257
 43 451 60 414 93 387 c 257
 43 344 18 292 18 233 c 256
 18 165 38 108 80 62 c 256
 121 17 179 -6 251 -6 c 256
 315 -6 373 16 424 60 c 256
 476 105 502 159 502 222 c 256
 502 289 479 343 434 386 c 256
 409 411 379 430 344 442 c 257
 373 472 402 487 430 487 c 256
 447 487 464 481 479 470 c 257
 479 564 l 257
 466 575 450 580 430 580 c 256
 391 580 359 569 333 547 c 257
 281 481 l 257
 262 463 245 453 230 450 c 257
 218 449 l 258
 182 446 143 468 150 500 c 257
 43 500 l 257
402 222 m 256
 402 184 387 152 358 127 c 256
 329 102 294 90 254 90 c 256
 217 90 185 101 161 126 c 256
 136 152 125 187 125 227 c 256
 125 265 138 295 165 320 c 256
 191 344 223 358 260 358 c 256
 300 358 333 345 361 321 c 256
 388 297 402 265 402 222 c 256
EndSplineSet
PickledDataWithLists: "(dp1
S'com.adobe.type.autohint'
p2
(S'data'
S'<data>\\n  <hintSetList>\\n    <hintset pointTag=\"hr00\">\\n      <hstem pos=\"-6\" width=\"96\"/>\\n      <hstem pos=\"179\" width=\"89\"/>\\n      <hstem pos=\"358\" width=\"91\"/>\\n      <hstem pos=\"487\" width=\"93\"/>\\n      <vstem pos=\"18\" width=\"107\"/>\\n      <vstem pos=\"219\" width=\"86\"/>\\n      <vstem pos=\"402\" width=\"100\"/>\\n    </hintset>\\n  </hintSetList>\\n  </data>'
Ntp3
s."
EndChar

StartChar: uni0C21
Encoding: 148 3105 148
GlifName: uni0C21_
Width: 577
VWidth: 0
Flags: W
LayerCount: 2
Back
Fore
SplineSet
383 481 m 258
NamedP: "hr00"
 403 504 429 514 456 514 c 256
 481 514 498 508 509 496 c 257
 509 593 l 257
 492 602 475 606 460 606 c 256
 409 606 363 579 318 528 c 258
 277 482 l 257
 262 470 248 464 236 464 c 256
 201 464 183 480 183 512 c 257
 186 526 l 257
 82 526 l 257
 81 511 l 258
 79 479 96 450 127 424 c 257
 130 419 l 257
 109 408 91 394 76 378 c 256
 37 336 18 279 18 207 c 256
 18 154 34 101 59 60 c 256
 87 14 125 -9 172 -9 c 256
 223 -9 262 9 287 44 c 257
 314 10 346 -7 383 -7 c 256
 428 -7 467 5 498 33 c 256
 535 67 552 115 552 173 c 256
 552 234 527 278 477 310 c 256
 458 322 437 329 414 329 c 256
 399 329 385 327 371 323 c 257
 371 222 l 257
 380 229 396 233 419 233 c 257
 431 230 441 224 449 215 c 256
 460 204 466 190 466 173 c 256
 466 156 459 139 446 122 c 256
 433 105 418 97 402 97 c 256
 364 97 345 120 345 167 c 257
 347 188 l 257
 246 188 l 257
 249 169 l 257
 249 151 244 133 233 114 c 257
 219 97 206 89 193 89 c 256
 142 89 112 142 112 211 c 256
 112 256 124 293 148 322 c 256
 175 353 213 369 262 369 c 258
 474 369 l 257
 474 450 l 257
 355 450 l 257
 383 481 l 258
NamedP: "hr00"
EndSplineSet
PickledDataWithLists: "(dp1
S'com.adobe.type.autohint'
p2
(S'data'
S'<data>\\n  <hintSetList>\\n    <hintset pointTag=\"hr00\">\\n      <hstem pos=\"-9\" width=\"98\"/>\\n      <hstem pos=\"-7\" width=\"104\"/>\\n      <hstem pos=\"233\" width=\"96\"/>\\n      <hstem pos=\"369\" width=\"81\"/>\\n      <hstem pos=\"514\" width=\"92\"/>\\n      <vstem pos=\"18\" width=\"94\"/>\\n      <vstem pos=\"81\" width=\"102\"/>\\n      <vstem pos=\"249\" width=\"96\"/>\\n      <vstem pos=\"371\" width=\"103\"/>\\n      <vstem pos=\"466\" width=\"86\"/>\\n    </hintset>\\n  </hintSetList>\\n  </data>'
Ntp3
s."
EndChar

StartChar: uni0C22
Encoding: 149 3106 149
GlifName: uni0C22_
Width: 577
VWidth: 0
Flags: W
LayerCount: 2
Back
Fore
SplineSet
340 -6 m 257
NamedP: "hr00"
 238 -6 l 257
 238 -117 l 257
 340 -117 l 257
 340 -6 l 257
NamedP: "hr00"
383 481 m 258
 403 504 429 514 456 514 c 256
 481 514 498 508 509 496 c 257
 509 593 l 257
 492 602 475 606 460 606 c 256
 409 606 363 579 318 528 c 258
 277 482 l 257
 262 470 248 464 236 464 c 256
 201 464 183 480 183 512 c 257
 186 526 l 257
 82 526 l 257
 81 511 l 258
 79 479 96 450 127 424 c 257
 130 419 l 257
 109 408 91 394 76 378 c 256
 37 336 18 279 18 207 c 256
 18 154 34 101 59 60 c 256
 87 14 125 -9 172 -9 c 256
 223 -9 262 9 287 44 c 257
 314 10 346 -7 383 -7 c 256
 428 -7 467 5 498 33 c 256
 535 67 552 115 552 173 c 256
 552 234 527 278 477 310 c 256
 458 322 437 329 414 329 c 256
 399 329 385 327 371 323 c 257
 371 222 l 257
 380 229 396 233 419 233 c 257
 431 230 441 224 449 215 c 256
 460 204 466 190 466 173 c 256
 466 156 459 139 446 122 c 256
 433 105 418 97 402 97 c 256
 364 97 345 120 345 167 c 257
 347 188 l 257
 246 188 l 257
 249 169 l 257
 249 151 244 133 233 114 c 257
 219 97 206 89 193 89 c 256
 142 89 112 142 112 211 c 256
 112 256 124 293 148 322 c 256
 175 353 213 369 262 369 c 258
 474 369 l 257
 474 450 l 257
 355 450 l 257
 383 481 l 258
EndSplineSet
PickledDataWithLists: "(dp1
S'com.adobe.type.autohint'
p2
(S'data'
S'<data>\\n  <hintSetList>\\n    <hintset pointTag=\"hr00\">\\n      <hstem pos=\"-117\" width=\"111\"/>\\n      <hstem pos=\"-9\" width=\"98\"/>\\n      <hstem pos=\"-7\" width=\"104\"/>\\n      <hstem pos=\"233\" width=\"96\"/>\\n      <hstem pos=\"369\" width=\"81\"/>\\n      <hstem pos=\"514\" width=\"92\"/>\\n      <vstem pos=\"18\" width=\"94\"/>\\n      <vstem pos=\"81\" width=\"102\"/>\\n      <vstem pos=\"238\" width=\"102\"/>\\n      <vstem pos=\"249\" width=\"96\"/>\\n      <vstem pos=\"371\" width=\"103\"/>\\n      <vstem pos=\"466\" width=\"86\"/>\\n    </hintset>\\n  </hintSetList>\\n  </data>'
Ntp3
s."
EndChar

StartChar: uni0C23
Encoding: 150 3107 150
GlifName: uni0C23_
Width: 588
VWidth: 0
Flags: W
LayerCount: 2
Back
Fore
SplineSet
441 118 m 256
NamedP: "hr00"
 441 88 426 73 397 73 c 256
 364 73 347 89 347 121 c 256
 347 132 352 143 361 155 c 257
 372 166 383 171 393 171 c 256
 421 170 441 143 441 118 c 256
NamedP: "hr00"
563 222 m 256
 563 277 553 329 528 373 c 256
 499 425 454 450 399 450 c 256
 345 450 306 437 281 410 c 257
 251 439 216 453 177 453 c 256
 135 453 98 442 67 419 c 256
 34 396 18 364 18 322 c 256
 18 285 35 257 70 238 c 257
 36 220 19 180 19 117 c 256
 19 81 32 51 57 28 c 256
 84 5 117 -6 154 -6 c 256
 171 -6 189 -4 207 1 c 257
 207 94 l 257
 200 91 192 89 182 89 c 256
 147 89 115 108 115 144 c 256
 115 161 121 177 135 192 c 256
 148 205 163 212 180 212 c 257
 191 211 l 257
 191 292 l 257
 184 289 177 287 169 287 c 256
 144 287 122 311 122 334 c 256
 122 361 141 374 178 374 c 256
 191 374 206 369 219 357 c 256
 236 343 243 325 243 308 c 257
 339 308 l 257
 339 343 354 360 384 360 c 256
 412 360 433 346 447 317 c 257
 467 286 470 258 470 218 c 257
 460 234 433 242 388 242 c 256
 311 242 262 189 262 112 c 256
 262 37 323 -7 398 -7 c 256
 455 -7 501 19 530 74 c 256
 554 118 563 169 563 222 c 256
EndSplineSet
PickledDataWithLists: "(dp1
S'com.adobe.type.autohint'
p2
(S'data'
S'<data>\\n  <hintSetList>\\n    <hintset pointTag=\"hr00\">\\n      <hstem pos=\"-7\" width=\"80\"/>\\n      <hstem pos=\"-6\" width=\"95\"/>\\n      <hstem pos=\"22\" width=\"-21\"/>\\n      <hstem pos=\"171\" width=\"71\"/>\\n      <hstem pos=\"212\" width=\"75\"/>\\n      <hstem pos=\"360\" width=\"90\"/>\\n      <hstem pos=\"374\" width=\"79\"/>\\n      <vstem pos=\"18\" width=\"104\"/>\\n      <vstem pos=\"19\" width=\"96\"/>\\n      <vstem pos=\"243\" width=\"96\"/>\\n      <vstem pos=\"262\" width=\"85\"/>\\n      <vstem pos=\"470\" width=\"93\"/>\\n    </hintset>\\n  </hintSetList>\\n  </data>'
Ntp3
s."
EndChar

StartChar: uni0C24
Encoding: 151 3108 151
GlifName: uni0C24_
Width: 635
VWidth: 0
Flags: W
LayerCount: 2
Back
Fore
SplineSet
372 360 m 258
NamedP: "hr00"
 397 359 418 352 433 343 c 257
 398 343 371 337 352 317 c 256
 330 295 319 269 319 239 c 256
 319 214 329 191 350 172 c 256
 371 153 395 143 424 143 c 256
 445 143 476 154 509 171 c 257
 478 134 447 109 414 94 c 256
 388 82 353 74 308 74 c 256
 265 74 225 83 188 102 c 256
 177 108 166 115 155 123 c 256
 140 135 131 146 128 157 c 257
 143 146 160 141 177 141 c 256
 200 141 222 151 241 171 c 256
 260 191 270 215 270 243 c 256
 270 304 225 343 161 343 c 256
 112 343 75 326 49 295 c 256
 29 271 18 243 18 210 c 256
 18 148 45 95 102 53 c 256
 155 13 221 -6 298 -6 c 256
 375 -6 445 14 508 53 c 256
 576 96 610 151 610 218 c 256
 610 261 593 299 560 332 c 257
 553 358 536 383 507 406 c 256
 483 426 457 439 428 445 c 257
 449 473 l 258
 468 498 485 512 504 512 c 256
 529 512 545 507 552 496 c 257
 552 591 l 257
 536 599 520 603 504 603 c 256
 467 603 436 590 409 563 c 257
 352 491 l 258
 330 463 306 450 281 450 c 256
 266 450 248 454 235 463 c 256
 220 472 212 484 212 500 c 256
 212 507 213 513 215 517 c 257
 112 517 l 257
 112 460 123 424 156 398 c 256
 186 374 221 362 259 363 c 258
 287 364 l 257
 372 360 l 258
NamedP: "hr00"
487 257 m 256
 487 234 472 223 442 223 c 256
 419 223 408 235 408 260 c 257
 411 284 431 300 446 300 c 256
 469 300 487 274 487 257 c 256
188 234 m 256
 188 212 175 200 149 201 c 256
 124 201 107 217 107 234 c 257
 108 243 111 251 118 260 c 257
 129 267 139 270 149 270 c 256
 175 270 188 258 188 234 c 256
EndSplineSet
PickledDataWithLists: "(dp1
S'com.adobe.type.autohint'
p2
(S'data'
S'<data>\\n  <hintSetList>\\n    <hintset pointTag=\"hr00\">\\n      <hstem pos=\"-6\" width=\"80\"/>\\n      <hstem pos=\"141\" width=\"60\"/>\\n      <hstem pos=\"143\" width=\"80\"/>\\n      <hstem pos=\"270\" width=\"73\"/>\\n      <hstem pos=\"300\" width=\"43\"/>\\n      <hstem pos=\"363\" width=\"87\"/>\\n      <hstem pos=\"512\" width=\"91\"/>\\n      <vstem pos=\"18\" width=\"89\"/>\\n      <vstem pos=\"112\" width=\"100\"/>\\n      <vstem pos=\"188\" width=\"82\"/>\\n      <vstem pos=\"319\" width=\"89\"/>\\n      <vstem pos=\"487\" width=\"123\"/>\\n    </hintset>\\n  </hintSetList>\\n  </data>'
Ntp3
s."
EndChar

StartChar: uni0C25
Encoding: 152 3109 152
GlifName: uni0C25_
Width: 579
VWidth: 0
Flags: W
LayerCount: 2
Back
Fore
SplineSet
326 -6 m 257
NamedP: "hr00"
 225 -6 l 257
 225 -117 l 257
 326 -117 l 257
 326 -6 l 257
NamedP: "hr00"
324 242 m 256
 327 249 329 256 329 265 c 256
 329 284 323 298 310 305 c 256
 304 308 297 310 288 310 c 256
 251 310 243 284 243 268 c 256
 243 249 249 235 262 228 c 256
 269 225 277 223 286 223 c 256
 304 223 317 229 324 242 c 256
102 384 m 258
 44 342 18 276 18 195 c 256
 18 139 33 91 64 51 c 256
 95 11 134 -9 180 -9 c 256
 219 -9 253 9 283 44 c 257
 311 10 338 -7 365 -7 c 256
 421 -7 467 14 502 55 c 256
 537 97 555 147 555 206 c 256
 555 283 530 340 484 382 c 256
 453 410 415 430 367 439 c 257
 400 464 431 476 460 476 c 256
 492 476 504 474 515 470 c 257
 515 560 l 257
 504 567 484 571 457 571 c 256
 426 571 401 567 382 558 c 256
 373 553 362 541 346 524 c 258
 301 476 l 257
 280 459 260 450 240 450 c 256
 203 450 185 464 185 491 c 257
 188 507 l 257
 86 507 l 257
 86 458 96 423 124 400 c 257
 102 384 l 258
461 222 m 256
 461 191 458 163 436 123 c 256
 426 104 409 94 386 94 c 256
 357 94 338 116 331 159 c 257
 335 199 l 257
 236 199 l 257
 236 131 218 97 182 97 c 256
 139 97 118 144 118 189 c 256
 118 242 137 285 175 320 c 256
 214 355 253 373 293 373 c 256
 348 373 392 357 423 322 c 256
 448 295 461 259 461 222 c 256
EndSplineSet
PickledDataWithLists: "(dp1
S'com.adobe.type.autohint'
p2
(S'data'
S'<data>\\n  <hintSetList>\\n    <hintset pointTag=\"hr00\">\\n      <hstem pos=\"-117\" width=\"111\"/>\\n      <hstem pos=\"-9\" width=\"106\"/>\\n      <hstem pos=\"-7\" width=\"101\"/>\\n      <hstem pos=\"223\" width=\"87\"/>\\n      <hstem pos=\"373\" width=\"77\"/>\\n      <hstem pos=\"476\" width=\"95\"/>\\n      <vstem pos=\"18\" width=\"100\"/>\\n      <vstem pos=\"86\" width=\"99\"/>\\n      <vstem pos=\"225\" width=\"101\"/>\\n      <vstem pos=\"236\" width=\"97\"/>\\n      <vstem pos=\"243\" width=\"86\"/>\\n      <vstem pos=\"461\" width=\"94\"/>\\n    </hintset>\\n  </hintSetList>\\n  </data>'
Ntp3
s."
EndChar

StartChar: uni0C26
Encoding: 153 3110 153
GlifName: uni0C26_
Width: 579
VWidth: 0
Flags: W
LayerCount: 2
Back
Fore
SplineSet
102 384 m 258
NamedP: "hr00"
 44 342 18 276 18 195 c 256
 18 139 33 91 64 51 c 256
 95 11 134 -9 180 -9 c 256
 219 -9 253 9 283 44 c 257
 311 10 338 -7 365 -7 c 256
 421 -7 467 14 502 55 c 256
 537 97 555 147 555 206 c 256
 555 283 530 340 484 382 c 256
 453 410 415 430 367 439 c 257
 400 464 431 476 460 476 c 256
 492 476 504 474 515 470 c 257
 515 560 l 257
 504 567 484 571 457 571 c 256
 426 571 401 567 382 558 c 256
 373 553 362 541 346 524 c 258
 301 476 l 257
 280 459 260 450 240 450 c 256
 203 450 185 464 185 491 c 257
 188 507 l 257
 86 507 l 257
 86 458 96 423 124 400 c 257
 102 384 l 258
NamedP: "hr00"
461 222 m 256
 461 191 458 163 436 123 c 256
 426 104 409 94 386 94 c 256
 357 94 338 116 331 159 c 257
 335 199 l 257
 236 199 l 257
 236 131 218 97 182 97 c 256
 139 97 118 144 118 189 c 256
 118 242 137 285 175 320 c 256
 214 355 253 373 293 373 c 256
 348 373 392 357 423 322 c 256
 448 295 461 259 461 222 c 256
EndSplineSet
PickledDataWithLists: "(dp1
S'com.adobe.type.autohint'
p2
(S'data'
S'<data>\\n  <hintSetList>\\n    <hintset pointTag=\"hr00\">\\n      <hstem pos=\"-9\" width=\"106\"/>\\n      <hstem pos=\"-7\" width=\"101\"/>\\n      <hstem pos=\"373\" width=\"77\"/>\\n      <hstem pos=\"476\" width=\"95\"/>\\n      <vstem pos=\"18\" width=\"100\"/>\\n      <vstem pos=\"86\" width=\"99\"/>\\n      <vstem pos=\"236\" width=\"97\"/>\\n      <vstem pos=\"461\" width=\"94\"/>\\n    </hintset>\\n  </hintSetList>\\n  </data>'
Ntp3
s."
EndChar

StartChar: uni0C27
Encoding: 154 3111 154
GlifName: uni0C27_
Width: 579
VWidth: 0
Flags: W
LayerCount: 2
Back
Fore
SplineSet
326 -6 m 257
NamedP: "hr00"
 225 -6 l 257
 225 -117 l 257
 326 -117 l 257
 326 -6 l 257
NamedP: "hr00"
102 384 m 258
 44 342 18 276 18 195 c 256
 18 139 33 91 64 51 c 256
 95 11 134 -9 180 -9 c 256
 219 -9 253 9 283 44 c 257
 311 10 338 -7 365 -7 c 256
 421 -7 467 14 502 55 c 256
 537 97 555 147 555 206 c 256
 555 283 530 340 484 382 c 256
 453 410 415 430 367 439 c 257
 400 464 431 476 460 476 c 256
 492 476 504 474 515 470 c 257
 515 560 l 257
 504 567 484 571 457 571 c 256
 426 571 401 567 382 558 c 256
 373 553 362 541 346 524 c 258
 301 476 l 257
 280 459 260 450 240 450 c 256
 203 450 185 464 185 491 c 257
 188 507 l 257
 86 507 l 257
 86 458 96 423 124 400 c 257
 102 384 l 258
461 222 m 256
 461 191 458 163 436 123 c 256
 426 104 409 94 386 94 c 256
 357 94 338 116 331 159 c 257
 335 199 l 257
 236 199 l 257
 236 131 218 97 182 97 c 256
 139 97 118 144 118 189 c 256
 118 242 137 285 175 320 c 256
 214 355 253 373 293 373 c 256
 348 373 392 357 423 322 c 256
 448 295 461 259 461 222 c 256
EndSplineSet
PickledDataWithLists: "(dp1
S'com.adobe.type.autohint'
p2
(S'data'
S'<data>\\n  <hintSetList>\\n    <hintset pointTag=\"hr00\">\\n      <hstem pos=\"-117\" width=\"111\"/>\\n      <hstem pos=\"-9\" width=\"106\"/>\\n      <hstem pos=\"-7\" width=\"101\"/>\\n      <hstem pos=\"373\" width=\"77\"/>\\n      <hstem pos=\"476\" width=\"95\"/>\\n      <vstem pos=\"18\" width=\"100\"/>\\n      <vstem pos=\"86\" width=\"99\"/>\\n      <vstem pos=\"225\" width=\"101\"/>\\n      <vstem pos=\"236\" width=\"97\"/>\\n      <vstem pos=\"461\" width=\"94\"/>\\n    </hintset>\\n  </hintSetList>\\n  </data>'
Ntp3
s."
EndChar

StartChar: uni0C28
Encoding: 155 3112 155
GlifName: uni0C28_
Width: 590
VWidth: 0
Flags: W
LayerCount: 2
Back
Fore
SplineSet
566 225 m 256
NamedP: "hr00"
 566 296 536 353 479 400 c 256
 449 424 410 437 359 437 c 257
 325 433 l 257
 348 469 379 487 420 487 c 256
 441 487 458 484 471 477 c 257
 471 582 l 257
 420 582 l 258
 373 582 334 570 305 545 c 257
 247 470 l 258
 228 445 205 433 176 433 c 256
 159 433 143 440 130 454 c 256
 117 469 112 483 114 497 c 257
 18 497 l 257
 18 396 80 338 204 345 c 258
 259 348 l 257
 324 350 l 258
 417 353 463 305 463 215 c 256
 463 191 454 165 435 136 c 256
 416 107 394 93 367 93 c 256
 334 93 317 113 317 152 c 256
 317 255 275 306 192 306 c 256
 141 306 100 289 70 256 c 256
 40 223 25 182 25 131 c 256
 25 100 35 71 54 44 c 256
 69 21 82 7 94 1 c 257
 215 1 l 257
 155 50 125 99 125 148 c 256
 125 189 147 225 188 225 c 256
 211 225 223 210 223 180 c 257
 219 152 l 257
 218 126 l 258
 216 85 231 53 258 28 c 256
 285 3 318 -9 356 -9 c 256
 409 -9 456 12 497 53 c 256
 543 100 566 157 566 225 c 256
NamedP: "hr00"
EndSplineSet
PickledDataWithLists: "(dp1
S'com.adobe.type.autohint'
p2
(S'data'
S'<data>\\n  <hintSetList>\\n    <hintset pointTag=\"hr00\">\\n      <hstem pos=\"-9\" width=\"102\"/>\\n      <hstem pos=\"22\" width=\"-21\"/>\\n      <hstem pos=\"225\" width=\"81\"/>\\n      <hstem pos=\"345\" width=\"88\"/>\\n      <hstem pos=\"350\" width=\"87\"/>\\n      <hstem pos=\"487\" width=\"95\"/>\\n      <vstem pos=\"18\" width=\"96\"/>\\n      <vstem pos=\"25\" width=\"100\"/>\\n      <vstem pos=\"218\" width=\"99\"/>\\n      <vstem pos=\"463\" width=\"103\"/>\\n    </hintset>\\n  </hintSetList>\\n  </data>'
Ntp3
s."
EndChar

StartChar: uni0C2A
Encoding: 156 3114 156
GlifName: uni0C2A_
Width: 598
VWidth: 0
Flags: W
LayerCount: 2
Back
Fore
SplineSet
420 607 m 257
NamedP: "hr00"
 409 614 395 618 379 618 c 256
 336 618 302 604 276 575 c 257
 223 498 l 258
 203 469 180 455 157 455 c 256
 131 455 118 466 118 487 c 257
 19 487 l 257
 19 455 30 430 53 411 c 257
 74 390 102 379 136 379 c 256
 190 379 234 395 267 427 c 257
 326 496 l 258
 345 518 368 528 392 528 c 256
 404 528 413 526 420 523 c 257
 420 607 l 257
NamedP: "hr00"
231 141 m 256
 231 106 205 83 172 83 c 256
 136 83 118 101 118 137 c 256
 118 178 136 199 172 199 c 256
 190 199 204 193 213 180 c 257
 225 169 231 156 231 141 c 256
573 218 m 256
 573 278 555 332 516 378 c 256
 472 431 419 450 344 450 c 257
 344 348 l 257
 431 348 474 303 474 213 c 256
 474 182 466 154 449 129 c 256
 433 104 412 91 387 91 c 256
 360 91 342 104 333 131 c 257
 333 171 318 207 289 239 c 256
 260 271 225 287 185 287 c 256
 128 287 86 269 57 236 c 256
 32 208 18 176 18 137 c 256
 18 98 30 65 53 38 c 256
 78 7 112 -9 157 -9 c 256
 212 -9 251 6 276 36 c 257
 303 6 338 -9 379 -9 c 256
 435 -9 481 13 518 58 c 256
 555 103 573 157 573 218 c 256
EndSplineSet
PickledDataWithLists: "(dp1
S'com.adobe.type.autohint'
p2
(S'data'
S'<data>\\n  <hintSetList>\\n    <hintset pointTag=\"hr00\">\\n      <hstem pos=\"-9\" width=\"92\"/>\\n      <hstem pos=\"-9\" width=\"100\"/>\\n      <hstem pos=\"199\" width=\"88\"/>\\n      <hstem pos=\"348\" width=\"102\"/>\\n      <hstem pos=\"379\" width=\"108\"/>\\n      <hstem pos=\"528\" width=\"90\"/>\\n      <vstem pos=\"18\" width=\"100\"/>\\n      <vstem pos=\"344\" width=\"76\"/>\\n      <vstem pos=\"474\" width=\"99\"/>\\n    </hintset>\\n  </hintSetList>\\n  </data>'
Ntp3
s."
EndChar

StartChar: uni0C2B
Encoding: 157 3115 157
GlifName: uni0C2B_
Width: 598
VWidth: 0
Flags: W
LayerCount: 2
Back
Fore
SplineSet
420 607 m 257
NamedP: "hr00"
 409 614 395 618 379 618 c 256
 336 618 302 604 276 575 c 257
 223 498 l 258
 203 469 180 455 157 455 c 256
 131 455 118 466 118 487 c 257
 19 487 l 257
 19 455 30 430 53 411 c 257
 74 390 102 379 136 379 c 256
 190 379 234 395 267 427 c 257
 326 496 l 258
 345 518 368 528 392 528 c 256
 404 528 413 526 420 523 c 257
 420 607 l 257
NamedP: "hr00"
325 -6 m 257
 224 -6 l 257
 224 -116 l 257
 325 -116 l 257
 325 -6 l 257
231 141 m 256
 231 106 205 83 172 83 c 256
 136 83 118 101 118 137 c 256
 118 178 136 199 172 199 c 256
 190 199 204 193 213 180 c 257
 225 169 231 156 231 141 c 256
573 218 m 256
 573 278 555 332 516 378 c 256
 472 431 419 450 344 450 c 257
 344 348 l 257
 431 348 474 303 474 213 c 256
 474 182 466 154 449 129 c 256
 433 104 412 91 387 91 c 256
 360 91 342 104 333 131 c 257
 333 171 318 207 289 239 c 256
 260 271 225 287 185 287 c 256
 128 287 86 269 57 236 c 256
 32 208 18 176 18 137 c 256
 18 98 30 65 53 38 c 256
 78 7 112 -9 157 -9 c 256
 212 -9 251 6 276 36 c 257
 303 6 338 -9 379 -9 c 256
 435 -9 481 13 518 58 c 256
 555 103 573 157 573 218 c 256
EndSplineSet
PickledDataWithLists: "(dp1
S'com.adobe.type.autohint'
p2
(S'data'
S'<data>\\n  <hintSetList>\\n    <hintset pointTag=\"hr00\">\\n      <hstem pos=\"-116\" width=\"110\"/>\\n      <hstem pos=\"-9\" width=\"92\"/>\\n      <hstem pos=\"-9\" width=\"100\"/>\\n      <hstem pos=\"199\" width=\"88\"/>\\n      <hstem pos=\"348\" width=\"102\"/>\\n      <hstem pos=\"379\" width=\"108\"/>\\n      <hstem pos=\"528\" width=\"90\"/>\\n      <vstem pos=\"18\" width=\"100\"/>\\n      <vstem pos=\"224\" width=\"101\"/>\\n      <vstem pos=\"344\" width=\"76\"/>\\n      <vstem pos=\"474\" width=\"99\"/>\\n    </hintset>\\n  </hintSetList>\\n  </data>'
Ntp3
s."
EndChar

StartChar: uni0C2C
Encoding: 158 3116 158
GlifName: uni0C2C_
Width: 603
VWidth: 0
Flags: W
LayerCount: 2
Back
Fore
SplineSet
578 216 m 256
NamedP: "hr00"
 578 284 560 339 524 382 c 256
 489 425 445 451 392 447 c 258
 351 444 l 257
 351 345 l 257
 364 351 376 354 387 354 c 256
 418 354 444 339 465 308 c 256
 482 283 491 256 491 227 c 256
 491 194 482 163 464 134 c 256
 446 105 424 90 399 90 c 257
 385 92 372 97 359 105 c 256
 342 116 333 130 333 148 c 258
 333 171 l 257
 234 171 l 257
 235 164 236 158 236 154 c 256
 236 143 236 136 235 131 c 256
 228 103 209 89 178 89 c 256
 142 89 120 112 120 137 c 256
 120 162 135 182 165 195 c 258
 249 232 l 257
 279 253 294 283 294 322 c 256
 294 398 243 447 167 447 c 256
 68 447 18 398 18 300 c 257
 102 300 l 257
 102 339 122 359 161 359 c 256
 190 359 204 346 204 320 c 256
 204 303 197 291 182 284 c 257
 134 270 l 258
 57 248 20 199 20 131 c 256
 20 92 32 60 57 36 c 257
 81 8 116 -6 161 -6 c 256
 209 -6 250 10 284 42 c 257
 304 21 315 10 318 9 c 256
 332 0 348 -4 365 -4 c 256
 426 -4 477 17 517 58 c 256
 558 100 578 153 578 216 c 256
NamedP: "hr00"
EndSplineSet
PickledDataWithLists: "(dp1
S'com.adobe.type.autohint'
p2
(S'data'
S'<data>\\n  <hintSetList>\\n    <hintset pointTag=\"hr00\">\\n      <hstem pos=\"-6\" width=\"95\"/>\\n      <hstem pos=\"-4\" width=\"175\"/>\\n      <hstem pos=\"354\" width=\"93\"/>\\n      <hstem pos=\"359\" width=\"88\"/>\\n      <vstem pos=\"18\" width=\"84\"/>\\n      <vstem pos=\"20\" width=\"100\"/>\\n      <vstem pos=\"204\" width=\"90\"/>\\n      <vstem pos=\"236\" width=\"97\"/>\\n      <vstem pos=\"491\" width=\"87\"/>\\n    </hintset>\\n  </hintSetList>\\n  </data>'
Ntp3
s."
EndChar

StartChar: uni0C2D
Encoding: 159 3117 159
GlifName: uni0C2D_
Width: 618
VWidth: 0
Flags: W
LayerCount: 2
Back
Fore
SplineSet
326 -6 m 257
NamedP: "hr00"
 225 -6 l 257
 225 -117 l 257
 326 -117 l 257
 326 -6 l 257
NamedP: "hr00"
494 455 m 257
 511 478 528 490 544 490 c 257
 565 484 l 257
 584 473 l 257
 586 473 589 475 593 479 c 257
 593 550 l 257
 589 555 l 257
 574 562 560 566 549 566 c 256
 520 566 494 556 471 535 c 256
 459 523 445 507 423 479 c 256
 409 460 396 452 387 453 c 257
 364 453 349 474 349 495 c 257
 351 501 l 257
 352 510 l 257
 262 510 l 257
 262 503 l 258
 262 464 273 434 293 412 c 256
 310 395 328 384 351 381 c 257
 361 378 l 257
 389 375 409 368 423 359 c 256
 467 329 491 286 491 227 c 256
 491 194 482 163 464 134 c 256
 446 105 424 90 399 90 c 257
 385 92 372 97 359 105 c 256
 342 116 333 130 333 148 c 258
 333 171 l 257
 234 171 l 257
 235 164 236 158 236 154 c 256
 236 143 236 136 235 131 c 256
 228 103 209 89 178 89 c 256
 142 89 120 112 120 137 c 256
 120 162 135 182 165 195 c 258
 249 232 l 257
 279 253 294 283 294 322 c 256
 294 398 243 447 167 447 c 256
 68 447 18 398 18 300 c 257
 102 300 l 257
 102 339 122 359 161 359 c 256
 190 359 204 346 204 320 c 256
 204 303 197 291 182 284 c 257
 134 270 l 258
 57 248 20 199 20 131 c 256
 20 92 32 60 57 36 c 257
 81 8 116 -6 161 -6 c 256
 209 -6 250 10 284 42 c 257
 304 21 315 10 318 9 c 256
 332 0 348 -4 365 -4 c 256
 426 -4 477 17 517 58 c 256
 558 100 578 153 578 216 c 256
 578 283 560 339 525 382 c 256
 510 401 492 417 471 431 c 257
 494 455 l 257
EndSplineSet
PickledDataWithLists: "(dp1
S'com.adobe.type.autohint'
p2
(S'data'
S'<data>\\n  <hintSetList>\\n    <hintset pointTag=\"hr00\">\\n      <hstem pos=\"-117\" width=\"111\"/>\\n      <hstem pos=\"-6\" width=\"95\"/>\\n      <hstem pos=\"-4\" width=\"175\"/>\\n      <hstem pos=\"359\" width=\"88\"/>\\n      <hstem pos=\"490\" width=\"76\"/>\\n      <vstem pos=\"18\" width=\"84\"/>\\n      <vstem pos=\"20\" width=\"100\"/>\\n      <vstem pos=\"204\" width=\"90\"/>\\n      <vstem pos=\"225\" width=\"101\"/>\\n      <vstem pos=\"236\" width=\"97\"/>\\n      <vstem pos=\"262\" width=\"87\"/>\\n      <vstem pos=\"491\" width=\"87\"/>\\n    </hintset>\\n  </hintSetList>\\n  </data>'
Ntp3
s."
EndChar

StartChar: uni0C2E
Encoding: 160 3118 160
GlifName: uni0C2E_
Width: 842
VWidth: 0
Flags: W
LayerCount: 2
Back
Fore
SplineSet
552 183 m 258
NamedP: "hr00"
 552 359 478 447 329 447 c 257
 350 490 379 512 416 511 c 256
 429 511 445 504 465 492 c 257
 465 600 l 257
 458 603 445 605 426 605 c 256
 386 605 350 590 319 561 c 257
 250 479 l 258
 225 449 197 437 171 437 c 256
 134 437 114 469 118 497 c 257
 18 497 l 257
 18 445 27 410 59 382 c 256
 88 355 123 341 166 341 c 256
 183 341 207 344 238 349 c 256
 269 354 292 357 308 357 c 256
 350 357 385 343 413 315 c 256
 442 287 456 252 456 210 c 256
 456 182 448 156 432 131 c 256
 416 106 395 94 368 94 c 256
 354 94 341 105 330 128 c 257
 330 183 315 224 284 251 c 256
 254 278 218 292 176 292 c 256
 133 292 96 278 65 250 c 256
 34 223 19 188 19 146 c 256
 19 95 36 57 70 30 c 257
 95 5 125 -7 159 -7 c 256
 206 -7 239 7 259 36 c 257
 280 5 312 -10 354 -10 c 256
 408 -10 453 6 488 37 c 256
 491 39 l 257
 522 8 563 -7 615 -7 c 256
 670 -7 717 15 757 59 c 256
 797 103 817 155 817 216 c 256
 817 284 798 340 763 383 c 256
 727 427 684 452 631 449 c 258
 589 447 l 257
 589 358 l 257
 627 359 l 258
 658 360 686 344 706 310 c 256
 722 284 729 256 729 227 c 256
 729 195 720 164 701 135 c 256
 682 106 661 91 636 91 c 256
 603 91 579 109 562 144 c 257
 552 171 l 257
 552 183 l 258
NamedP: "hr00"
230 141 m 256
 230 110 198 88 169 88 c 256
 133 88 115 109 115 152 c 256
 115 189 136 207 178 207 c 256
 213 207 230 185 230 141 c 256
EndSplineSet
PickledDataWithLists: "(dp1
S'com.adobe.type.autohint'
p2
(S'data'
S'<data>\\n  <hintSetList>\\n    <hintset pointTag=\"hr00\">\\n      <hstem pos=\"-10\" width=\"104\"/>\\n      <hstem pos=\"-7\" width=\"98\"/>\\n      <hstem pos=\"-7\" width=\"95\"/>\\n      <hstem pos=\"207\" width=\"85\"/>\\n      <hstem pos=\"341\" width=\"96\"/>\\n      <hstem pos=\"359\" width=\"90\"/>\\n      <hstem pos=\"511\" width=\"94\"/>\\n      <vstem pos=\"18\" width=\"100\"/>\\n      <vstem pos=\"19\" width=\"96\"/>\\n      <vstem pos=\"230\" width=\"100\"/>\\n      <vstem pos=\"456\" width=\"96\"/>\\n      <vstem pos=\"729\" width=\"88\"/>\\n    </hintset>\\n  </hintSetList>\\n  </data>'
Ntp3
s."
EndChar

StartChar: uni0C2F
Encoding: 161 3119 161
GlifName: uni0C2F_
Width: 1138
VWidth: 0
Flags: W
LayerCount: 2
Back
Fore
SplineSet
837 216 m 258
NamedP: "hr00"
 839 283 819 338 783 381 c 256
 763 406 740 424 713 437 c 257
 739 470 l 258
 759 495 775 510 794 510 c 256
 819 510 836 504 843 493 c 257
 843 588 l 257
 826 596 809 600 794 600 c 256
 756 600 723 589 700 560 c 258
 642 487 l 258
 620 460 597 447 572 447 c 256
 541 447 503 465 503 497 c 256
 503 504 504 510 505 513 c 257
 402 513 l 257
 402 457 415 423 447 396 c 256
 477 372 511 360 549 360 c 258
 557 360 l 257
 645 358 l 258
 680 357 707 342 725 310 c 257
 742 286 750 258 750 227 c 256
 750 192 739 163 721 137 c 256
 699 107 674 91 641 91 c 256
 607 91 579 105 557 132 c 256
 542 150 523 185 502 236 c 257
 502 295 477 346 429 390 c 256
 384 432 330 453 267 453 c 256
 203 453 145 431 94 387 c 256
 43 344 18 292 18 233 c 256
 18 165 38 108 80 62 c 256
 121 17 179 -6 251 -6 c 256
 336 -6 405 29 457 100 c 257
 498 29 558 -7 637 -7 c 256
 691 -7 737 13 776 53 c 257
 780 47 l 257
 811 11 854 -7 911 -7 c 256
 966 -7 1014 15 1054 58 c 256
 1094 101 1114 154 1114 216 c 256
 1114 283 1095 338 1059 382 c 256
 1022 427 979 452 926 449 c 258
 885 447 l 257
 885 358 l 257
 922 359 l 258
 954 360 980 343 1000 310 c 256
 1015 286 1023 258 1023 227 c 256
 1023 192 1014 162 998 137 c 256
 978 106 956 91 931 91 c 256
 899 91 874 109 857 144 c 257
 857 147 844 163 836 184 c 257
 837 216 l 258
NamedP: "hr00"
408 222 m 256
 408 182 391 151 361 125 c 256
 331 100 297 86 254 86 c 256
 217 86 184 98 157 123 c 257
 134 150 122 185 122 227 c 256
 122 265 136 297 164 322 c 256
 192 348 224 361 260 361 c 256
 301 361 335 348 364 323 c 256
 393 298 408 265 408 222 c 256
EndSplineSet
PickledDataWithLists: "(dp1
S'com.adobe.type.autohint'
p2
(S'data'
S'<data>\\n  <hintSetList>\\n    <hintset pointTag=\"hr00\">\\n      <hstem pos=\"-7\" width=\"98\"/>\\n      <hstem pos=\"-6\" width=\"92\"/>\\n      <hstem pos=\"359\" width=\"90\"/>\\n      <hstem pos=\"361\" width=\"92\"/>\\n      <hstem pos=\"510\" width=\"90\"/>\\n      <vstem pos=\"18\" width=\"104\"/>\\n      <vstem pos=\"402\" width=\"101\"/>\\n      <vstem pos=\"408\" width=\"94\"/>\\n      <vstem pos=\"750\" width=\"87\"/>\\n      <vstem pos=\"1023\" width=\"91\"/>\\n    </hintset>\\n  </hintSetList>\\n  </data>'
Ntp3
s."
EndChar

StartChar: uni0C30
Encoding: 162 3120 162
GlifName: uni0C30_
Width: 526
VWidth: 0
Flags: W
LayerCount: 2
Back
Fore
SplineSet
43 500 m 257
NamedP: "hr00"
 43 451 60 414 93 387 c 257
 43 344 18 292 18 233 c 256
 18 165 38 108 80 62 c 256
 121 17 179 -6 251 -6 c 256
 315 -6 373 16 424 60 c 256
 476 105 502 159 502 222 c 256
 502 289 479 343 434 386 c 256
 409 411 379 430 344 442 c 257
 373 472 402 487 430 487 c 256
 447 487 464 481 479 470 c 257
 479 564 l 257
 466 575 450 580 430 580 c 256
 391 580 359 569 333 547 c 257
 281 481 l 257
 262 463 245 453 230 450 c 257
 218 449 l 258
 182 446 143 468 150 500 c 257
 43 500 l 257
NamedP: "hr00"
402 222 m 256
 402 184 387 152 358 127 c 256
 329 102 294 90 254 90 c 256
 217 90 185 101 161 126 c 256
 136 152 125 187 125 227 c 256
 125 265 138 295 165 320 c 256
 191 344 223 358 260 358 c 256
 300 358 333 345 361 321 c 256
 388 297 402 265 402 222 c 256
EndSplineSet
PickledDataWithLists: "(dp1
S'com.adobe.type.autohint'
p2
(S'data'
S'<data>\\n  <hintSetList>\\n    <hintset pointTag=\"hr00\">\\n      <hstem pos=\"-6\" width=\"96\"/>\\n      <hstem pos=\"358\" width=\"91\"/>\\n      <hstem pos=\"487\" width=\"93\"/>\\n      <vstem pos=\"18\" width=\"107\"/>\\n      <vstem pos=\"402\" width=\"100\"/>\\n    </hintset>\\n  </hintSetList>\\n  </data>'
Ntp3
s."
EndChar

StartChar: uni0C31
Encoding: 163 3121 163
GlifName: uni0C31_
Width: 634
VWidth: 0
Flags: W
LayerCount: 2
Back
Fore
SplineSet
213 334 m 256
NamedP: "hr00"
 213 309 202 296 180 296 c 256
 156 296 144 309 144 334 c 256
 144 361 156 374 180 374 c 256
 202 374 213 361 213 334 c 256
NamedP: "hr00"
515 234 m 256
 515 194 507 160 492 132 c 256
 475 101 449 85 415 85 c 256
 382 85 365 99 365 127 c 258
 365 147 l 257
 257 147 l 257
 257 99 239 75 202 75 c 256
 175 75 156 86 143 109 c 256
 130 132 124 157 124 184 c 257
 129 220 l 257
 137 214 145 211 154 211 c 256
 158 211 174 211 182 218 c 257
 182 171 l 257
 439 171 l 257
 439 265 l 257
 408 275 393 294 393 321 c 256
 393 347 405 360 430 360 c 256
 457 360 478 345 494 316 c 256
 507 292 515 265 515 234 c 256
609 213 m 256
 609 278 597 333 571 375 c 256
 539 426 493 450 436 450 c 256
 360 450 307 394 307 318 c 256
 307 301 311 282 318 263 c 257
 256 263 l 257
 277 288 288 321 288 361 c 256
 288 387 277 409 256 427 c 256
 235 446 211 455 185 455 c 256
 128 455 84 424 55 363 c 256
 30 312 18 253 18 186 c 256
 18 133 32 88 62 50 c 256
 91 13 130 -6 175 -6 c 256
 246 -6 287 12 298 48 c 257
 330 12 372 -6 424 -6 c 256
 479 -6 525 17 560 62 c 256
 593 104 609 154 609 213 c 256
EndSplineSet
PickledDataWithLists: "(dp1
S'com.adobe.type.autohint'
p2
(S'data'
S'<data>\\n  <hintSetList>\\n    <hintset pointTag=\"hr00\">\\n      <hstem pos=\"-6\" width=\"153\"/>\\n      <hstem pos=\"171\" width=\"92\"/>\\n      <hstem pos=\"360\" width=\"90\"/>\\n      <hstem pos=\"374\" width=\"81\"/>\\n      <vstem pos=\"18\" width=\"106\"/>\\n      <vstem pos=\"213\" width=\"75\"/>\\n      <vstem pos=\"257\" width=\"108\"/>\\n      <vstem pos=\"307\" width=\"86\"/>\\n      <vstem pos=\"515\" width=\"94\"/>\\n    </hintset>\\n  </hintSetList>\\n  </data>'
Ntp3
s."
EndChar

StartChar: uni0C32
Encoding: 164 3122 164
GlifName: uni0C32_
Width: 581
VWidth: 0
Flags: W
LayerCount: 2
Back
Fore
SplineSet
218 328 m 257
NamedP: "hr00"
 215 298 199 283 172 283 c 256
 147 283 134 300 134 334 c 257
 137 367 148 378 180 378 c 256
 189 378 198 372 207 361 c 257
 214 350 218 339 218 328 c 257
NamedP: "hr00"
556 229 m 256
 556 304 531 361 484 401 c 256
 446 433 398 457 354 442 c 257
 354 359 l 257
 387 358 414 349 435 332 c 256
 456 315 467 280 467 227 c 256
 467 180 448 143 408 117 c 256
 374 95 332 86 284 86 c 256
 239 86 201 96 169 117 c 256
 144 134 128 155 120 180 c 256
 116 193 114 208 114 227 c 257
 133 210 156 202 181 202 c 256
 250 202 302 256 302 329 c 256
 302 362 292 389 271 411 c 257
 252 435 227 447 194 447 c 256
 134 447 92 430 61 390 c 256
 31 352 18 302 18 243 c 256
 18 170 39 112 82 67 c 256
 129 16 197 -10 286 -10 c 256
 357 -10 419 11 474 53 c 256
 529 96 556 154 556 229 c 256
EndSplineSet
PickledDataWithLists: "(dp1
S'com.adobe.type.autohint'
p2
(S'data'
S'<data>\\n  <hintSetList>\\n    <hintset pointTag=\"hr00\">\\n      <hstem pos=\"-10\" width=\"96\"/>\\n      <hstem pos=\"202\" width=\"81\"/>\\n      <hstem pos=\"359\" width=\"88\"/>\\n      <hstem pos=\"378\" width=\"69\"/>\\n      <vstem pos=\"18\" width=\"96\"/>\\n      <vstem pos=\"218\" width=\"84\"/>\\n      <vstem pos=\"467\" width=\"89\"/>\\n    </hintset>\\n  </hintSetList>\\n  </data>'
Ntp3
s."
EndChar

StartChar: uni0C33
Encoding: 165 3123 165
GlifName: uni0C33_
Width: 590
VWidth: 0
Flags: W
LayerCount: 2
Back
Fore
SplineSet
367 381 m 258
NamedP: "hr00"
 402 381 420 368 420 341 c 256
 420 320 403 303 370 288 c 256
 337 273 307 266 280 266 c 256
 238 266 203 274 176 291 c 257
 198 307 211 320 216 330 c 256
 221 340 223 355 223 376 c 256
 223 428 186 463 127 463 c 256
 54 463 18 429 18 360 c 256
 18 323 32 294 57 270 c 256
 79 250 104 235 135 229 c 257
 100 206 83 175 83 134 c 256
 83 39 156 -9 259 -9 c 256
 336 -9 389 17 423 63 c 256
 443 91 454 120 454 152 c 256
 454 193 443 221 420 238 c 257
 471 273 497 309 497 345 c 256
 497 398 473 433 444 444 c 257
 466 468 l 257
 491 495 l 257
 499 502 508 506 518 506 c 256
 539 506 555 500 566 487 c 257
 566 585 l 257
 551 590 536 593 520 593 c 256
 499 593 479 586 460 572 c 257
 445 563 425 543 402 513 c 257
 365 474 341 454 329 454 c 256
 309 454 299 465 299 487 c 257
 301 508 l 257
 301 512 l 257
 202 512 l 257
 202 510 l 257
 199 493 l 257
 199 461 211 434 234 412 c 256
 258 390 287 379 320 379 c 257
 331 381 l 257
 367 381 l 258
NamedP: "hr00"
161 361 m 257
 164 341 154 330 129 327 c 257
 105 327 93 337 93 357 c 256
 93 380 104 393 125 396 c 257
 145 396 161 381 161 361 c 257
372 146 m 256
 372 123 359 104 334 91 c 257
 316 79 294 73 267 73 c 256
 204 73 172 93 172 134 c 256
 172 155 184 169 207 180 c 256
 231 191 237 192 272 192 c 256
 339 192 372 177 372 146 c 256
EndSplineSet
PickledDataWithLists: "(dp1
S'com.adobe.type.autohint'
p2
(S'data'
S'<data>\\n  <hintSetList>\\n    <hintset pointTag=\"hr00\">\\n      <hstem pos=\"-9\" width=\"82\"/>\\n      <hstem pos=\"192\" width=\"74\"/>\\n      <hstem pos=\"381\" width=\"131\"/>\\n      <hstem pos=\"396\" width=\"67\"/>\\n      <hstem pos=\"506\" width=\"87\"/>\\n      <vstem pos=\"18\" width=\"75\"/>\\n      <vstem pos=\"83\" width=\"89\"/>\\n      <vstem pos=\"161\" width=\"62\"/>\\n      <vstem pos=\"199\" width=\"100\"/>\\n      <vstem pos=\"372\" width=\"82\"/>\\n      <vstem pos=\"420\" width=\"77\"/>\\n    </hintset>\\n  </hintSetList>\\n  </data>'
Ntp3
s."
EndChar

StartChar: uni0C34
Encoding: 166 3124 166
GlifName: uni0C34_
Width: 627
VWidth: 0
Flags: W
LayerCount: 2
Back
Fore
SplineSet
312 63 m 257
NamedP: "hr00"
 331 17 376 -6 447 -6 c 256
 492 -6 530 13 559 50 c 256
 588 88 603 133 603 186 c 256
 603 253 591 312 566 363 c 256
 536 424 493 455 436 455 c 256
 410 455 386 446 365 427 c 256
 344 409 334 387 333 361 c 256
 331 235 433 197 492 220 c 257
 507 185 505 152 487 121 c 256
 469 90 447 75 420 75 c 256
 383 75 365 99 365 147 c 257
 257 147 l 257
 257 99 239 75 202 75 c 256
 175 75 153 90 135 121 c 256
 117 152 115 185 129 220 c 257
 189 197 290 235 288 361 c 256
 288 387 277 409 256 427 c 256
 235 446 211 455 185 455 c 256
 128 455 84 424 55 363 c 256
 30 312 18 253 18 186 c 256
 18 133 32 88 62 50 c 256
 91 13 130 -6 175 -6 c 256
 246 -6 291 17 312 63 c 257
NamedP: "hr00"
441 296 m 256
 419 296 408 309 408 334 c 256
 408 361 419 374 441 374 c 256
 465 374 477 361 477 334 c 256
 477 309 465 296 441 296 c 256
213 334 m 256
 213 309 202 296 180 296 c 256
 156 296 144 309 144 334 c 256
 144 361 156 374 180 374 c 256
 202 374 213 361 213 334 c 256
EndSplineSet
PickledDataWithLists: "(dp1
S'com.adobe.type.autohint'
p2
(S'data'
S'<data>\\n  <hintSetList>\\n    <hintset pointTag=\"hr00\">\\n      <hstem pos=\"-6\" width=\"81\"/>\\n      <hstem pos=\"214\" width=\"82\"/>\\n      <hstem pos=\"374\" width=\"81\"/>\\n      <vstem pos=\"18\" width=\"102\"/>\\n      <vstem pos=\"213\" width=\"75\"/>\\n      <vstem pos=\"257\" width=\"108\"/>\\n      <vstem pos=\"333\" width=\"75\"/>\\n      <vstem pos=\"502\" width=\"101\"/>\\n    </hintset>\\n  </hintSetList>\\n  </data>'
Ntp3
s."
EndChar

StartChar: uni0C35
Encoding: 167 3125 167
GlifName: uni0C35_
Width: 577
VWidth: 0
Flags: W
LayerCount: 2
Back
Fore
SplineSet
230 141 m 256
NamedP: "hr00"
 230 110 198 88 169 88 c 256
 133 88 115 109 115 152 c 256
 115 189 136 207 178 207 c 256
 213 207 230 185 230 141 c 256
NamedP: "hr00"
552 183 m 256
 552 359 478 447 329 447 c 257
 350 490 379 512 416 511 c 256
 429 511 445 504 465 492 c 257
 465 600 l 257
 458 603 445 605 426 605 c 256
 386 605 350 590 319 561 c 257
 250 479 l 258
 225 449 197 437 171 437 c 256
 134 437 114 469 118 497 c 257
 18 497 l 257
 18 445 27 410 59 382 c 256
 88 355 123 341 166 341 c 256
 183 341 207 344 238 349 c 256
 269 354 292 357 308 357 c 256
 350 357 385 343 413 315 c 256
 442 287 456 252 456 210 c 256
 456 182 448 156 432 131 c 256
 416 106 395 94 368 94 c 256
 354 94 341 105 330 128 c 257
 330 183 315 224 284 251 c 256
 254 278 218 292 176 292 c 256
 133 292 96 278 65 250 c 256
 34 223 19 188 19 146 c 256
 19 95 36 57 70 30 c 257
 95 5 125 -7 159 -7 c 256
 206 -7 239 7 259 36 c 257
 280 5 312 -10 354 -10 c 256
 408 -10 453 6 488 37 c 256
 531 76 552 125 552 183 c 256
EndSplineSet
PickledDataWithLists: "(dp1
S'com.adobe.type.autohint'
p2
(S'data'
S'<data>\\n  <hintSetList>\\n    <hintset pointTag=\"hr00\">\\n      <hstem pos=\"-10\" width=\"104\"/>\\n      <hstem pos=\"-7\" width=\"95\"/>\\n      <hstem pos=\"207\" width=\"85\"/>\\n      <hstem pos=\"341\" width=\"96\"/>\\n      <hstem pos=\"357\" width=\"90\"/>\\n      <hstem pos=\"511\" width=\"94\"/>\\n      <vstem pos=\"18\" width=\"100\"/>\\n      <vstem pos=\"19\" width=\"96\"/>\\n      <vstem pos=\"230\" width=\"100\"/>\\n      <vstem pos=\"456\" width=\"96\"/>\\n    </hintset>\\n  </hintSetList>\\n  </data>'
Ntp3
s."
EndChar

StartChar: uni0C36
Encoding: 168 3126 168
GlifName: uni0C36_
Width: 556
VWidth: 0
Flags: W
LayerCount: 2
Back
Fore
SplineSet
379 381 m 258
NamedP: "hr00"
 410 381 427 369 426 344 c 256
 426 330 419 321 408 318 c 257
 392 326 387 329 367 329 c 258
 331 329 l 257
 292 327 l 258
 124 318 18 266 18 151 c 256
 18 127 21 110 28 100 c 257
 129 100 l 257
 118 113 113 132 113 155 c 256
 113 216 139 247 191 247 c 257
 167 212 155 179 155 148 c 256
 155 107 169 71 196 42 c 256
 229 8 275 -9 334 -9 c 256
 388 -9 433 7 469 38 c 256
 505 69 523 110 523 160 c 256
 523 187 517 210 504 229 c 256
 496 240 481 262 474 275 c 257
 503 308 l 257
 513 324 518 339 518 352 c 256
 518 377 508 399 489 419 c 256
 470 440 448 450 425 450 c 258
 405 450 l 257
 421 468 l 258
 438 487 458 496 481 496 c 256
 503 496 520 490 531 479 c 257
 531 575 l 257
 516 582 500 586 483 586 c 256
 438 586 397 561 356 513 c 256
 322 473 297 454 284 454 c 256
 264 454 254 465 254 487 c 257
 256 508 l 257
 252 512 l 257
 157 512 l 257
 155 510 l 257
 155 493 l 258
 155 461 167 434 190 412 c 256
 213 390 242 376 275 379 c 258
 298 381 l 257
 379 381 l 258
NamedP: "hr00"
423 160 m 256
 423 106 397 79 344 79 c 256
 303 79 261 115 261 160 c 256
 261 205 295 241 342 241 c 256
 361 241 380 233 397 216 c 256
 414 200 423 181 423 160 c 256
EndSplineSet
PickledDataWithLists: "(dp1
S'com.adobe.type.autohint'
p2
(S'data'
S'<data>\\n  <hintSetList>\\n    <hintset pointTag=\"hr00\">\\n      <hstem pos=\"-9\" width=\"88\"/>\\n      <hstem pos=\"241\" width=\"86\"/>\\n      <hstem pos=\"381\" width=\"69\"/>\\n      <hstem pos=\"496\" width=\"90\"/>\\n      <vstem pos=\"18\" width=\"95\"/>\\n      <vstem pos=\"155\" width=\"106\"/>\\n      <vstem pos=\"155\" width=\"99\"/>\\n      <vstem pos=\"423\" width=\"100\"/>\\n      <vstem pos=\"426\" width=\"92\"/>\\n    </hintset>\\n  </hintSetList>\\n  </data>'
Ntp3
s."
EndChar

StartChar: uni0C37
Encoding: 169 3127 169
GlifName: uni0C37_
Width: 635
VWidth: 0
Flags: W
LayerCount: 2
Back
Fore
SplineSet
423 607 m 257
NamedP: "hr00"
 412 614 399 618 382 618 c 256
 339 618 305 604 280 575 c 257
 225 498 l 258
 204 469 183 455 161 455 c 256
 135 455 122 466 122 487 c 257
 22 487 l 257
 22 455 34 431 55 411 c 256
 77 391 104 379 139 379 c 256
 192 379 236 395 271 427 c 257
 329 496 l 258
 348 518 371 528 396 528 c 256
 407 528 416 526 423 523 c 257
 423 607 l 257
NamedP: "hr00"
229 157 m 256
 229 144 223 130 210 117 c 256
 198 104 188 97 180 97 c 256
 143 97 125 116 125 154 c 256
 125 195 143 215 180 215 c 256
 213 215 229 196 229 157 c 256
610 -99 m 257
 573 -86 555 -46 555 19 c 258
 555 51 l 257
 561 105 l 258
 562 113 563 126 566 143 c 257
 566 191 l 258
 566 276 549 341 516 386 c 256
 486 425 447 444 398 444 c 256
 377 444 363 442 356 439 c 257
 356 334 l 257
 389 334 l 258
 416 334 438 320 455 291 c 256
 468 270 474 243 474 211 c 256
 474 183 465 156 447 131 c 256
 428 106 409 94 388 94 c 256
 367 94 350 106 339 131 c 257
 339 168 322 209 304 238 c 256
 275 285 236 308 183 308 c 256
 134 308 94 293 63 262 c 256
 33 231 18 193 18 148 c 256
 18 109 32 73 60 41 c 256
 88 10 124 -6 167 -6 c 256
 210 -6 243 10 267 42 c 257
 284 8 317 -9 367 -9 c 256
 390 -9 412 -6 428 2 c 258
 466 21 l 257
 461 -1 l 257
 461 -28 l 258
 461 -83 474 -122 500 -143 c 257
 524 -143 565 -124 610 -99 c 257
EndSplineSet
PickledDataWithLists: "(dp1
S'com.adobe.type.autohint'
p2
(S'data'
S'<data>\\n  <hintSetList>\\n    <hintset pointTag=\"hr00\">\\n      <hstem pos=\"-9\" width=\"103\"/>\\n      <hstem pos=\"-6\" width=\"103\"/>\\n      <hstem pos=\"215\" width=\"93\"/>\\n      <hstem pos=\"334\" width=\"110\"/>\\n      <hstem pos=\"379\" width=\"108\"/>\\n      <hstem pos=\"528\" width=\"90\"/>\\n      <vstem pos=\"18\" width=\"107\"/>\\n      <vstem pos=\"22\" width=\"100\"/>\\n      <vstem pos=\"229\" width=\"110\"/>\\n      <vstem pos=\"356\" width=\"67\"/>\\n      <vstem pos=\"461\" width=\"94\"/>\\n      <vstem pos=\"474\" width=\"92\"/>\\n    </hintset>\\n  </hintSetList>\\n  </data>'
Ntp3
s."
EndChar

StartChar: uni0C38
Encoding: 170 3128 170
GlifName: uni0C38_
Width: 603
VWidth: 0
Flags: W
LayerCount: 2
Back
Fore
SplineSet
420 607 m 257
NamedP: "hr00"
 409 614 395 618 379 618 c 256
 336 618 302 604 276 575 c 257
 223 498 l 258
 203 469 180 455 157 455 c 256
 131 455 118 466 118 487 c 257
 19 487 l 257
 19 455 30 430 53 411 c 257
 74 390 102 379 136 379 c 256
 190 379 234 395 267 427 c 257
 326 496 l 258
 345 518 368 528 392 528 c 256
 404 528 413 526 420 523 c 257
 420 607 l 257
NamedP: "hr00"
578 225 m 256
 578 290 558 342 519 383 c 256
 480 424 425 444 354 444 c 257
 354 337 l 257
 378 342 l 257
 407 342 431 329 452 303 c 256
 473 278 484 249 484 218 c 256
 484 182 472 153 455 128 c 257
 434 103 411 91 388 91 c 256
 365 91 348 109 333 146 c 258
 293 243 l 257
 268 278 233 296 188 296 c 256
 128 296 84 278 55 242 c 256
 30 211 18 172 18 126 c 256
 18 84 36 40 72 -6 c 257
 194 -6 l 257
 151 53 l 258
 133 77 125 106 125 137 c 256
 125 179 140 200 170 200 c 256
 195 200 214 182 225 146 c 256
 242 88 253 54 259 44 c 256
 282 8 322 -10 378 -10 c 256
 447 -10 499 22 537 83 c 256
 563 126 578 172 578 225 c 256
EndSplineSet
PickledDataWithLists: "(dp1
S'com.adobe.type.autohint'
p2
(S'data'
S'<data>\\n  <hintSetList>\\n    <hintset pointTag=\"hr00\">\\n      <hstem pos=\"-10\" width=\"101\"/>\\n      <hstem pos=\"200\" width=\"96\"/>\\n      <hstem pos=\"342\" width=\"102\"/>\\n      <hstem pos=\"379\" width=\"108\"/>\\n      <hstem pos=\"528\" width=\"90\"/>\\n      <vstem pos=\"18\" width=\"107\"/>\\n      <vstem pos=\"19\" width=\"99\"/>\\n      <vstem pos=\"354\" width=\"66\"/>\\n      <vstem pos=\"484\" width=\"94\"/>\\n    </hintset>\\n  </hintSetList>\\n  </data>'
Ntp3
s."
EndChar

StartChar: uni0C39
Encoding: 171 3129 171
GlifName: uni0C39_
Width: 926
VWidth: 0
Flags: W
LayerCount: 2
Back
Fore
SplineSet
611 363 m 258
NamedP: "hr00"
 669 363 710 360 735 355 c 256
 760 350 779 339 793 322 c 257
 748 327 l 257
 655 327 603 271 603 188 c 256
 603 155 615 126 640 101 c 256
 665 76 695 64 729 64 c 256
 778 64 819 83 852 121 c 256
 885 160 901 202 901 248 c 256
 901 346 863 409 787 439 c 256
 766 447 703 452 598 452 c 258
 341 452 l 257
 341 363 l 257
 376 363 l 258
 406 363 433 343 454 302 c 256
 471 269 478 239 478 213 c 256
 478 184 469 157 451 133 c 256
 433 109 415 97 396 97 c 258
 382 97 l 258
 357 97 340 108 333 131 c 257
 333 171 318 207 288 239 c 256
 259 271 224 287 183 287 c 256
 128 287 87 269 56 236 c 256
 32 209 18 177 18 137 c 256
 18 98 29 65 50 38 c 256
 75 7 111 -9 156 -9 c 256
 209 -9 249 6 276 36 c 257
 301 6 333 -9 371 -9 c 256
 432 -9 481 14 520 60 c 256
 556 102 574 147 574 194 c 256
 574 267 562 318 534 363 c 257
 611 363 l 258
NamedP: "hr00"
231 141 m 256
 231 106 205 83 172 83 c 256
 135 83 117 101 117 137 c 256
 117 178 135 199 172 199 c 256
 205 199 231 172 231 141 c 256
787 207 m 256
 787 176 772 160 742 160 c 256
 715 160 701 175 701 205 c 256
 701 230 716 243 746 243 c 256
 773 243 787 231 787 207 c 256
421 607 m 257
 410 614 397 618 381 618 c 256
 338 618 304 604 277 575 c 257
 224 498 l 258
 204 469 182 455 159 455 c 256
 133 455 120 466 120 487 c 257
 20 487 l 257
 20 455 31 430 54 411 c 257
 75 390 103 379 138 379 c 256
 191 379 235 395 270 427 c 257
 328 496 l 258
 346 518 369 528 393 528 c 256
 406 528 415 526 421 523 c 257
 421 607 l 257
EndSplineSet
PickledDataWithLists: "(dp1
S'com.adobe.type.autohint'
p2
(S'data'
S'<data>\\n  <hintSetList>\\n    <hintset pointTag=\"hr00\">\\n      <hstem pos=\"-9\" width=\"92\"/>\\n      <hstem pos=\"-9\" width=\"106\"/>\\n      <hstem pos=\"64\" width=\"96\"/>\\n      <hstem pos=\"199\" width=\"88\"/>\\n      <hstem pos=\"243\" width=\"84\"/>\\n      <hstem pos=\"363\" width=\"89\"/>\\n      <hstem pos=\"379\" width=\"108\"/>\\n      <hstem pos=\"528\" width=\"90\"/>\\n      <vstem pos=\"18\" width=\"99\"/>\\n      <vstem pos=\"20\" width=\"100\"/>\\n      <vstem pos=\"231\" width=\"102\"/>\\n      <vstem pos=\"341\" width=\"80\"/>\\n      <vstem pos=\"478\" width=\"96\"/>\\n      <vstem pos=\"603\" width=\"98\"/>\\n      <vstem pos=\"787\" width=\"114\"/>\\n    </hintset>\\n  </hintSetList>\\n  </data>'
Ntp3
s."
EndChar

StartChar: uni0C3D
Encoding: 172 3133 172
GlifName: uni0C3D_
Width: 808
VWidth: 0
Flags: W
LayerCount: 2
Back
Fore
SplineSet
231 395 m 256
NamedP: "hr00"
 231 382 227 372 218 363 c 256
 209 354 198 350 186 350 c 256
 172 350 160 354 149 363 c 256
 139 372 134 382 134 395 c 256
 134 406 139 416 149 424 c 256
 160 433 172 438 186 438 c 256
 198 438 209 433 218 424 c 256
 227 416 231 406 231 395 c 256
NamedP: "hr00"
32 389 m 256
 32 359 45 333 72 311 c 256
 99 290 132 280 170 280 c 256
 214 280 252 293 283 318 c 256
 313 343 325 371 319 402 c 257
 336 395 350 384 359 371 c 256
 368 357 373 343 373 328 c 256
 373 303 357 283 325 266 c 256
 293 249 254 241 209 241 c 256
 156 241 111 229 74 205 c 256
 37 180 18 149 18 112 c 256
 18 79 35 53 66 30 c 256
 98 7 134 -6 178 -6 c 258
 783 -6 l 257
 783 83 l 257
 193 83 l 258
 177 83 163 86 151 93 c 256
 140 99 134 107 134 117 c 256
 134 130 142 142 157 151 c 256
 174 160 194 164 217 164 c 256
 286 164 346 180 397 212 c 256
 446 244 471 283 471 328 c 256
 471 383 450 426 407 459 c 256
 363 493 305 510 233 510 c 256
 172 510 123 499 86 476 c 256
 50 454 32 425 32 389 c 256
EndSplineSet
PickledDataWithLists: "(dp1
S'com.adobe.type.autohint'
p2
(S'data'
S'<data>\\n  <hintSetList>\\n    <hintset pointTag=\"hr00\">\\n      <hstem pos=\"-6\" width=\"89\"/>\\n      <hstem pos=\"164\" width=\"77\"/>\\n      <hstem pos=\"280\" width=\"70\"/>\\n      <hstem pos=\"438\" width=\"72\"/>\\n      <vstem pos=\"18\" width=\"116\"/>\\n      <vstem pos=\"32\" width=\"102\"/>\\n      <vstem pos=\"231\" width=\"88\"/>\\n      <vstem pos=\"373\" width=\"98\"/>\\n    </hintset>\\n  </hintSetList>\\n  </data>'
Ntp3
s."
EndChar

StartChar: uni0C3E
Encoding: 173 3134 173
GlifName: uni0C3E_
Width: 689
VWidth: 0
Flags: W
LayerCount: 2
Back
Fore
SplineSet
549 205 m 256
NamedP: "hr00"
 549 191 545 179 537 170 c 256
 528 159 516 154 501 154 c 256
 488 154 476 158 464 167 c 256
 453 176 447 187 447 202 c 256
 447 216 451 228 459 238 c 256
 469 249 481 255 496 255 c 256
 510 255 522 251 531 242 c 256
 542 233 548 220 549 205 c 256
NamedP: "hr00"
338 194 m 256
 338 159 351 127 376 100 c 256
 405 67 444 51 495 51 c 256
 555 51 598 72 627 115 c 256
 651 151 664 201 664 265 c 256
 664 316 647 362 614 403 c 256
 573 454 519 479 452 479 c 258
 -250 479 l 257
 -250 381 l 257
 447 381 l 258
 481 381 510 373 535 358 c 256
 562 341 575 318 575 287 c 257
 570 297 560 307 546 316 c 256
 529 326 510 331 490 331 c 256
 447 331 412 318 383 292 c 256
 353 266 338 233 338 194 c 256
EndSplineSet
PickledDataWithLists: "(dp1
S'com.adobe.type.autohint'
p2
(S'data'
S'<data>\\n  <hintSetList>\\n    <hintset pointTag=\"hr00\">\\n      <hstem pos=\"51\" width=\"103\"/>\\n      <hstem pos=\"255\" width=\"76\"/>\\n      <hstem pos=\"381\" width=\"98\"/>\\n      <vstem pos=\"338\" width=\"109\"/>\\n      <vstem pos=\"575\" width=\"89\"/>\\n    </hintset>\\n  </hintSetList>\\n  </data>'
Ntp3
s."
EndChar

StartChar: uni0C3F
Encoding: 174 3135 174
GlifName: uni0C3F_
Width: 0
VWidth: 0
Flags: W
LayerCount: 2
Back
Fore
SplineSet
-70 628 m 256
NamedP: "hr00"
 -70 638 -66 647 -57 655 c 256
 -48 664 -38 669 -27 669 c 256
 -13 669 -1 664 8 655 c 256
 15 648 19 639 19 628 c 256
 19 619 15 610 8 603 c 256
 -1 595 -13 591 -27 591 c 256
 -38 591 -48 595 -57 603 c 256
 -66 610 -70 619 -70 628 c 256
NamedP: "hr00"
202 563 m 256
 202 611 187 651 156 683 c 256
 120 720 68 738 -1 738 c 256
 -49 738 -89 725 -120 698 c 256
 -145 677 -157 654 -157 629 c 256
 -157 600 -147 578 -129 559 c 256
 -107 537 -78 524 -39 524 c 256
 -12 524 14 532 38 548 c 256
 67 567 82 593 82 627 c 256
 82 628 82 631 81 634 c 256
 80 638 80 641 80 642 c 257
 93 635 102 625 109 612 c 256
 116 598 119 583 119 568 c 256
 119 543 107 520 83 498 c 256
 61 477 36 466 9 466 c 256
 -20 466 -44 469 -64 476 c 256
 -86 483 -104 495 -118 510 c 257
 -166 445 l 257
 -149 426 -126 412 -97 403 c 256
 -68 394 -35 389 2 389 c 256
 60 389 107 409 147 447 c 256
 183 483 202 521 202 563 c 256
EndSplineSet
PickledDataWithLists: "(dp1
S'com.adobe.type.autohint'
p2
(S'data'
S'<data>\\n  <hintSetList>\\n    <hintset pointTag=\"hr00\">\\n      <hstem pos=\"389\" width=\"77\"/>\\n      <hstem pos=\"524\" width=\"67\"/>\\n      <hstem pos=\"669\" width=\"69\"/>\\n      <vstem pos=\"-157\" width=\"87\"/>\\n      <vstem pos=\"19\" width=\"63\"/>\\n      <vstem pos=\"119\" width=\"83\"/>\\n    </hintset>\\n  </hintSetList>\\n  </data>'
Ntp3
s."
EndChar

StartChar: uni0C40
Encoding: 175 3136 175
GlifName: uni0C40_
Width: 0
VWidth: 0
Flags: W
LayerCount: 2
Back
Fore
SplineSet
-77 629 m 256
NamedP: "hr00"
 -77 640 -73 649 -64 658 c 256
 -56 666 -46 670 -35 670 c 256
 -22 670 -12 666 -5 658 c 256
 2 650 6 640 6 629 c 256
 6 618 2 610 -5 603 c 256
 -12 596 -22 592 -35 592 c 256
 -46 592 -56 596 -64 605 c 257
 -73 611 -77 619 -77 629 c 256
NamedP: "hr00"
195 564 m 256
 195 608 180 648 148 681 c 256
 115 714 73 732 24 738 c 257
 18 750 l 258
 17 753 16 756 16 758 c 256
 16 775 20 788 28 797 c 256
 37 806 50 811 65 811 c 256
 76 811 87 806 96 795 c 256
 104 784 108 770 108 754 c 257
 198 754 l 257
 198 797 187 829 166 851 c 257
 142 872 108 883 65 883 c 256
 24 883 -11 874 -35 854 c 256
 -59 835 -69 809 -69 778 c 256
 -69 761 -66 747 -61 734 c 257
 -91 727 -116 713 -135 693 c 256
 -154 674 -164 653 -164 630 c 256
 -164 598 -153 573 -132 554 c 256
 -111 535 -82 526 -46 526 c 256
 -12 526 17 536 42 555 c 257
 64 576 75 600 75 628 c 256
 75 629 75 632 74 635 c 256
 73 638 73 641 73 643 c 257
 86 636 95 626 101 613 c 256
 108 599 112 584 112 569 c 256
 112 544 100 522 76 500 c 256
 54 479 29 468 2 468 c 256
 -25 468 -50 472 -71 479 c 256
 -94 487 -112 498 -125 511 c 257
 -173 447 l 257
 -156 428 -134 414 -105 405 c 256
 -76 395 -42 390 -5 390 c 256
 51 390 98 408 137 442 c 256
 176 476 195 516 195 564 c 256
EndSplineSet
PickledDataWithLists: "(dp1
S'com.adobe.type.autohint'
p2
(S'data'
S'<data>\\n  <hintSetList>\\n    <hintset pointTag=\"hr00\">\\n      <hstem pos=\"390\" width=\"78\"/>\\n      <hstem pos=\"526\" width=\"66\"/>\\n      <hstem pos=\"754\" width=\"129\"/>\\n      <vstem pos=\"-164\" width=\"87\"/>\\n      <vstem pos=\"-69\" width=\"85\"/>\\n      <vstem pos=\"6\" width=\"69\"/>\\n      <vstem pos=\"108\" width=\"90\"/>\\n      <vstem pos=\"112\" width=\"83\"/>\\n    </hintset>\\n  </hintSetList>\\n  </data>'
Ntp3
s."
EndChar

StartChar: uni0C41
Encoding: 176 3137 176
GlifName: uni0C41_
Width: 284
VWidth: 0
Flags: W
LayerCount: 2
Back
Fore
SplineSet
259 225 m 256
NamedP: "hr00"
 259 296 241 355 204 400 c 256
 167 444 120 467 64 466 c 258
 22 465 l 257
 22 373 l 257
 31 374 41 374 52 374 c 256
 88 374 117 357 140 324 c 256
 158 297 167 265 167 229 c 256
 167 193 157 163 136 138 c 256
 115 112 87 99 53 99 c 256
 23 99 -3 108 -26 130 c 256
 -50 152 -61 180 -64 211 c 257
 -79 211 l 257
 -83 209 l 258
 -110 196 -122 166 -122 126 c 257
 -117 98 -105 72 -86 49 c 256
 -55 12 -9 -7 52 -7 c 256
 119 -7 170 16 207 62 c 256
 242 104 259 158 259 225 c 256
NamedP: "hr00"
EndSplineSet
PickledDataWithLists: "(dp1
S'com.adobe.type.autohint'
p2
(S'data'
S'<data>\\n  <hintSetList>\\n    <hintset pointTag=\"hr00\">\\n      <hstem pos=\"-7\" width=\"106\"/>\\n      <hstem pos=\"374\" width=\"92\"/>\\n      <vstem pos=\"167\" width=\"92\"/>\\n    </hintset>\\n  </hintSetList>\\n  </data>'
Ntp3
s."
EndChar

StartChar: uni0C42
Encoding: 177 3138 177
GlifName: uni0C42_
Width: 641
VWidth: 0
Flags: W
LayerCount: 2
Back
Fore
SplineSet
501 202 m 256
NamedP: "hr00"
 501 186 496 173 487 164 c 256
 478 156 466 152 450 152 c 256
 437 152 424 156 411 164 c 256
 398 173 391 185 391 200 c 256
 391 215 397 228 409 238 c 256
 420 248 433 253 450 253 c 256
 461 253 472 248 483 239 c 256
 495 228 501 216 501 202 c 256
NamedP: "hr00"
259 225 m 256
 259 282 245 333 217 378 c 257
 402 378 l 258
 435 378 464 371 487 357 c 256
 514 340 528 317 528 286 c 257
 523 295 514 304 500 311 c 257
 481 323 462 329 443 329 c 256
 401 329 366 316 337 291 c 256
 308 265 294 232 294 192 c 256
 294 156 306 125 330 99 c 256
 359 66 399 49 449 49 c 256
 504 49 547 71 578 114 c 256
 605 151 618 201 618 264 c 256
 618 313 601 357 566 397 c 256
 526 443 473 466 406 466 c 258
 22 466 l 257
 22 373 l 257
 31 374 43 374 58 374 c 256
 94 374 122 359 143 328 c 256
 159 303 167 272 167 237 c 256
 167 200 158 168 140 142 c 256
 120 113 93 99 59 99 c 256
 20 99 -8 110 -27 132 c 256
 -45 154 -54 183 -54 220 c 256
 -54 221 -55 222 -57 223 c 256
 -58 224 -61 225 -64 225 c 256
 -69 224 -74 221 -79 218 c 256
 -93 211 -103 202 -108 192 c 256
 -117 177 -122 155 -122 126 c 256
 -122 101 -110 75 -87 48 c 256
 -56 11 -10 -7 52 -7 c 256
 119 -7 170 16 207 62 c 256
 242 104 259 158 259 225 c 256
EndSplineSet
PickledDataWithLists: "(dp1
S'com.adobe.type.autohint'
p2
(S'data'
S'<data>\\n  <hintSetList>\\n    <hintset pointTag=\"hr00\">\\n      <hstem pos=\"-7\" width=\"106\"/>\\n      <hstem pos=\"49\" width=\"103\"/>\\n      <hstem pos=\"253\" width=\"76\"/>\\n      <hstem pos=\"378\" width=\"88\"/>\\n      <vstem pos=\"-122\" width=\"68\"/>\\n      <vstem pos=\"167\" width=\"92\"/>\\n      <vstem pos=\"294\" width=\"97\"/>\\n      <vstem pos=\"528\" width=\"90\"/>\\n    </hintset>\\n  </hintSetList>\\n  </data>'
Ntp3
s."
EndChar

StartChar: uni0C43
Encoding: 178 3139 178
GlifName: uni0C43_
Width: 339
VWidth: 0
Flags: W
LayerCount: 2
Back
Fore
SplineSet
100 -101 m 256
NamedP: "hr00"
 104 -120 96 -132 77 -137 c 257
 59 -140 48 -132 45 -115 c 257
 40 -98 47 -87 65 -83 c 256
 84 -78 96 -84 100 -101 c 256
NamedP: "hr00"
330 -17 m 256
 313 62 281 124 232 164 c 256
 188 200 142 211 95 201 c 257
 95 105 l 257
 99 108 105 111 113 112 c 256
 137 117 160 111 181 94 c 256
 210 71 229 37 239 -9 c 256
 262 -112 228 -193 163 -207 c 256
 146 -211 129 -208 110 -202 c 257
 163 -171 185 -129 174 -76 c 256
 169 -51 155 -35 135 -20 c 256
 114 -5 88 0 57 -7 c 256
 20 -15 -9 -36 -28 -67 c 256
 -47 -99 -54 -130 -47 -159 c 256
 -36 -210 -9 -249 38 -273 c 256
 81 -295 125 -302 170 -297 c 256
 216 -292 258 -264 297 -213 c 256
 336 -162 347 -97 330 -17 c 256
EndSplineSet
PickledDataWithLists: "(dp1
S'com.adobe.type.autohint'
p2
(S'data'
S'<data>\\n  <hintSetList>\\n    <hintset pointTag=\"hr00\">\\n      <hstem pos=\"-297\" width=\"90\"/>\\n      <hstem pos=\"-83\" width=\"79\"/>\\n      <hstem pos=\"112\" width=\"92\"/>\\n      <vstem pos=\"-50\" width=\"95\"/>\\n      <vstem pos=\"100\" width=\"77\"/>\\n      <vstem pos=\"246\" width=\"92\"/>\\n    </hintset>\\n  </hintSetList>\\n  </data>'
Ntp3
s."
EndChar

StartChar: uni0C44
Encoding: 179 3140 179
GlifName: uni0C44_
Width: 604
VWidth: 0
Flags: W
LayerCount: 2
Back
Fore
SplineSet
156 205 m 257
NamedP: "hr00"
 138 208 120 207 102 202 c 257
 102 106 l 257
 106 109 112 112 120 114 c 256
 144 119 167 113 188 96 c 256
 217 73 236 39 246 -7 c 256
 267 -111 235 -191 168 -206 c 256
 152 -209 134 -207 115 -201 c 257
 170 -170 193 -128 181 -75 c 256
 175 -50 161 -34 142 -19 c 256
 121 -4 95 1 64 -6 c 256
 27 -15 -2 -35 -21 -66 c 256
 -40 -98 -47 -129 -40 -158 c 256
 -29 -209 -1 -246 45 -270 c 256
 88 -292 132 -298 177 -289 c 257
 220 -287 262 -261 302 -210 c 256
 342 -159 354 -95 337 -16 c 256
 323 45 301 95 270 133 c 257
 272 133 275 133 278 134 c 257
 369 134 l 258
 417 134 450 132 469 129 c 256
 488 126 503 117 515 101 c 257
 477 105 l 257
 405 105 362 63 362 -5 c 256
 362 -31 372 -54 392 -75 c 257
 413 -93 437 -102 463 -102 c 256
 501 -102 533 -87 560 -56 c 256
 587 -26 600 7 600 44 c 256
 600 121 569 171 508 196 c 256
 494 202 444 205 358 205 c 258
 156 205 l 257
NamedP: "hr00"
102 -101 m 256
 106 -120 100 -132 81 -137 c 257
 63 -140 52 -132 47 -115 c 256
 43 -98 50 -87 68 -83 c 256
 87 -78 98 -84 102 -101 c 256
508 10 m 256
 508 -14 496 -26 473 -26 c 256
 451 -26 440 -15 440 7 c 256
 440 30 452 42 476 42 c 256
 497 42 508 31 508 10 c 256
EndSplineSet
PickledDataWithLists: "(dp1
S'com.adobe.type.autohint'
p2
(S'data'
S'<data>\\n  <hintSetList>\\n    <hintset pointTag=\"hr00\">\\n      <hstem pos=\"-293\" width=\"87\"/>\\n      <hstem pos=\"-102\" width=\"76\"/>\\n      <hstem pos=\"-83\" width=\"80\"/>\\n      <hstem pos=\"42\" width=\"63\"/>\\n      <hstem pos=\"134\" width=\"71\"/>\\n      <vstem pos=\"-43\" width=\"90\"/>\\n      <vstem pos=\"102\" width=\"82\"/>\\n      <vstem pos=\"252\" width=\"92\"/>\\n      <vstem pos=\"362\" width=\"78\"/>\\n      <vstem pos=\"508\" width=\"92\"/>\\n    </hintset>\\n  </hintSetList>\\n  </data>'
Ntp3
s."
EndChar

StartChar: uni0C46
Encoding: 180 3142 180
GlifName: uni0C46_
Width: 0
VWidth: 0
Flags: W
LayerCount: 2
Back
Fore
SplineSet
230 519 m 256
NamedP: "hr00"
 230 556 219 585 197 608 c 256
 174 631 147 642 115 642 c 258
 -245 642 l 257
 -245 558 l 257
 70 558 l 258
 91 558 106 555 115 550 c 256
 127 543 133 530 133 513 c 256
 133 499 125 487 110 477 c 256
 99 470 84 466 67 466 c 258
 -134 466 l 257
 -134 381 l 257
 78 381 l 258
 123 381 160 395 188 422 c 256
 216 449 230 482 230 519 c 256
NamedP: "hr00"
EndSplineSet
PickledDataWithLists: "(dp1
S'com.adobe.type.autohint'
p2
(S'data'
S'<data>\\n  <hintSetList>\\n    <hintset pointTag=\"hr00\">\\n      <hstem pos=\"381\" width=\"85\"/>\\n      <hstem pos=\"558\" width=\"84\"/>\\n      <vstem pos=\"133\" width=\"97\"/>\\n    </hintset>\\n  </hintSetList>\\n  </data>'
Ntp3
s."
EndChar

StartChar: uni0C47
Encoding: 181 3143 181
GlifName: uni0C47_
Width: 0
VWidth: 0
Flags: W
LayerCount: 2
Back
Fore
SplineSet
228 517 m 256
NamedP: "hr00"
 228 546 219 571 204 592 c 256
 189 613 171 627 148 635 c 257
 146 655 l 257
 146 672 151 685 161 695 c 256
 170 704 183 709 198 709 c 256
 216 709 230 701 239 686 c 256
 244 676 247 665 247 654 c 258
 247 628 l 257
 350 628 l 257
 350 683 337 726 310 755 c 256
 283 783 246 797 198 797 c 256
 165 797 133 786 103 764 c 256
 70 741 53 712 54 677 c 258
 55 640 l 257
 -246 640 l 257
 -246 555 l 257
 70 555 l 258
 91 555 105 553 112 548 c 256
 123 541 129 528 129 511 c 256
 129 497 123 485 112 476 c 256
 102 469 90 466 75 466 c 258
 -134 466 l 257
 -134 381 l 257
 82 381 l 258
 127 381 163 395 191 424 c 256
 216 451 228 482 228 517 c 256
NamedP: "hr00"
EndSplineSet
PickledDataWithLists: "(dp1
S'com.adobe.type.autohint'
p2
(S'data'
S'<data>\\n  <hintSetList>\\n    <hintset pointTag=\"hr00\">\\n      <hstem pos=\"381\" width=\"85\"/>\\n      <hstem pos=\"555\" width=\"85\"/>\\n      <hstem pos=\"709\" width=\"88\"/>\\n      <vstem pos=\"54\" width=\"92\"/>\\n      <vstem pos=\"129\" width=\"99\"/>\\n      <vstem pos=\"247\" width=\"103\"/>\\n    </hintset>\\n  </hintSetList>\\n  </data>'
Ntp3
s."
EndChar

StartChar: uni0C48
Encoding: 182 3144 182
GlifName: uni0C48_
Width: 724
VWidth: 0
Flags: W
LayerCount: 2
Back
Fore
SplineSet
205 -183 m 256
NamedP: "hr00"
 205 -192 204 -198 201 -202 c 256
 196 -209 190 -213 184 -213 c 256
 175 -213 167 -210 159 -205 c 257
 151 -198 147 -191 147 -183 c 256
 147 -175 149 -169 154 -164 c 256
 161 -159 168 -157 176 -157 c 256
 183 -157 190 -159 195 -164 c 256
 202 -169 205 -175 205 -183 c 256
NamedP: "hr00"
668 -220 m 257
 280 -220 l 257
 287 -207 290 -192 290 -174 c 256
 290 -146 280 -123 259 -104 c 256
 238 -84 213 -74 184 -74 c 256
 151 -74 123 -85 98 -106 c 256
 71 -128 58 -154 58 -183 c 256
 58 -219 72 -250 100 -275 c 256
 126 -297 158 -308 195 -308 c 258
 668 -308 l 257
 668 -220 l 257
668 519 m 256
 668 556 657 585 634 608 c 256
 612 631 585 642 554 642 c 258
 54 642 l 257
 54 558 l 257
 509 558 l 258
 529 558 544 555 554 549 c 256
 565 542 570 529 570 512 c 256
 570 498 564 488 552 481 c 256
 543 476 530 474 513 474 c 258
 303 474 l 257
 303 390 l 257
 515 390 l 258
 560 390 597 402 626 427 c 256
 654 452 668 482 668 519 c 256
EndSplineSet
PickledDataWithLists: "(dp1
S'com.adobe.type.autohint'
p2
(S'data'
S'<data>\\n  <hintSetList>\\n    <hintset pointTag=\"hr00\">\\n      <hstem pos=\"-308\" width=\"88\"/>\\n      <hstem pos=\"-157\" width=\"83\"/>\\n      <hstem pos=\"390\" width=\"84\"/>\\n      <hstem pos=\"558\" width=\"84\"/>\\n      <vstem pos=\"58\" width=\"89\"/>\\n      <vstem pos=\"205\" width=\"85\"/>\\n      <vstem pos=\"570\" width=\"98\"/>\\n    </hintset>\\n  </hintSetList>\\n  </data>'
Ntp3
s."
EndChar

StartChar: uni0C4A
Encoding: 183 3146 183
GlifName: uni0C4A_
Width: 682
VWidth: 0
Flags: W
LayerCount: 2
Back
Fore
SplineSet
541 315 m 256
NamedP: "hr00"
 541 301 537 289 528 279 c 257
 521 269 509 264 494 264 c 256
 479 264 467 268 457 276 c 256
 444 285 438 297 438 311 c 256
 438 326 443 338 452 348 c 256
 462 359 474 364 488 364 c 256
 502 364 514 360 524 352 c 256
 535 343 540 330 541 315 c 256
NamedP: "hr00"
338 305 m 256
 338 268 349 236 371 211 c 256
 397 180 435 164 485 164 c 256
 546 164 591 185 619 228 c 256
 644 265 657 316 657 381 c 256
 657 430 645 477 620 521 c 256
 585 585 531 617 458 617 c 256
 432 617 407 611 384 600 c 256
 358 587 338 570 325 549 c 257
 308 582 278 608 234 627 c 256
 189 646 136 655 76 655 c 256
 11 655 -43 641 -87 614 c 256
 -132 587 -155 554 -155 514 c 256
 -155 489 -144 463 -123 438 c 256
 -97 406 -61 387 -14 381 c 257
 21 381 l 257
 21 466 l 257
 -4 466 l 257
 -23 469 -37 476 -44 485 c 256
 -50 493 -53 504 -53 517 c 256
 -53 531 -41 544 -16 555 c 256
 11 566 42 571 79 571 c 256
 128 571 171 558 206 531 c 256
 242 504 260 472 260 433 c 257
 363 433 l 257
 363 458 373 479 393 496 c 256
 412 511 435 519 461 519 c 256
 486 519 509 510 528 491 c 256
 550 470 561 444 561 415 c 257
 554 422 543 429 527 436 c 257
 512 440 497 442 482 442 c 256
 440 442 405 429 378 403 c 256
 351 378 338 345 338 305 c 256
EndSplineSet
PickledDataWithLists: "(dp1
S'com.adobe.type.autohint'
p2
(S'data'
S'<data>\\n  <hintSetList>\\n    <hintset pointTag=\"hr00\">\\n      <hstem pos=\"164\" width=\"100\"/>\\n      <hstem pos=\"364\" width=\"78\"/>\\n      <hstem pos=\"381\" width=\"85\"/>\\n      <hstem pos=\"519\" width=\"98\"/>\\n      <hstem pos=\"571\" width=\"84\"/>\\n      <vstem pos=\"-155\" width=\"102\"/>\\n      <vstem pos=\"260\" width=\"103\"/>\\n      <vstem pos=\"338\" width=\"100\"/>\\n      <vstem pos=\"561\" width=\"96\"/>\\n    </hintset>\\n  </hintSetList>\\n  </data>'
Ntp3
s."
EndChar

StartChar: uni0C4B
Encoding: 184 3147 184
GlifName: uni0C4B_
Width: 713
VWidth: 0
Flags: W
LayerCount: 2
Back
Fore
SplineSet
542 315 m 256
NamedP: "hr00"
 543 300 538 288 529 279 c 256
 520 269 508 264 494 264 c 256
 479 264 467 269 457 278 c 256
 445 287 439 298 439 311 c 256
 439 326 445 339 456 349 c 257
 465 359 476 364 489 364 c 256
 504 364 517 359 526 349 c 257
 536 340 542 329 542 315 c 256
NamedP: "hr00"
340 305 m 256
 340 266 354 233 382 206 c 256
 411 178 446 164 487 164 c 256
 540 164 580 184 610 223 c 256
 640 262 657 314 657 381 c 256
 657 437 641 486 613 528 c 256
 584 571 548 599 501 612 c 257
 497 619 l 257
 490 638 486 650 486 655 c 256
 486 673 490 687 499 696 c 256
 508 706 521 711 538 711 c 256
 550 711 561 705 571 693 c 256
 580 681 584 666 584 648 c 257
 688 648 l 257
 688 697 675 733 649 758 c 256
 622 784 585 797 538 797 c 256
 497 797 463 785 435 762 c 256
 408 739 394 710 394 676 c 256
 394 662 396 650 399 639 c 256
 402 628 407 619 413 612 c 257
 393 607 376 598 362 587 c 256
 347 575 336 564 327 549 c 257
 310 582 275 608 222 627 c 256
 168 646 105 655 33 655 c 256
 -20 655 -66 641 -105 614 c 256
 -143 587 -162 554 -162 514 c 256
 -162 481 -150 452 -125 426 c 256
 -102 401 -72 386 -35 381 c 257
 22 381 l 257
 22 466 l 257
 -11 466 l 257
 -25 469 -37 475 -46 484 c 256
 -55 495 -60 506 -60 517 c 256
 -60 531 -50 544 -31 555 c 256
 -12 566 11 571 38 571 c 256
 99 571 152 558 195 531 c 256
 238 504 260 472 260 433 c 257
 365 433 l 257
 365 457 375 478 394 495 c 256
 413 511 435 519 462 519 c 256
 489 519 514 510 533 490 c 256
 553 470 562 444 562 415 c 257
 553 423 542 430 529 436 c 257
 515 440 500 442 483 442 c 256
 443 442 409 428 381 401 c 256
 354 374 340 342 340 305 c 256
EndSplineSet
PickledDataWithLists: "(dp1
S'com.adobe.type.autohint'
p2
(S'data'
S'<data>\\n  <hintSetList>\\n    <hintset pointTag=\"hr00\">\\n      <hstem pos=\"164\" width=\"100\"/>\\n      <hstem pos=\"364\" width=\"78\"/>\\n      <hstem pos=\"381\" width=\"85\"/>\\n      <hstem pos=\"571\" width=\"84\"/>\\n      <hstem pos=\"648\" width=\"149\"/>\\n      <vstem pos=\"-162\" width=\"102\"/>\\n      <vstem pos=\"260\" width=\"105\"/>\\n      <vstem pos=\"340\" width=\"99\"/>\\n      <vstem pos=\"394\" width=\"92\"/>\\n      <vstem pos=\"562\" width=\"95\"/>\\n      <vstem pos=\"584\" width=\"104\"/>\\n    </hintset>\\n  </hintSetList>\\n  </data>'
Ntp3
s."
EndChar

StartChar: uni0C4C
Encoding: 185 3148 185
GlifName: uni0C4C_
Width: 693
VWidth: 0
Flags: W
LayerCount: 2
Back
Fore
SplineSet
547 349 m 256
NamedP: "hr00"
 547 336 543 325 535 316 c 257
 527 303 515 297 499 297 c 256
 485 297 473 301 463 310 c 257
 450 319 444 332 444 347 c 256
 444 361 449 372 458 381 c 256
 467 390 479 395 494 395 c 256
 508 395 520 392 529 385 c 256
 540 378 546 366 547 349 c 256
NamedP: "hr00"
338 338 m 256
 338 303 351 274 375 246 c 256
 404 214 442 197 493 197 c 256
 552 197 598 221 629 268 c 256
 655 308 668 357 668 416 c 256
 668 469 651 518 618 564 c 256
 578 619 525 646 460 646 c 258
 -209 646 l 257
 -209 548 l 257
 101 548 l 257
 109 541 115 534 118 527 c 256
 122 520 124 513 124 506 c 256
 124 495 120 486 113 477 c 256
 106 470 97 466 87 466 c 258
 -152 466 l 257
 -152 381 l 257
 114 381 l 258
 144 381 170 391 192 412 c 256
 213 433 223 460 223 491 c 256
 223 505 220 517 215 528 c 257
 212 541 206 550 199 554 c 257
 451 554 l 258
 480 554 507 542 531 519 c 256
 554 496 569 468 576 433 c 257
 569 442 559 450 545 456 c 256
 529 463 510 466 488 466 c 256
 445 466 410 455 383 433 c 256
 353 410 338 378 338 338 c 256
EndSplineSet
PickledDataWithLists: "(dp1
S'com.adobe.type.autohint'
p2
(S'data'
S'<data>\\n  <hintSetList>\\n    <hintset pointTag=\"hr00\">\\n      <hstem pos=\"197\" width=\"100\"/>\\n      <hstem pos=\"381\" width=\"85\"/>\\n      <hstem pos=\"395\" width=\"71\"/>\\n      <hstem pos=\"548\" width=\"98\"/>\\n      <vstem pos=\"-209\" width=\"877\"/>\\n      <vstem pos=\"124\" width=\"99\"/>\\n      <vstem pos=\"338\" width=\"106\"/>\\n      <vstem pos=\"547\" width=\"121\"/>\\n    </hintset>\\n  </hintSetList>\\n  </data>'
Ntp3
s."
EndChar

StartChar: uni0C4D
Encoding: 186 3149 186
GlifName: uni0C4D_
Width: 1
VWidth: 0
Flags: W
LayerCount: 2
Back
Fore
SplineSet
266 777 m 257
NamedP: "hr00"
 -89 777 l 258
 -124 777 -152 765 -174 741 c 256
 -197 716 -209 688 -209 655 c 256
 -209 632 -202 610 -184 591 c 256
 -172 577 -156 567 -139 559 c 257
 -151 554 -162 542 -173 524 c 256
 -184 508 -190 494 -190 481 c 256
 -190 454 -179 430 -157 410 c 256
 -138 391 -113 381 -83 381 c 258
 130 381 l 257
 130 466 l 257
 -47 466 l 258
 -54 466 -61 468 -68 473 c 256
 -74 478 -77 486 -77 496 c 256
 -77 503 -74 509 -68 514 c 256
 -60 521 -52 524 -44 524 c 258
 144 524 l 257
 144 614 l 257
 -58 614 l 258
 -68 614 -77 617 -86 622 c 257
 -95 629 -100 638 -100 648 c 256
 -100 658 -96 667 -87 674 c 256
 -78 680 -68 683 -58 683 c 258
 266 683 l 257
 266 777 l 257
NamedP: "hr00"
EndSplineSet
PickledDataWithLists: "(dp1
S'com.adobe.type.autohint'
p2
(S'data'
S'<data>\\n  <hintSetList>\\n    <hintset pointTag=\"hr00\">\\n      <hstem pos=\"381\" width=\"85\"/>\\n      <hstem pos=\"524\" width=\"90\"/>\\n      <hstem pos=\"683\" width=\"94\"/>\\n      <vstem pos=\"-209\" width=\"475\"/>\\n      <vstem pos=\"-209\" width=\"109\"/>\\n    </hintset>\\n  </hintSetList>\\n  </data>'
Ntp3
s."
EndChar

StartChar: uni0C55
Encoding: 187 3157 187
GlifName: uni0C55_
Width: 255
VWidth: 0
Flags: W
LayerCount: 2
Back
Fore
SplineSet
104 643 m 257
NamedP: "hr00"
 101 646 98 652 96 659 c 257
 95 668 94 675 94 681 c 256
 94 695 98 706 105 713 c 256
 113 722 126 727 143 727 c 256
 154 727 164 723 173 714 c 257
 183 707 189 698 190 688 c 257
 255 744 l 257
 248 770 230 790 201 804 c 256
 179 815 154 820 126 820 c 256
 92 820 63 808 38 783 c 256
 13 758 -1 729 0 697 c 256
 0 668 8 645 21 628 c 257
 104 643 l 257
NamedP: "hr00"
EndSplineSet
PickledDataWithLists: "(dp1
S'com.adobe.type.autohint'
p2
(S'data'
S'<data>\\n  <hintSetList>\\n    <hintset pointTag=\"hr00\">\\n      <hstem pos=\"628\" width=\"192\"/>\\n      <hstem pos=\"727\" width=\"93\"/>\\n      <vstem pos=\"0\" width=\"255\"/>\\n      <vstem pos=\"0\" width=\"94\"/>\\n    </hintset>\\n  </hintSetList>\\n  </data>'
Ntp3
s."
EndChar

StartChar: uni0C56
Encoding: 188 3158 188
GlifName: uni0C56_
Width: 0
VWidth: 0
Flags: W
LayerCount: 2
Back
Fore
SplineSet
147 -183 m 256
NamedP: "hr00"
 147 -192 145 -198 141 -202 c 257
 138 -209 132 -213 125 -213 c 256
 116 -213 107 -210 100 -205 c 256
 90 -198 85 -191 85 -183 c 256
 85 -175 89 -169 96 -164 c 256
 103 -159 110 -157 118 -157 c 256
 126 -157 132 -159 137 -164 c 256
 144 -169 147 -175 147 -183 c 256
NamedP: "hr00"
539 -220 m 257
 221 -220 l 257
 225 -214 228 -206 229 -197 c 256
 230 -191 231 -183 231 -174 c 256
 231 -145 220 -123 200 -104 c 256
 179 -85 155 -74 125 -74 c 256
 94 -74 65 -85 39 -106 c 256
 13 -128 0 -154 0 -183 c 256
 0 -220 14 -250 42 -275 c 256
 67 -297 99 -308 137 -308 c 258
 539 -308 l 257
 539 -220 l 257
EndSplineSet
PickledDataWithLists: "(dp1
S'com.adobe.type.autohint'
p2
(S'data'
S'<data>\\n  <hintSetList>\\n    <hintset pointTag=\"hr00\">\\n      <hstem pos=\"-308\" width=\"88\"/>\\n      <hstem pos=\"-157\" width=\"83\"/>\\n      <vstem pos=\"0\" width=\"85\"/>\\n      <vstem pos=\"147\" width=\"84\"/>\\n    </hintset>\\n  </hintSetList>\\n  </data>'
Ntp3
s."
EndChar

StartChar: uni0C58
Encoding: 189 3160 189
GlifName: uni0C58_
Width: 731
VWidth: 0
Flags: W
LayerCount: 2
Back
Fore
SplineSet
565 748 m 256
NamedP: "hr00"
 565 737 561 729 552 724 c 257
 545 717 535 713 523 713 c 256
 510 713 503 725 503 748 c 256
 503 768 513 778 534 778 c 256
 555 778 565 768 565 748 c 256
NamedP: "hr00"
641 748 m 256
 641 773 629 796 605 817 c 256
 581 838 554 849 523 849 c 256
 497 849 474 840 455 821 c 256
 436 802 426 780 426 755 c 256
 426 738 431 722 441 709 c 257
 94 709 l 257
 94 632 l 257
 511 632 l 258
 546 632 576 643 602 664 c 256
 628 686 641 714 641 748 c 256
544 473 m 258
 563 498 581 511 599 511 c 256
 624 511 640 506 647 495 c 257
 647 590 l 257
 631 597 615 601 599 601 c 256
 562 601 531 588 504 563 c 257
 446 490 l 258
 427 467 407 453 384 450 c 257
 366 450 l 257
 349 453 337 457 330 460 c 257
 315 469 307 483 307 500 c 256
 307 507 308 511 310 514 c 257
 206 514 l 257
 206 465 222 424 252 398 c 256
 281 374 314 361 355 361 c 258
 371 361 l 258
 443 361 494 358 524 349 c 256
 578 332 605 290 605 225 c 256
 605 194 599 165 586 138 c 256
 569 105 545 88 516 88 c 256
 479 88 461 112 461 160 c 257
 465 201 l 257
 345 201 l 257
 349 171 l 257
 349 121 331 96 294 96 c 256
 275 96 260 103 247 118 c 257
 236 135 231 154 231 174 c 256
 231 213 253 237 297 247 c 257
 297 322 l 257
 18 322 l 257
 18 227 l 257
 139 227 l 257
 124 213 117 190 117 159 c 256
 117 115 133 76 164 43 c 256
 196 10 234 -7 277 -7 c 256
 330 -7 370 10 397 44 c 257
 408 11 445 -6 507 -6 c 256
 566 -6 613 17 650 62 c 256
 687 108 706 161 706 222 c 256
 706 292 684 348 641 389 c 256
 606 424 567 444 524 447 c 257
 544 473 l 258
EndSplineSet
PickledDataWithLists: "(dp1
S'com.adobe.type.autohint'
p2
(S'data'
S'<data>\\n  <hintSetList>\\n    <hintset pointTag=\"hr00\">\\n      <hstem pos=\"-7\" width=\"103\"/>\\n      <hstem pos=\"-6\" width=\"94\"/>\\n      <hstem pos=\"227\" width=\"95\"/>\\n      <hstem pos=\"361\" width=\"89\"/>\\n      <hstem pos=\"511\" width=\"90\"/>\\n      <hstem pos=\"632\" width=\"77\"/>\\n      <hstem pos=\"778\" width=\"71\"/>\\n      <vstem pos=\"18\" width=\"279\"/>\\n      <vstem pos=\"117\" width=\"114\"/>\\n      <vstem pos=\"206\" width=\"101\"/>\\n      <vstem pos=\"349\" width=\"112\"/>\\n      <vstem pos=\"426\" width=\"77\"/>\\n      <vstem pos=\"565\" width=\"76\"/>\\n      <vstem pos=\"605\" width=\"101\"/>\\n    </hintset>\\n  </hintSetList>\\n  </data>'
Ntp3
s."
EndChar

StartChar: uni0C59
Encoding: 190 3161 190
GlifName: uni0C59_
Width: 598
VWidth: 0
Flags: W
LayerCount: 2
Back
Fore
SplineSet
556 131 m 256
NamedP: "hr00"
 556 145 555 160 552 175 c 257
 440 175 l 257
 449 160 l 257
 452 157 454 148 454 133 c 256
 454 121 449 110 439 99 c 257
 427 89 415 84 402 84 c 257
 370 87 357 109 357 137 c 257
 361 160 l 257
 265 160 l 257
 262 113 240 89 199 89 c 257
 171 92 148 110 148 137 c 256
 148 162 169 182 210 197 c 256
 261 216 290 232 297 247 c 257
 329 232 361 225 393 225 c 256
 432 225 466 237 495 260 c 257
 531 283 549 316 549 357 c 256
 549 412 522 448 468 466 c 256
 449 472 408 476 344 476 c 257
 344 378 l 257
 361 386 l 258
 369 390 379 390 392 390 c 256
 424 390 440 377 440 350 c 256
 440 325 414 306 386 306 c 256
 365 306 345 319 330 345 c 256
 303 392 290 416 287 417 c 257
 262 444 230 458 189 458 c 256
 148 458 110 442 73 409 c 256
 36 376 18 339 18 296 c 257
 128 296 l 257
 128 341 145 364 180 364 c 256
 208 364 222 350 222 321 c 256
 222 294 205 277 172 265 c 258
 83 233 l 257
 50 214 33 182 33 137 c 256
 33 98 47 63 77 35 c 256
 107 6 144 -7 183 -7 c 256
 224 -7 258 10 287 44 c 257
 316 7 354 -10 400 -5 c 257
 449 -5 488 8 515 35 c 256
 542 62 555 94 556 131 c 256
NamedP: "hr00"
497 666 m 256
 497 655 493 648 484 643 c 257
 477 636 467 632 455 632 c 256
 442 632 435 643 435 666 c 256
 435 687 445 697 466 697 c 256
 487 697 497 687 497 666 c 256
573 666 m 256
 573 691 561 714 537 735 c 256
 514 756 486 767 455 767 c 256
 403 767 359 725 359 674 c 256
 359 657 364 641 373 628 c 257
 27 628 l 257
 27 550 l 257
 444 550 l 258
 478 550 508 561 534 583 c 256
 560 605 573 633 573 666 c 256
EndSplineSet
PickledDataWithLists: "(dp1
S'com.adobe.type.autohint'
p2
(S'data'
S'<data>\\n  <hintSetList>\\n    <hintset pointTag=\"hr00\">\\n      <hstem pos=\"-7\" width=\"96\"/>\\n      <hstem pos=\"-5\" width=\"89\"/>\\n      <hstem pos=\"225\" width=\"81\"/>\\n      <hstem pos=\"364\" width=\"94\"/>\\n      <hstem pos=\"390\" width=\"86\"/>\\n      <hstem pos=\"550\" width=\"78\"/>\\n      <hstem pos=\"697\" width=\"70\"/>\\n      <vstem pos=\"18\" width=\"110\"/>\\n      <vstem pos=\"33\" width=\"115\"/>\\n      <vstem pos=\"265\" width=\"92\"/>\\n      <vstem pos=\"359\" width=\"76\"/>\\n      <vstem pos=\"440\" width=\"109\"/>\\n      <vstem pos=\"454\" width=\"102\"/>\\n      <vstem pos=\"497\" width=\"76\"/>\\n    </hintset>\\n  </hintSetList>\\n  </data>'
Ntp3
s."
EndChar

StartChar: uni0C60
Encoding: 191 3168 191
GlifName: uni0C60_
Width: 1471
VWidth: 0
Flags: W
LayerCount: 2
Back
Fore
SplineSet
520 47 m 257
NamedP: "hr00"
 549 11 592 -7 651 -7 c 256
 703 -7 748 13 787 53 c 257
 792 47 l 258
 823 9 869 -7 925 -7 c 256
 978 -7 1025 15 1065 59 c 256
 1106 103 1126 155 1126 216 c 256
 1126 269 1113 317 1088 359 c 257
 1233 359 l 257
 1294 355 l 257
 1309 351 1320 340 1329 323 c 257
 1315 328 1300 331 1285 331 c 256
 1249 331 1219 319 1195 296 c 256
 1169 271 1156 239 1156 200 c 256
 1156 167 1169 138 1195 112 c 256
 1221 87 1250 74 1281 74 c 256
 1328 74 1368 93 1399 130 c 256
 1431 167 1447 212 1447 265 c 256
 1447 302 1435 339 1412 375 c 256
 1379 425 1333 450 1274 450 c 258
 898 449 l 257
 898 359 l 257
 935 359 l 258
 968 359 994 343 1014 310 c 256
 1030 283 1038 256 1038 227 c 256
 1038 195 1029 164 1010 135 c 256
 992 106 970 91 943 91 c 256
 911 91 887 109 872 144 c 256
 869 150 862 170 851 205 c 257
 851 216 l 258
 851 283 833 338 798 382 c 256
 763 427 719 452 666 449 c 258
 624 447 l 257
 624 358 l 257
 660 359 l 258
 693 360 720 343 740 310 c 256
 755 285 763 258 763 227 c 256
 763 194 754 164 737 137 c 256
 718 106 696 91 669 91 c 256
 636 91 609 108 597 144 c 258
 578 201 l 257
 578 216 l 258
 578 284 560 339 524 382 c 256
 489 425 445 451 392 447 c 258
 351 444 l 257
 351 345 l 257
 364 351 376 354 387 354 c 256
 418 354 444 339 465 308 c 256
 482 283 491 256 491 227 c 256
 491 194 482 163 464 134 c 256
 446 105 424 90 399 90 c 257
 385 92 372 97 359 105 c 256
 342 116 333 130 333 148 c 258
 333 171 l 257
 234 171 l 257
 235 164 236 158 236 154 c 256
 236 143 236 136 235 131 c 256
 228 103 209 89 178 89 c 256
 142 89 120 112 120 137 c 256
 120 162 135 182 165 195 c 258
 249 232 l 257
 279 253 294 283 294 322 c 256
 294 398 243 447 167 447 c 256
 68 447 18 398 18 300 c 257
 102 300 l 257
 102 339 122 359 161 359 c 256
 190 359 204 346 204 320 c 256
 204 303 197 291 182 284 c 257
 134 270 l 258
 57 248 20 199 20 131 c 256
 20 92 32 60 57 36 c 257
 81 8 116 -6 161 -6 c 256
 209 -6 250 10 284 42 c 257
 304 21 315 10 318 9 c 256
 332 0 348 -4 365 -4 c 256
 425 -4 475 16 514 56 c 257
 520 47 l 257
NamedP: "hr00"
1334 209 m 257
 1331 181 1311 154 1284 154 c 256
 1257 154 1243 172 1243 207 c 256
 1243 239 1257 255 1284 255 c 256
 1327 255 1334 242 1334 209 c 257
EndSplineSet
PickledDataWithLists: "(dp1
S'com.adobe.type.autohint'
p2
(S'data'
S'<data>\\n  <hintSetList>\\n    <hintset pointTag=\"hr00\">\\n      <hstem pos=\"-7\" width=\"98\"/>\\n      <hstem pos=\"-4\" width=\"175\"/>\\n      <hstem pos=\"74\" width=\"80\"/>\\n      <hstem pos=\"255\" width=\"76\"/>\\n      <hstem pos=\"354\" width=\"93\"/>\\n      <hstem pos=\"359\" width=\"91\"/>\\n      <hstem pos=\"359\" width=\"88\"/>\\n      <vstem pos=\"18\" width=\"84\"/>\\n      <vstem pos=\"20\" width=\"100\"/>\\n      <vstem pos=\"204\" width=\"90\"/>\\n      <vstem pos=\"236\" width=\"97\"/>\\n      <vstem pos=\"491\" width=\"87\"/>\\n      <vstem pos=\"763\" width=\"88\"/>\\n      <vstem pos=\"1038\" width=\"88\"/>\\n      <vstem pos=\"1156\" width=\"87\"/>\\n      <vstem pos=\"1334\" width=\"113\"/>\\n    </hintset>\\n  </hintSetList>\\n  </data>'
Ntp3
s."
EndChar

StartChar: uni0C61
Encoding: 192 3169 192
GlifName: uni0C61_
Width: 1051
VWidth: 0
Flags: W
LayerCount: 2
Back
Fore
SplineSet
736 290 m 258
NamedP: "hr00"
 798 290 840 288 862 283 c 256
 885 278 904 267 921 248 c 257
 873 252 l 258
 781 260 727 199 727 115 c 256
 727 81 740 52 766 28 c 256
 793 3 822 -9 854 -9 c 256
 903 -9 943 10 976 48 c 256
 1009 86 1026 128 1026 175 c 256
 1026 272 988 336 911 365 c 257
 893 374 830 378 722 378 c 258
 566 378 l 257
 569 290 l 257
 569 243 l 257
 569 212 l 258
 569 187 561 163 546 138 c 256
 525 103 493 85 449 85 c 256
 409 85 383 99 371 128 c 256
 365 141 362 162 362 189 c 256
 362 218 393 247 441 259 c 256
 513 276 549 324 549 406 c 256
 549 449 533 485 500 512 c 256
 471 536 438 548 400 548 c 256
 370 548 343 541 320 528 c 256
 301 517 292 504 291 491 c 257
 275 528 237 547 176 547 c 256
 140 547 105 531 70 498 c 256
 35 466 18 428 18 385 c 256
 18 340 32 303 60 274 c 256
 79 253 122 243 189 243 c 257
 189 341 l 257
 182 338 170 336 155 336 c 256
 126 336 111 353 111 387 c 256
 111 404 117 421 128 437 c 257
 141 448 155 454 170 454 c 257
 199 451 224 426 225 410 c 258
 227 359 l 257
 320 359 l 257
 320 392 l 258
 320 409 330 422 345 437 c 257
 362 449 379 455 396 455 c 256
 431 455 449 436 449 398 c 256
 449 363 427 341 384 329 c 256
 306 307 267 262 267 195 c 256
 267 136 277 92 294 63 c 256
 322 16 374 -7 451 -7 c 256
 522 -7 579 18 619 69 c 256
 657 117 676 176 674 247 c 258
 673 290 l 257
 736 290 l 258
NamedP: "hr00"
911 132 m 256
 911 103 897 88 868 88 c 256
 841 88 827 102 827 130 c 256
 827 157 842 171 871 171 c 256
 898 171 911 158 911 132 c 256
EndSplineSet
PickledDataWithLists: "(dp1
S'com.adobe.type.autohint'
p2
(S'data'
S'<data>\\n  <hintSetList>\\n    <hintset pointTag=\"hr00\">\\n      <hstem pos=\"-9\" width=\"97\"/>\\n      <hstem pos=\"-7\" width=\"92\"/>\\n      <hstem pos=\"171\" width=\"81\"/>\\n      <hstem pos=\"243\" width=\"93\"/>\\n      <hstem pos=\"290\" width=\"88\"/>\\n      <hstem pos=\"359\" width=\"188\"/>\\n      <hstem pos=\"455\" width=\"93\"/>\\n      <vstem pos=\"18\" width=\"93\"/>\\n      <vstem pos=\"225\" width=\"95\"/>\\n      <vstem pos=\"267\" width=\"95\"/>\\n      <vstem pos=\"449\" width=\"100\"/>\\n      <vstem pos=\"569\" width=\"105\"/>\\n      <vstem pos=\"727\" width=\"100\"/>\\n      <vstem pos=\"911\" width=\"115\"/>\\n    </hintset>\\n  </hintSetList>\\n  </data>'
Ntp3
s."
EndChar

StartChar: uni0C62
Encoding: 193 3170 193
GlifName: uni0C62_
Width: 3
VWidth: 0
Flags: W
LayerCount: 2
Back
Fore
SplineSet
-108 -194 m 257
NamedP: "hr00"
 -108 -226 l 258
 -108 -241 -112 -255 -121 -269 c 256
 -133 -290 -152 -301 -178 -301 c 256
 -201 -301 -217 -292 -224 -275 c 256
 -227 -268 -229 -256 -229 -239 c 256
 -229 -223 -211 -206 -183 -199 c 256
 -141 -188 -120 -160 -120 -112 c 256
 -120 -87 -128 -65 -148 -49 c 256
 -164 -35 -184 -30 -206 -30 c 256
 -223 -30 -239 -33 -253 -39 c 257
 -264 -47 -270 -55 -271 -63 c 257
 -280 -42 -302 -31 -338 -31 c 256
 -359 -31 -379 -40 -400 -58 c 256
 -421 -77 -431 -99 -431 -125 c 256
 -431 -151 -423 -173 -406 -191 c 256
 -395 -202 -370 -207 -331 -207 c 257
 -331 -152 l 257
 -335 -153 -342 -154 -351 -154 c 256
 -368 -154 -377 -144 -377 -123 c 256
 -377 -112 -373 -103 -366 -94 c 256
 -359 -87 -350 -84 -341 -84 c 257
 -325 -87 -309 -102 -309 -111 c 258
 -309 -141 l 257
 -253 -141 l 257
 -253 -120 l 258
 -253 -112 -247 -103 -240 -94 c 257
 -229 -87 -219 -84 -210 -84 c 256
 -189 -84 -178 -95 -178 -117 c 256
 -178 -137 -191 -150 -216 -157 c 256
 -261 -171 -284 -198 -284 -237 c 256
 -284 -270 -278 -295 -268 -313 c 256
 -252 -341 -222 -355 -177 -355 c 256
 -132 -355 -99 -339 -77 -306 c 256
 -57 -277 -47 -240 -47 -194 c 257
 -108 -194 l 257
NamedP: "hr00"
EndSplineSet
PickledDataWithLists: "(dp1
S'com.adobe.type.autohint'
p2
(S'data'
S'<data>\\n  <hintSetList>\\n    <hintset pointTag=\"hr00\">\\n      <hstem pos=\"-355\" width=\"54\"/>\\n      <hstem pos=\"-207\" width=\"53\"/>\\n      <hstem pos=\"-141\" width=\"110\"/>\\n      <hstem pos=\"-84\" width=\"54\"/>\\n      <vstem pos=\"-431\" width=\"54\"/>\\n      <vstem pos=\"-309\" width=\"56\"/>\\n      <vstem pos=\"-284\" width=\"55\"/>\\n      <vstem pos=\"-178\" width=\"58\"/>\\n      <vstem pos=\"-108\" width=\"61\"/>\\n    </hintset>\\n  </hintSetList>\\n  </data>'
Ntp3
s."
EndChar

StartChar: uni0C63
Encoding: 194 3171 194
GlifName: uni0C63_
Width: 162
VWidth: 0
Flags: W
LayerCount: 2
Back
Fore
SplineSet
-14 -179 m 258
NamedP: "hr00"
 22 -179 47 -180 60 -182 c 256
 73 -185 84 -191 93 -202 c 257
 66 -201 l 258
 11 -199 -19 -231 -19 -280 c 256
 -19 -300 -12 -317 3 -331 c 256
 19 -345 36 -352 55 -352 c 256
 83 -352 106 -341 125 -319 c 256
 144 -297 154 -273 154 -246 c 256
 154 -189 132 -151 87 -134 c 256
 76 -130 40 -128 -23 -128 c 258
 -111 -128 l 257
 -110 -179 l 257
 -110 -206 l 257
 -110 -223 l 258
 -110 -238 -115 -253 -124 -266 c 256
 -137 -287 -157 -297 -182 -297 c 256
 -204 -297 -219 -289 -226 -273 c 256
 -229 -266 -231 -254 -231 -237 c 256
 -231 -221 -213 -204 -185 -197 c 256
 -144 -188 -123 -159 -123 -111 c 256
 -123 -86 -131 -65 -151 -49 c 256
 -167 -35 -187 -30 -209 -30 c 256
 -227 -30 -243 -33 -256 -39 c 257
 -267 -47 -272 -55 -272 -62 c 257
 -281 -41 -303 -31 -340 -31 c 256
 -361 -31 -382 -40 -401 -58 c 256
 -421 -77 -431 -99 -431 -125 c 256
 -431 -150 -423 -171 -406 -188 c 256
 -395 -200 -371 -206 -332 -206 c 257
 -332 -151 l 257
 -336 -152 -342 -153 -351 -153 c 256
 -369 -153 -378 -142 -378 -121 c 256
 -378 -111 -374 -102 -367 -94 c 256
 -360 -87 -351 -84 -342 -84 c 256
 -327 -85 -310 -99 -310 -110 c 258
 -310 -139 l 257
 -256 -139 l 257
 -256 -118 l 257
 -255 -110 -249 -102 -241 -94 c 257
 -231 -87 -222 -83 -213 -83 c 256
 -192 -83 -182 -94 -182 -116 c 256
 -182 -136 -194 -148 -218 -155 c 256
 -263 -167 -285 -195 -285 -234 c 256
 -285 -267 -281 -293 -271 -310 c 256
 -255 -337 -224 -350 -179 -350 c 256
 -138 -350 -105 -337 -82 -307 c 256
 -60 -280 -48 -245 -50 -205 c 258
 -51 -179 l 257
 -14 -179 l 258
NamedP: "hr00"
87 -270 m 256
 87 -287 78 -296 61 -296 c 256
 46 -296 39 -288 39 -273 c 256
 39 -256 48 -248 65 -248 c 256
 80 -248 87 -255 87 -270 c 256
EndSplineSet
PickledDataWithLists: "(dp1
S'com.adobe.type.autohint'
p2
(S'data'
S'<data>\\n  <hintSetList>\\n    <hintset pointTag=\"hr00\">\\n      <hstem pos=\"-350\" width=\"53\"/>\\n      <hstem pos=\"-248\" width=\"47\"/>\\n      <hstem pos=\"-206\" width=\"53\"/>\\n      <hstem pos=\"-179\" width=\"51\"/>\\n      <hstem pos=\"-139\" width=\"108\"/>\\n      <hstem pos=\"-83\" width=\"53\"/>\\n      <vstem pos=\"-431\" width=\"53\"/>\\n      <vstem pos=\"-310\" width=\"54\"/>\\n      <vstem pos=\"-285\" width=\"54\"/>\\n      <vstem pos=\"-182\" width=\"59\"/>\\n      <vstem pos=\"-110\" width=\"60\"/>\\n      <vstem pos=\"-19\" width=\"58\"/>\\n      <vstem pos=\"87\" width=\"67\"/>\\n    </hintset>\\n  </hintSetList>\\n  </data>'
Ntp3
s."
EndChar

StartChar: uni0C66
Encoding: 195 3174 195
GlifName: uni0C66_
Width: 514
VWidth: 0
Flags: W
LayerCount: 2
Back
Fore
SplineSet
380 226 m 256
NamedP: "hr00"
 380 187 366 155 338 130 c 256
 310 105 276 93 237 93 c 256
 198 93 164 105 137 130 c 256
 109 155 95 187 95 226 c 256
 95 265 109 298 137 326 c 256
 165 355 198 369 237 369 c 256
 276 369 308 355 337 326 c 256
 366 297 380 265 380 226 c 256
NamedP: "hr00"
474 226 m 256
 474 291 451 347 405 393 c 256
 359 440 303 463 237 463 c 256
 171 463 115 440 69 393 c 256
 23 347 0 291 0 226 c 256
 0 157 22 99 67 52 c 256
 112 4 168 -20 237 -20 c 256
 304 -20 361 4 406 53 c 256
 451 101 474 159 474 226 c 256
EndSplineSet
PickledDataWithLists: "(dp1
S'com.adobe.type.autohint'
p2
(S'data'
S'<data>\\n  <hintSetList>\\n    <hintset pointTag=\"hr00\">\\n      <hstem pos=\"-20\" width=\"113\"/>\\n      <hstem pos=\"369\" width=\"94\"/>\\n      <vstem pos=\"0\" width=\"95\"/>\\n      <vstem pos=\"380\" width=\"94\"/>\\n    </hintset>\\n  </hintSetList>\\n  </data>'
Ntp3
s."
EndChar

StartChar: uni0C67
Encoding: 196 3175 196
GlifName: uni0C67_
Width: 531
VWidth: 0
Flags: W
LayerCount: 2
Back
Fore
SplineSet
492 212 m 256
NamedP: "hr00"
 492 282 468 341 421 390 c 256
 374 439 315 463 246 463 c 256
 177 463 118 439 71 390 c 256
 24 341 0 282 0 212 c 256
 0 121 31 46 93 -15 c 257
 167 46 l 257
 119 94 95 149 95 212 c 256
 95 253 110 290 140 321 c 256
 170 353 205 369 246 369 c 256
 287 369 322 353 352 321 c 256
 382 290 397 253 397 212 c 256
 397 149 373 94 326 46 c 257
 400 -15 l 257
 461 46 492 121 492 212 c 256
NamedP: "hr00"
EndSplineSet
PickledDataWithLists: "(dp1
S'com.adobe.type.autohint'
p2
(S'data'
S'<data>\\n  <hintSetList>\\n    <hintset pointTag=\"hr00\">\\n      <hstem pos=\"369\" width=\"94\"/>\\n      <vstem pos=\"0\" width=\"95\"/>\\n      <vstem pos=\"397\" width=\"95\"/>\\n    </hintset>\\n  </hintSetList>\\n  </data>'
Ntp3
s."
EndChar

StartChar: uni0C68
Encoding: 197 3176 197
GlifName: uni0C68_
Width: 611
VWidth: 0
Flags: W
LayerCount: 2
Back
Fore
SplineSet
376 361 m 257
NamedP: "hr00"
 372 329 356 313 329 313 c 256
 313 313 300 327 300 343 c 256
 300 359 313 374 329 374 c 256
 350 374 365 370 376 361 c 257
NamedP: "hr00"
561 226 m 256
 561 290 538 345 493 390 c 256
 448 435 394 458 329 458 c 256
 298 458 272 447 249 424 c 256
 226 402 215 375 215 343 c 256
 215 312 226 285 249 262 c 256
 272 239 298 228 329 228 c 256
 385 228 431 272 440 320 c 257
 465 299 477 268 477 226 c 256
 477 184 463 151 434 125 c 256
 407 100 372 88 329 88 c 258
 0 88 l 257
 0 -15 l 257
 329 -15 l 258
 396 -15 451 8 495 55 c 256
 539 102 561 159 561 226 c 256
EndSplineSet
PickledDataWithLists: "(dp1
S'com.adobe.type.autohint'
p2
(S'data'
S'<data>\\n  <hintSetList>\\n    <hintset pointTag=\"hr00\">\\n      <hstem pos=\"-15\" width=\"103\"/>\\n      <hstem pos=\"228\" width=\"85\"/>\\n      <hstem pos=\"374\" width=\"84\"/>\\n      <vstem pos=\"215\" width=\"85\"/>\\n      <vstem pos=\"477\" width=\"84\"/>\\n    </hintset>\\n  </hintSetList>\\n  </data>'
Ntp3
s."
EndChar

StartChar: uni0C69
Encoding: 198 3177 198
GlifName: uni0C69_
Width: 425
VWidth: 0
Flags: W
LayerCount: 2
Back
Fore
SplineSet
376 136 m 256
NamedP: "hr00"
 376 183 365 213 343 226 c 257
 365 241 376 271 376 316 c 256
 376 365 355 401 313 427 c 256
 280 447 238 458 189 458 c 256
 140 458 98 449 63 427 c 256
 21 401 0 361 0 310 c 257
 85 310 l 257
 85 333 97 350 121 361 c 256
 140 370 162 374 189 374 c 256
 215 374 237 370 255 361 c 257
 279 352 291 337 291 316 c 256
 291 288 275 268 247 268 c 258
 137 268 l 257
 137 183 l 257
 247 183 l 258
 276 183 291 167 291 136 c 256
 291 104 257 88 189 88 c 256
 120 88 85 106 85 142 c 257
 0 142 l 257
 0 89 20 48 60 21 c 256
 95 -3 138 -15 189 -15 c 256
 240 -15 282 -3 316 20 c 256
 356 47 376 85 376 136 c 256
NamedP: "hr00"
EndSplineSet
PickledDataWithLists: "(dp1
S'com.adobe.type.autohint'
p2
(S'data'
S'<data>\\n  <hintSetList>\\n    <hintset pointTag=\"hr00\">\\n      <hstem pos=\"-15\" width=\"103\"/>\\n      <hstem pos=\"183\" width=\"85\"/>\\n      <hstem pos=\"374\" width=\"84\"/>\\n      <vstem pos=\"0\" width=\"85\"/>\\n      <vstem pos=\"291\" width=\"85\"/>\\n    </hintset>\\n  </hintSetList>\\n  </data>'
Ntp3
s."
EndChar

StartChar: uni0C6A
Encoding: 199 3178 199
GlifName: uni0C6A_
Width: 572
VWidth: 0
Flags: W
LayerCount: 2
Back
Fore
SplineSet
291 109 m 256
NamedP: "hr00"
 291 92 278 79 262 79 c 256
 245 79 231 92 231 109 c 256
 231 125 245 138 262 138 c 256
 278 138 291 125 291 109 c 256
NamedP: "hr00"
522 353 m 256
 522 410 476 458 411 458 c 257
 398 382 l 257
 423 382 434 369 434 353 c 256
 434 312 413 280 371 255 c 256
 335 233 299 222 263 222 c 256
 227 222 190 233 153 255 c 256
 110 280 88 312 88 353 c 256
 88 369 100 382 125 382 c 257
 112 458 l 257
 45 458 0 410 0 353 c 256
 0 307 16 264 49 225 c 256
 80 188 116 165 155 154 c 257
 150 145 147 130 147 109 c 256
 147 72 156 42 175 20 c 256
 196 -3 225 -15 262 -15 c 256
 296 -15 324 -3 345 21 c 256
 365 44 375 74 375 109 c 256
 375 128 372 143 365 154 c 257
 406 165 442 188 473 225 c 256
 506 264 522 307 522 353 c 256
EndSplineSet
PickledDataWithLists: "(dp1
S'com.adobe.type.autohint'
p2
(S'data'
S'<data>\\n  <hintSetList>\\n    <hintset pointTag=\"hr00\">\\n      <hstem pos=\"-15\" width=\"94\"/>\\n      <hstem pos=\"138\" width=\"84\"/>\\n      <hstem pos=\"382\" width=\"76\"/>\\n      <vstem pos=\"0\" width=\"88\"/>\\n      <vstem pos=\"147\" width=\"84\"/>\\n      <vstem pos=\"291\" width=\"84\"/>\\n      <vstem pos=\"434\" width=\"88\"/>\\n    </hintset>\\n  </hintSetList>\\n  </data>'
Ntp3
s."
EndChar

StartChar: uni0C6B
Encoding: 200 3179 200
GlifName: uni0C6B_
Width: 546
VWidth: 0
Flags: W
LayerCount: 2
Back
Fore
SplineSet
333 -12 m 257
NamedP: "hr00"
 341 -12 l 258
 380 -12 415 2 445 31 c 256
 475 61 490 96 490 136 c 256
 490 153 487 171 480 190 c 256
 473 207 463 222 450 237 c 257
 466 260 478 281 485 301 c 256
 493 322 497 341 497 357 c 256
 497 389 485 415 463 438 c 256
 441 460 415 473 382 473 c 256
 352 473 325 462 302 440 c 256
 279 419 268 394 268 365 c 256
 268 341 276 316 291 291 c 256
 306 266 326 244 353 226 c 257
 331 187 293 152 239 121 c 257
 246 131 251 145 255 164 c 256
 258 182 260 203 260 228 c 256
 260 294 240 350 199 396 c 256
 158 443 108 466 49 466 c 256
 41 466 34 464 27 461 c 257
 27 391 l 257
 30 390 34 390 38 390 c 256
 73 394 101 380 121 349 c 256
 142 317 152 277 152 228 c 256
 152 172 142 130 121 101 c 256
 100 72 70 54 30 52 c 256
 21 51 14 49 9 43 c 256
 3 36 0 28 0 19 c 256
 0 10 4 3 12 -2 c 256
 19 -7 28 -10 39 -10 c 256
 112 -10 181 6 244 38 c 256
 309 70 358 112 392 165 c 257
 401 154 404 151 402 155 c 256
 404 148 405 140 405 132 c 256
 405 111 397 91 382 74 c 256
 368 59 352 53 333 56 c 257
 333 -12 l 257
NamedP: "hr00"
400 315 m 256
 398 303 395 294 390 287 c 257
 379 295 370 306 364 320 c 256
 358 335 355 350 355 365 c 256
 355 376 358 385 364 392 c 257
 367 399 373 403 382 403 c 256
 388 403 393 399 398 390 c 257
 401 382 403 371 403 357 c 256
 403 342 402 328 400 315 c 256
EndSplineSet
PickledDataWithLists: "(dp1
S'com.adobe.type.autohint'
p2
(S'data'
S'<data>\\n  <hintSetList>\\n    <hintset pointTag=\"hr00\">\\n      <hstem pos=\"-12\" width=\"68\"/>\\n      <hstem pos=\"-10\" width=\"62\"/>\\n      <hstem pos=\"390\" width=\"76\"/>\\n      <hstem pos=\"403\" width=\"70\"/>\\n      <vstem pos=\"152\" width=\"108\"/>\\n      <vstem pos=\"268\" width=\"87\"/>\\n      <vstem pos=\"403\" width=\"94\"/>\\n      <vstem pos=\"405\" width=\"85\"/>\\n    </hintset>\\n  </hintSetList>\\n  </data>'
Ntp3
s."
EndChar

StartChar: uni0C6C
Encoding: 201 3180 201
GlifName: uni0C6C_
Width: 546
VWidth: 0
Flags: W
LayerCount: 2
Back
Fore
SplineSet
497 88 m 257
NamedP: "hr00"
 136 88 l 258
 123 88 111 92 101 100 c 257
 90 107 85 117 85 130 c 256
 85 159 108 183 136 183 c 258
 279 183 l 257
 279 268 l 257
 136 268 l 258
 107 268 85 291 85 322 c 256
 85 351 107 374 136 374 c 258
 226 374 l 257
 226 458 l 257
 136 458 l 258
 98 458 66 445 39 418 c 256
 13 392 0 360 0 322 c 256
 0 283 14 250 41 225 c 257
 14 205 0 173 0 130 c 256
 0 92 13 59 38 30 c 256
 65 0 98 -15 136 -15 c 258
 497 -15 l 257
 497 88 l 257
NamedP: "hr00"
EndSplineSet
PickledDataWithLists: "(dp1
S'com.adobe.type.autohint'
p2
(S'data'
S'<data>\\n  <hintSetList>\\n    <hintset pointTag=\"hr00\">\\n      <hstem pos=\"-15\" width=\"103\"/>\\n      <hstem pos=\"183\" width=\"85\"/>\\n      <hstem pos=\"374\" width=\"84\"/>\\n      <vstem pos=\"0\" width=\"85\"/>\\n    </hintset>\\n  </hintSetList>\\n  </data>'
Ntp3
s."
EndChar

StartChar: uni0C6D
Encoding: 202 3181 202
GlifName: uni0C6D_
Width: 465
VWidth: 0
Flags: W
LayerCount: 2
Back
Fore
SplineSet
331 146 m 257
NamedP: "hr00"
 331 109 290 90 207 90 c 256
 129 90 90 106 90 137 c 256
 90 156 104 169 132 176 c 256
 147 179 173 181 210 181 c 256
 272 181 318 187 349 200 c 256
 397 221 421 259 421 316 c 256
 421 368 397 407 348 432 c 256
 311 451 265 460 210 460 c 256
 157 460 111 451 73 431 c 256
 23 405 0 363 0 307 c 257
 90 307 l 257
 90 332 104 349 133 359 c 256
 154 366 180 371 210 371 c 256
 291 371 331 353 331 316 c 256
 331 296 317 283 289 276 c 256
 273 272 247 270 210 270 c 256
 148 270 102 265 72 252 c 256
 24 232 0 193 0 137 c 256
 0 81 23 38 69 12 c 256
 104 -8 151 -17 210 -17 c 256
 267 -17 313 -6 350 15 c 256
 397 43 421 87 421 146 c 257
 331 146 l 257
NamedP: "hr00"
EndSplineSet
PickledDataWithLists: "(dp1
S'com.adobe.type.autohint'
p2
(S'data'
S'<data>\\n  <hintSetList>\\n    <hintset pointTag=\"hr00\">\\n      <hstem pos=\"-17\" width=\"107\"/>\\n      <hstem pos=\"181\" width=\"89\"/>\\n      <hstem pos=\"371\" width=\"89\"/>\\n      <vstem pos=\"0\" width=\"90\"/>\\n      <vstem pos=\"331\" width=\"90\"/>\\n    </hintset>\\n  </hintSetList>\\n  </data>'
Ntp3
s."
EndChar

StartChar: uni0C6E
Encoding: 203 3182 203
GlifName: uni0C6E_
Width: 588
VWidth: 0
Flags: W
LayerCount: 2
Back
Fore
SplineSet
543 460 m 257
NamedP: "hr00"
 226 460 l 257
 226 371 l 257
 272 371 308 357 337 328 c 256
 366 299 380 266 380 226 c 256
 380 187 366 154 337 128 c 256
 309 103 275 90 234 90 c 256
 194 90 160 103 132 128 c 256
 104 154 90 187 90 226 c 256
 90 265 106 301 137 333 c 257
 75 398 l 257
 25 348 0 291 0 226 c 256
 0 157 22 100 65 54 c 256
 110 7 166 -17 234 -17 c 256
 302 -17 358 7 402 54 c 256
 447 101 469 159 469 226 c 256
 469 255 463 284 452 313 c 256
 440 344 429 363 419 371 c 257
 543 371 l 257
 543 460 l 257
NamedP: "hr00"
EndSplineSet
PickledDataWithLists: "(dp1
S'com.adobe.type.autohint'
p2
(S'data'
S'<data>\\n  <hintSetList>\\n    <hintset pointTag=\"hr00\">\\n      <hstem pos=\"-17\" width=\"107\"/>\\n      <hstem pos=\"371\" width=\"89\"/>\\n      <vstem pos=\"0\" width=\"90\"/>\\n      <vstem pos=\"380\" width=\"89\"/>\\n    </hintset>\\n  </hintSetList>\\n  </data>'
Ntp3
s."
EndChar

StartChar: uni0C6F
Encoding: 204 3183 204
GlifName: uni0C6F_
Width: 541
VWidth: 0
Flags: W
LayerCount: 2
Back
Fore
SplineSet
492 458 m 257
NamedP: "hr00"
 136 458 l 258
 98 458 66 445 39 418 c 256
 13 392 0 360 0 322 c 256
 0 279 14 247 41 227 c 257
 14 202 0 169 0 130 c 256
 0 92 13 59 38 30 c 256
 65 0 98 -15 136 -15 c 258
 226 -15 l 257
 226 88 l 257
 136 88 l 258
 122 88 110 92 100 99 c 256
 90 106 85 117 85 130 c 256
 85 161 107 184 136 184 c 258
 279 184 l 257
 279 269 l 257
 136 269 l 258
 108 269 85 294 85 322 c 256
 85 350 108 374 136 374 c 258
 492 374 l 257
 492 458 l 257
NamedP: "hr00"
EndSplineSet
PickledDataWithLists: "(dp1
S'com.adobe.type.autohint'
p2
(S'data'
S'<data>\\n  <hintSetList>\\n    <hintset pointTag=\"hr00\">\\n      <hstem pos=\"-15\" width=\"103\"/>\\n      <hstem pos=\"184\" width=\"85\"/>\\n      <hstem pos=\"374\" width=\"84\"/>\\n      <vstem pos=\"0\" width=\"85\"/>\\n    </hintset>\\n  </hintSetList>\\n  </data>'
Ntp3
s."
EndChar

StartChar: uni0C78
Encoding: 205 3192 205
GlifName: uni0C78_
Width: 467
VWidth: 0
Flags: W
LayerCount: 2
Back
Fore
SplineSet
341 402 m 256
NamedP: "hr00"
 341 334 287 295 229 295 c 256
 168 295 118 338 118 402 c 256
 118 471 171 519 229 519 c 256
 286 519 341 471 341 402 c 256
NamedP: "hr00"
193 -38 m 257
 238 -18 293 -1 346 31 c 256
 400 64 445 103 446 148 c 256
 448 195 392 230 362 243 c 257
 403 276 432 335 432 402 c 256
 432 509 345 601 229 601 c 256
 113 601 25 509 25 402 c 256
 25 289 108 195 229 195 c 256
 237 195 244 195 251 196 c 257
 310 182 357 173 353 148 c 257
 353 125 311 97 260 72 c 256
 209 47 167 30 143 23 c 257
 193 -38 l 257
EndSplineSet
PickledDataWithLists: "(dp1
S'com.adobe.type.autohint'
p2
(S'data'
S'<data>\\n  <hintSetList>\\n    <hintset pointTag=\"hr00\">\\n      <hstem pos=\"195\" width=\"100\"/>\\n      <hstem pos=\"519\" width=\"82\"/>\\n      <vstem pos=\"25\" width=\"93\"/>\\n      <vstem pos=\"341\" width=\"91\"/>\\n      <vstem pos=\"353\" width=\"93\"/>\\n    </hintset>\\n  </hintSetList>\\n  </data>'
Ntp3
s."
EndChar

StartChar: uni0C79
Encoding: 206 3193 206
GlifName: uni0C79_
Width: 270
VWidth: 0
Flags: W
LayerCount: 2
Back
Fore
SplineSet
98 -5 m 257
NamedP: "hr00"
 191 -5 l 257
 191 592 l 257
 98 592 l 257
 98 -5 l 257
NamedP: "hr00"
EndSplineSet
PickledDataWithLists: "(dp1
S'com.adobe.type.autohint'
p2
(S'data'
S'<data>\\n  <hintSetList>\\n    <hintset pointTag=\"hr00\">\\n      <hstem pos=\"-5\" width=\"597\"/>\\n      <vstem pos=\"98\" width=\"93\"/>\\n    </hintset>\\n  </hintSetList>\\n  </data>'
Ntp3
s."
EndChar

StartChar: uni0C7A
Encoding: 207 3194 207
GlifName: uni0C7A_
Width: 424
VWidth: 0
Flags: W
LayerCount: 2
Back
Fore
SplineSet
371 592 m 257
NamedP: "hr00"
 278 592 l 257
 278 321 l 257
 262 313 232 303 204 303 c 256
 173 303 137 319 137 379 c 258
 137 592 l 257
 44 592 l 257
 44 371 l 258
 44 276 119 221 195 221 c 256
 234 221 274 231 278 232 c 257
 278 -5 l 257
 371 -5 l 257
 371 592 l 257
NamedP: "hr00"
EndSplineSet
PickledDataWithLists: "(dp1
S'com.adobe.type.autohint'
p2
(S'data'
S'<data>\\n  <hintSetList>\\n    <hintset pointTag=\"hr00\">\\n      <hstem pos=\"221\" width=\"82\"/>\\n      <vstem pos=\"44\" width=\"93\"/>\\n      <vstem pos=\"278\" width=\"93\"/>\\n    </hintset>\\n  </hintSetList>\\n  </data>'
Ntp3
s."
EndChar

StartChar: uni0C7B
Encoding: 208 3195 208
GlifName: uni0C7B_
Width: 658
VWidth: 0
Flags: W
LayerCount: 2
Back
Fore
SplineSet
605 592 m 257
NamedP: "hr00"
 514 592 l 257
 514 321 l 257
 498 313 468 303 439 303 c 256
 409 303 371 318 371 365 c 258
 371 592 l 257
 278 592 l 257
 278 363 l 258
 278 316 233 303 204 303 c 256
 173 303 137 319 137 379 c 258
 137 592 l 257
 44 592 l 257
 44 371 l 258
 44 276 119 221 195 221 c 256
 254 221 300 240 324 255 c 257
 329 252 349 239 369 232 c 256
 390 225 410 221 430 221 c 256
 469 221 507 231 514 232 c 257
 514 -5 l 257
 605 -5 l 257
 605 592 l 257
NamedP: "hr00"
EndSplineSet
PickledDataWithLists: "(dp1
S'com.adobe.type.autohint'
p2
(S'data'
S'<data>\\n  <hintSetList>\\n    <hintset pointTag=\"hr00\">\\n      <hstem pos=\"221\" width=\"82\"/>\\n      <vstem pos=\"44\" width=\"93\"/>\\n      <vstem pos=\"278\" width=\"93\"/>\\n      <vstem pos=\"514\" width=\"91\"/>\\n    </hintset>\\n  </hintSetList>\\n  </data>'
Ntp3
s."
EndChar

StartChar: uni0C7C
Encoding: 209 3196 209
GlifName: uni0C7C_
Width: 629
VWidth: 0
Flags: W
LayerCount: 2
Back
Fore
SplineSet
612 248 m 257
NamedP: "hr00"
 612 331 l 257
 35 331 l 257
 35 248 l 257
 612 248 l 257
NamedP: "hr00"
EndSplineSet
PickledDataWithLists: "(dp1
S'com.adobe.type.autohint'
p2
(S'data'
S'<data>\\n  <hintSetList>\\n    <hintset pointTag=\"hr00\">\\n      <hstem pos=\"248\" width=\"83\"/>\\n      <vstem pos=\"35\" width=\"577\"/>\\n    </hintset>\\n  </hintSetList>\\n  </data>'
Ntp3
s."
EndChar

StartChar: uni0C7D
Encoding: 210 3197 210
GlifName: uni0C7D_
Width: 724
VWidth: 0
Flags: W
LayerCount: 2
Back
Fore
SplineSet
715 95 m 257
NamedP: "hr00"
 305 95 l 258
 254 95 168 98 173 121 c 257
 173 147 258 169 328 183 c 256
 411 199 487 232 487 318 c 256
 487 386 432 429 332 429 c 258
 91 429 l 257
 91 348 l 257
 332 348 l 258
 375 348 395 342 395 317 c 256
 395 289 373 280 289 257 c 256
 166 224 80 203 80 115 c 256
 80 3 209 -5 306 -5 c 258
 715 -5 l 257
 715 95 l 257
NamedP: "hr00"
EndSplineSet
PickledDataWithLists: "(dp1
S'com.adobe.type.autohint'
p2
(S'data'
S'<data>\\n  <hintSetList>\\n    <hintset pointTag=\"hr00\">\\n      <hstem pos=\"-5\" width=\"100\"/>\\n      <hstem pos=\"348\" width=\"81\"/>\\n      <vstem pos=\"80\" width=\"93\"/>\\n      <vstem pos=\"395\" width=\"92\"/>\\n    </hintset>\\n  </hintSetList>\\n  </data>'
Ntp3
s."
EndChar

StartChar: uni0C7E
Encoding: 211 3198 211
GlifName: uni0C7E_
Width: 787
VWidth: 0
Flags: W
LayerCount: 2
Back
Fore
SplineSet
778 95 m 257
NamedP: "hr00"
 317 95 l 258
 270 95 186 102 195 112 c 257
 195 119 210 120 249 123 c 256
 320 129 423 134 424 234 c 256
 424 303 357 322 259 322 c 256
 187 322 173 332 173 338 c 257
 167 348 208 347 264 353 c 256
 327 359 401 373 401 459 c 256
 401 527 334 549 237 549 c 258
 85 549 l 257
 85 468 l 257
 237 468 l 258
 284 468 308 463 308 449 c 257
 312 431 258 436 194 428 c 256
 125 419 80 395 80 324 c 256
 80 246 212 241 258 241 c 256
 291 241 332 234 332 223 c 256
 332 207 291 212 227 204 c 256
 159 195 102 175 102 99 c 256
 102 -2 224 -5 318 -5 c 258
 778 -5 l 257
 778 95 l 257
NamedP: "hr00"
EndSplineSet
PickledDataWithLists: "(dp1
S'com.adobe.type.autohint'
p2
(S'data'
S'<data>\\n  <hintSetList>\\n    <hintset pointTag=\"hr00\">\\n      <hstem pos=\"-5\" width=\"100\"/>\\n      <hstem pos=\"241\" width=\"81\"/>\\n      <hstem pos=\"468\" width=\"81\"/>\\n      <vstem pos=\"80\" width=\"93\"/>\\n      <vstem pos=\"102\" width=\"93\"/>\\n      <vstem pos=\"308\" width=\"93\"/>\\n      <vstem pos=\"332\" width=\"92\"/>\\n    </hintset>\\n  </hintSetList>\\n  </data>'
Ntp3
s."
EndChar

StartChar: uni0C7F
Encoding: 212 3199 212
GlifName: uni0C7F_
Width: 836
VWidth: 0
Flags: W
LayerCount: 2
Back
Fore
SplineSet
88 384 m 257
NamedP: "hr00"
 89 377 90 370 94 361 c 256
 112 317 151 289 205 289 c 256
 254 289 328 329 328 406 c 256
 328 426 326 444 321 461 c 256
 315 480 308 494 297 505 c 256
 273 529 239 544 192 544 c 256
 161 544 134 541 109 528 c 256
 38 491 0 422 0 332 c 256
 0 227 46 136 98 95 c 256
 150 54 184 35 236 19 c 256
 283 4 334 -4 389 -4 c 256
 489 -4 576 23 676 99 c 256
 723 135 763 184 798 247 c 257
 806 265 l 257
 724 305 l 257
 717 294 l 257
 693 263 672 237 653 217 c 256
 606 166 550 126 459 101 c 257
 432 98 428 96 389 96 c 256
 300 96 224 114 171 149 c 256
 118 184 83 257 83 332 c 256
 83 346 84 358 85 369 c 256
 85 374 86 379 88 384 c 257
NamedP: "hr00"
247 417 m 256
 247 382 229 364 205 364 c 256
 176 364 158 383 158 419 c 256
 158 439 175 473 202 473 c 256
 228 473 247 438 247 417 c 256
EndSplineSet
PickledDataWithLists: "(dp1
S'com.adobe.type.autohint'
p2
(S'data'
S'<data>\\n  <hintSetList>\\n    <hintset pointTag=\"hr00\">\\n      <hstem pos=\"-4\" width=\"100\"/>\\n      <hstem pos=\"289\" width=\"75\"/>\\n      <hstem pos=\"473\" width=\"71\"/>\\n      <vstem pos=\"0\" width=\"83\"/>\\n      <vstem pos=\"247\" width=\"81\"/>\\n    </hintset>\\n  </hintSetList>\\n  </data>'
Ntp3
s."
EndChar

StartChar: afii61664
Encoding: 213 8204 213
GlifName: afii61664
Width: 0
VWidth: 0
Flags: W
LayerCount: 2
Back
Fore
SplineSet
54 -320 m 257
NamedP: "hr00"
 54 751 l 257
 0 751 l 257
 0 -320 l 257
 54 -320 l 257
NamedP: "hr00"
EndSplineSet
PickledDataWithLists: "(dp1
S'com.adobe.type.autohint'
p2
(S'data'
S'<data>\\n  <hintSetList>\\n    <hintset pointTag=\"hr00\">\\n      <hstem pos=\"-320\" width=\"1071\"/>\\n      <vstem pos=\"0\" width=\"54\"/>\\n    </hintset>\\n  </hintSetList>\\n  </data>'
Ntp3
s."
EndChar

StartChar: afii301
Encoding: 214 8205 214
GlifName: afii301
Width: 0
VWidth: 0
Flags: W
LayerCount: 2
Back
Fore
SplineSet
54 -320 m 257
NamedP: "hr00"
 54 706 l 257
 206 706 l 257
 206 751 l 257
 0 751 l 257
 0 -320 l 257
 54 -320 l 257
NamedP: "hr00"
EndSplineSet
PickledDataWithLists: "(dp1
S'com.adobe.type.autohint'
p2
(S'data'
S'<data>\\n  <hintSetList>\\n    <hintset pointTag=\"hr00\">\\n      <hstem pos=\"706\" width=\"45\"/>\\n      <vstem pos=\"0\" width=\"54\"/>\\n    </hintset>\\n  </hintSetList>\\n  </data>'
Ntp3
s."
EndChar

StartChar: uni20B9
Encoding: 215 8377 215
GlifName: uni20B9_
Width: 552
VWidth: 0
Flags: W
LayerCount: 2
Back
Fore
SplineSet
66 716 m 257
NamedP: "hr00"
 20 639 l 257
 153 639 l 258
 200 639 222 628 238 611 c 256
 255 594 264 587 272 560 c 257
 66 560 l 257
 20 485 l 257
 286 485 l 257
 284 480 281 468 276 450 c 256
 271 432 263 416 252 401 c 256
 241 387 227 375 210 367 c 256
 175 350 136 342 99 344 c 258
 45 347 l 257
 45 279 l 257
 275 -38 l 257
 386 -38 l 257
 156 290 l 257
 225 290 310 331 348 395 c 256
 365 422 376 456 381 485 c 257
 462 485 l 257
 505 560 l 257
 378 560 l 257
 367 589 364 615 344 639 c 257
 462 639 l 257
 505 716 l 257
 66 716 l 257
NamedP: "hr00"
EndSplineSet
PickledDataWithLists: "(dp1
S'com.adobe.type.autohint'
p2
(S'data'
S'<data>\\n  <hintSetList>\\n    <hintset pointTag=\"hr00\">\\n      <hstem pos=\"290\" width=\"54\"/>\\n      <hstem pos=\"485\" width=\"75\"/>\\n      <hstem pos=\"639\" width=\"77\"/>\\n      <vstem pos=\"20\" width=\"485\"/>\\n    </hintset>\\n  </hintSetList>\\n  </data>'
Ntp3
s."
EndChar

StartChar: minus
Encoding: 223 8722 223
GlifName: minus
Width: 655
VWidth: 0
Flags: W
LayerCount: 2
Back
Fore
SplineSet
20 196 m 257
NamedP: "hr00"
 604 196 l 257
 604 268 l 257
 20 268 l 257
 20 196 l 257
NamedP: "hr00"
EndSplineSet
PickledDataWithLists: "(dp1
S'com.adobe.type.autohint'
p2
(S'data'
S'<data>\\n  <hintSetList>\\n    <hintset pointTag=\"hr00\">\\n      <hstem pos=\"196\" width=\"72\"/>\\n      <vstem pos=\"20\" width=\"584\"/>\\n    </hintset>\\n  </hintSetList>\\n  </data>'
Ntp3
s."
EndChar

StartChar: uni25CC
Encoding: 224 9676 224
GlifName: uni25CC_
Width: 630
VWidth: 0
Flags: W
LayerCount: 2
Back
Fore
SplineSet
396 -12 m 256
NamedP: "hr00"
 396 -22 400 -31 407 -38 c 256
 414 -45 422 -49 432 -49 c 256
 442 -49 450 -45 457 -38 c 256
 464 -31 468 -22 468 -12 c 256
 468 -2 464 6 457 13 c 256
 450 20 442 24 432 24 c 256
 422 24 414 20 407 13 c 256
 400 6 396 -2 396 -12 c 256
NamedP: "hr00"
162 393 m 256
 162 383 166 375 173 368 c 256
 180 361 188 357 198 357 c 256
 208 357 216 361 223 368 c 256
 230 375 234 383 234 393 c 256
 234 403 230 411 223 418 c 256
 216 425 208 429 198 429 c 256
 188 429 180 425 173 418 c 256
 166 411 162 403 162 393 c 256
482 73 m 256
 482 63 486 55 493 48 c 256
 500 41 508 37 518 37 c 256
 528 37 536 41 543 48 c 256
 550 55 554 63 554 73 c 256
 554 83 550 91 543 98 c 256
 536 105 528 109 518 109 c 256
 508 109 500 105 493 98 c 256
 486 91 482 83 482 73 c 256
77 307 m 256
 77 297 81 289 88 282 c 256
 95 275 103 271 113 271 c 256
 123 271 131 275 138 282 c 256
 145 289 149 297 149 307 c 256
 149 317 145 325 138 332 c 256
 131 339 123 343 113 343 c 256
 103 343 95 339 88 332 c 256
 81 325 77 317 77 307 c 256
162 -12 m 256
 162 -22 166 -31 173 -38 c 256
 180 -45 188 -49 198 -49 c 256
 208 -49 216 -45 223 -38 c 256
 230 -31 234 -22 234 -12 c 256
 234 -2 230 6 223 13 c 256
 216 20 208 24 198 24 c 256
 188 24 180 20 173 13 c 256
 166 6 162 -2 162 -12 c 256
396 393 m 256
 396 383 400 375 407 368 c 256
 414 361 422 357 432 357 c 256
 442 357 450 361 457 368 c 256
 464 375 468 383 468 393 c 256
 468 403 464 411 457 418 c 256
 450 425 442 429 432 429 c 256
 422 429 414 425 407 418 c 256
 400 411 396 403 396 393 c 256
482 307 m 256
 482 297 486 289 493 282 c 256
 500 275 508 271 518 271 c 256
 528 271 536 275 543 282 c 256
 550 289 554 297 554 307 c 256
 554 317 550 325 543 332 c 256
 536 339 528 343 518 343 c 256
 508 343 500 339 493 332 c 256
 486 325 482 317 482 307 c 256
77 73 m 256
 77 63 81 55 88 48 c 256
 95 41 103 37 113 37 c 256
 123 37 131 41 138 48 c 256
 145 55 149 63 149 73 c 256
 149 83 145 91 138 98 c 256
 131 105 123 109 113 109 c 256
 103 109 95 105 88 98 c 256
 81 91 77 83 77 73 c 256
513 190 m 256
 513 180 517 172 524 165 c 256
 531 158 539 154 549 154 c 256
 559 154 567 158 574 165 c 256
 581 172 585 180 585 190 c 256
 585 200 581 208 574 215 c 256
 567 222 559 226 549 226 c 256
 539 226 531 222 524 215 c 256
 517 208 513 200 513 190 c 256
45 190 m 256
 45 180 49 172 56 165 c 256
 63 158 71 154 81 154 c 256
 91 154 99 158 106 165 c 256
 113 172 117 180 117 190 c 256
 117 200 113 208 106 215 c 256
 99 222 91 226 81 226 c 256
 71 226 63 222 56 215 c 256
 49 208 45 200 45 190 c 256
279 -44 m 256
 279 -54 283 -62 290 -69 c 256
 297 -76 305 -80 315 -80 c 256
 325 -80 333 -76 340 -69 c 256
 347 -62 351 -54 351 -44 c 256
 351 -34 347 -26 340 -19 c 256
 333 -12 325 -8 315 -8 c 256
 305 -8 297 -12 290 -19 c 256
 283 -26 279 -34 279 -44 c 256
279 424 m 256
 279 414 283 406 290 399 c 256
 297 392 305 388 315 388 c 256
 325 388 333 392 340 399 c 256
 347 406 351 414 351 424 c 256
 351 434 347 442 340 449 c 256
 333 456 325 460 315 460 c 256
 305 460 297 456 290 449 c 256
 283 442 279 434 279 424 c 256
EndSplineSet
PickledDataWithLists: "(dp1
S'com.adobe.type.autohint'
p2
(S'data'
S'<data>\\n  <hintSetList>\\n    <hintset pointTag=\"hr00\">\\n      <hstem pos=\"-80\" width=\"540\"/>\\n      <hstem pos=\"-80\" width=\"72\"/>\\n      <hstem pos=\"-49\" width=\"73\"/>\\n      <hstem pos=\"37\" width=\"72\"/>\\n      <hstem pos=\"154\" width=\"72\"/>\\n      <hstem pos=\"271\" width=\"72\"/>\\n      <hstem pos=\"357\" width=\"72\"/>\\n      <hstem pos=\"388\" width=\"72\"/>\\n      <vstem pos=\"45\" width=\"540\"/>\\n      <vstem pos=\"396\" width=\"72\"/>\\n    </hintset>\\n  </hintSetList>\\n  </data>'
Ntp3
s."
EndChar

